<svg width="185" height="94" viewBox="0 0 185 94" fill="none" xmlns="http://www.w3.org/2000/svg">
<path d="M94.1594 59.9728C95.5856 59.7942 97.1319 59.8997 98.5706 59.8997C100.666 59.8995 103.034 59.6798 105.083 60.1162C107.231 60.5732 108.976 61.8901 110.158 63.726C112.144 66.8124 112.464 71.0705 111.693 74.5874C111.34 76.1976 110.426 78.8416 108.954 79.7849C108.933 79.9179 108.832 79.9969 108.74 80.0861C106.403 82.336 103.236 82.1774 100.238 82.1765C98.68 82.1758 97.1199 82.1933 95.5622 82.1747C95.1118 82.1695 94.2304 82.1815 93.915 81.8579C93.6447 80.4968 93.7634 78.9934 93.7625 77.6066L93.7618 71.2656L93.7652 64.2844C93.7661 63.084 93.6946 61.8347 93.7963 60.6411C93.8244 60.3093 93.9098 60.1827 94.1594 59.9728ZM95.7188 80.3336L99.8105 80.3273C102.297 80.3286 105.359 80.5565 107.274 78.6319C107.416 78.4889 107.571 78.3648 107.608 78.1599C108.636 77.5236 109.271 75.5037 109.533 74.3936C110.236 71.4083 110.067 67.5696 108.411 64.9039C107.542 63.5063 106.073 62.3256 104.452 61.9584C102.521 61.5211 97.9 61.6995 95.7708 61.7721C96.0041 62.7667 95.838 66.7731 95.8368 68.0249C95.8327 71.9782 95.9616 75.9689 95.8366 79.9179C95.8325 80.0436 95.8121 80.1757 95.7513 80.2871C95.742 80.3037 95.7295 80.3182 95.7188 80.3336Z" fill="#F3F6F8"/>
<path d="M140 59.9767C141.415 59.7636 143.031 59.8984 144.468 59.8966C146.368 59.8943 148.424 59.7422 150.305 59.9875C151 60.0781 151.649 60.2696 152.269 60.5975C153.647 61.3269 154.679 62.5741 155.138 64.0647C155.636 65.6832 155.467 67.598 154.671 69.095C154.024 70.3109 152.91 71.3541 151.579 71.758C152.009 71.8978 152.4 72.103 152.77 72.363C154.636 73.6778 154.707 75.7054 154.825 77.7548C154.852 78.2302 154.849 78.8336 154.998 79.2877C155.241 80.0293 156.16 80.4616 156.264 81.2007C156.305 81.4903 156.256 81.6843 156.075 81.9162C155.759 82.1325 155.437 82.1627 155.066 82.0882C153.41 81.7567 153.559 80.4062 152.816 79.2993C152.806 79.2843 152.795 79.2696 152.785 79.2546C152.826 79.1686 152.864 79.0755 152.867 78.9789C152.881 78.481 152.796 77.947 152.76 77.4485C152.67 76.1979 152.742 74.9979 151.791 74.0219C151.266 73.4822 150.563 73.1602 149.835 72.9968C148.715 72.7452 147.461 72.8518 146.32 72.8564L141.535 72.87C141.809 73.312 141.695 79.9658 141.678 81.0573C141.673 81.4193 141.587 81.7755 141.305 82.0256C141.123 82.1892 140.881 82.2709 140.636 82.2514C140.365 82.2271 140.125 82.0844 139.949 81.8806C139.716 81.6096 139.615 81.2302 139.587 80.8805C139.509 79.9029 139.601 78.8536 139.604 77.866L139.61 71.5084L139.609 64.6468C139.604 63.4114 139.518 62.1334 139.617 60.9039C139.651 60.4818 139.669 60.2565 140 59.9767ZM141.536 71.0559C142.872 71.0053 144.209 71.0212 145.546 71.0208C147.268 71.0203 150.193 71.3355 151.518 69.9728C151.578 69.9109 151.621 69.8462 151.659 69.7697C152.367 69.3624 152.83 68.3798 153.037 67.6198C153.39 66.3211 153.344 64.9321 152.658 63.7439C152.122 62.8157 151.329 62.1971 150.294 61.9205C149.072 61.594 143.112 61.672 141.612 61.7737C141.776 62.4631 141.765 70.6754 141.59 70.9745C141.57 71.009 141.558 71.0253 141.536 71.0559Z" fill="#F3F6F8"/>
<path d="M77.3499 59.9306C77.5857 59.9072 77.8943 59.8725 78.1249 59.9268C78.399 59.9912 78.6096 60.1467 78.7582 60.382C79.2729 61.1969 79.6031 62.2525 79.9694 63.1485L82.0612 68.2761L85.3078 76.2167C85.8983 77.6593 86.563 79.1101 87.0613 80.5862C87.1652 80.8944 87.268 81.2507 87.1741 81.575C87.1062 81.8089 86.9444 81.9644 86.7295 82.0678C86.4742 82.1908 86.1379 82.2072 85.8754 82.1026C85.0421 81.7708 83.3034 76.8356 82.8915 75.8083C81.4106 75.872 79.9072 75.8196 78.424 75.8205L72.7615 75.8135C72.2012 77.2252 71.1153 80.4022 70.3835 81.5348C70.1938 81.8284 69.8988 82.1754 69.533 82.2337C69.3208 82.2675 68.9686 82.1309 68.8084 81.9882C68.6418 81.84 68.5846 81.5087 68.583 81.2933C68.5808 81.0104 68.6802 80.7292 68.7755 80.4657C70.093 76.8279 71.7033 73.2408 73.1656 69.6556L75.5291 63.8583C75.9539 62.8128 76.3453 61.7261 76.8266 60.7067C76.9682 60.4074 77.1216 60.1707 77.3499 59.9306ZM73.5078 73.9736L77.8848 73.9649C79.2883 73.9629 80.7003 73.9938 82.1027 73.9491C81.0811 71.4928 80.0746 69.0302 79.0834 66.5614C78.6859 65.5804 78.3266 64.2815 77.7641 63.3994C76.3673 66.9316 74.9629 70.465 73.5078 73.9736Z" fill="#F3F6F8"/>
<path d="M44.5566 17.9148C45.8274 17.9367 47.0245 18.2511 48.0488 19.03C49.3167 19.994 50.046 21.4869 50.2468 23.0471C50.4683 24.7668 50.0905 26.6072 49.0112 27.9889C47.949 29.3484 46.5702 29.8967 44.8932 30.0955C43.5343 30.1012 42.1961 29.7508 41.1266 28.8837C39.869 27.8641 39.1528 26.3171 38.9928 24.7243C38.822 23.0219 39.2415 21.1851 40.3546 19.855C41.4802 18.51 42.8631 18.0617 44.5566 17.9148ZM45.06 29.1002C46.3607 28.8601 47.415 28.3922 48.1991 27.2664C49.0863 25.9924 49.331 24.2834 49.0398 22.7757C48.7945 21.5055 48.1248 20.2759 47.0272 19.5519C46.3135 19.0812 45.1337 18.7356 44.2678 18.9005C43.0442 19.0457 42.0155 19.501 41.2331 20.4882C40.248 21.7312 39.975 23.3553 40.1704 24.8984C40.3337 26.1898 40.9199 27.4375 41.9649 28.2474C42.7004 28.8174 43.9462 29.2475 44.8961 29.131C44.952 29.1242 45.0055 29.1133 45.06 29.1002Z" fill="#F3F6F8"/>
<path d="M168.38 59.7072C168.671 59.6876 168.962 59.6747 169.254 59.6684C171.507 59.6259 174.151 60.0954 175.823 61.7652C176.166 62.1076 176.421 62.5644 176.42 63.0587C176.42 63.3015 176.345 63.6192 176.159 63.7885C175.855 64.066 175.473 64.054 175.113 63.8885C174.648 63.6754 174.251 63.1975 173.861 62.8655C172.858 62.0107 171.244 61.5698 169.947 61.5249C168.358 61.4697 166.699 61.7992 165.514 62.9336C164.85 63.5695 164.557 64.3728 164.551 65.2835C164.523 69.8274 172.429 69.603 175.241 72.4335C176.334 73.5329 176.795 74.9762 176.788 76.5034C176.781 78.0098 176.226 79.3328 175.146 80.3891C173.433 82.0663 171.148 82.4199 168.848 82.396C167.514 82.3209 166.086 82.0774 164.884 81.4641C164.043 81.0356 161.921 79.7775 161.663 78.8449C161.578 78.5394 161.625 78.2122 161.793 77.9433C161.931 77.7227 162.145 77.5595 162.405 77.5153C163.249 77.3719 164.425 78.861 165.077 79.316C166.626 80.3973 168.947 80.7399 170.782 80.4254C172.013 80.2144 173.345 79.6164 174.069 78.5605C174.578 77.8171 174.802 76.8064 174.631 75.9195C173.974 72.5034 167.545 71.8525 164.96 70.1379C163.736 69.3253 162.814 68.1468 162.532 66.6784C162.249 65.2045 162.578 63.5205 163.44 62.2848C164.587 60.6419 166.499 60.0276 168.38 59.7072Z" fill="#F3F6F8"/>
<path d="M50.4544 59.9495C52.4524 59.8115 54.5084 59.9064 56.5145 59.9009C58.4025 59.8957 60.3613 59.7875 62.2421 59.9166C62.5832 59.94 63.0252 59.9545 63.3136 60.1501C63.4848 60.2658 63.6136 60.4322 63.6325 60.6428C63.6538 60.8833 63.4959 61.1413 63.3277 61.3027C63.0531 61.5664 62.6703 61.7116 62.2979 61.7638C61.4342 61.8852 60.391 61.7452 59.5074 61.7438L52.0442 61.7422L52.0535 69.905C54.0089 69.8524 55.9757 69.8887 57.9323 69.8839C58.9941 69.8812 60.1737 69.7727 61.2189 69.9103C61.4651 69.9427 61.7147 70.0176 61.8997 70.1914C62.0608 70.3432 62.16 70.5781 62.1595 70.7991C62.1593 71.0079 62.0708 71.2026 61.9228 71.3481C61.697 71.5698 61.4254 71.6608 61.1179 71.7018C60.0906 71.8385 58.9494 71.7345 57.9067 71.7302H52.0453L52.0478 72.5787L52.0535 80.3348C54.0266 80.309 55.9998 80.343 57.9729 80.3294C59.3263 80.3199 60.7344 80.2259 62.0821 80.3221C62.42 80.3462 62.7631 80.4059 63.072 80.5502C63.3384 80.6748 63.4943 80.825 63.5948 81.1082C63.6057 81.3587 63.5417 81.5684 63.3949 81.7715C63.2363 81.991 63.0209 82.1024 62.7572 82.1401C61.395 82.3348 59.8212 82.1614 58.4379 82.165C56.0781 82.1711 53.6345 82.3252 51.2851 82.1639C50.9341 82.1398 50.5011 82.116 50.2109 81.902C50.02 81.5242 49.993 81.036 49.9771 80.6169C49.819 76.4176 49.9833 72.1614 49.978 67.9557C49.9764 66.5281 49.7976 61.3671 50.047 60.4335C50.1215 60.1553 50.2163 60.0975 50.4544 59.9495Z" fill="#F3F6F8"/>
<path d="M119.58 59.9767C121.352 59.7378 123.339 59.9062 125.132 59.9023C127.329 59.8973 129.63 59.7557 131.815 59.9218C132.037 59.9388 132.243 59.9727 132.429 60.1068C132.623 60.2468 132.725 60.4526 132.757 60.6852C132.787 60.9103 132.759 61.1447 132.603 61.3211C132.417 61.5296 132.047 61.708 131.773 61.7474C130.834 61.8829 129.661 61.7416 128.702 61.7418L121.101 61.7431C121.155 61.8217 121.2 61.9068 121.221 62.0005C121.381 62.7135 121.322 68.5895 121.244 69.5034C121.231 69.6584 121.189 69.7734 121.109 69.9071C122.496 69.8769 129.99 69.7131 130.748 69.979C130.999 70.0671 131.219 70.2554 131.321 70.5034C131.405 70.7059 131.418 70.9387 131.317 71.1375C131.15 71.4638 130.718 71.612 130.381 71.6792C129.592 71.8371 128.665 71.747 127.858 71.7431C126.347 71.74 124.836 71.727 123.325 71.7043C122.782 71.695 121.961 71.5866 121.455 71.7577C121.235 71.8319 121.222 72.4017 121.099 72.645C121.149 72.7267 121.19 72.8104 121.216 72.9032C121.377 73.4914 121.331 79.9559 121.111 80.3376C123.219 80.3113 125.326 80.3467 127.434 80.3287C128.762 80.3176 130.196 80.1849 131.51 80.3337C131.86 80.3734 132.269 80.4778 132.537 80.7197C132.692 80.8593 132.782 81.0367 132.784 81.2464C132.786 81.4724 132.689 81.7595 132.516 81.912C132.333 82.0736 132.083 82.1301 131.847 82.1525C129.997 82.3289 128 82.165 126.136 82.1639C124.194 82.163 122.155 82.3159 120.223 82.1516C119.959 82.1292 119.542 82.1083 119.377 81.8691C119.209 81.6249 119.193 81.1556 119.183 80.8688C119.139 79.5697 119.188 78.2487 119.188 76.9473L119.183 68.6261L119.178 63.5513C119.177 62.6189 119.114 61.6388 119.213 60.7122C119.25 60.3637 119.309 60.1996 119.58 59.9767Z" fill="#F3F6F8"/>
<path d="M98.8747 34.9967C99.051 34.9702 99.2312 34.9414 99.4096 34.9348C99.6411 34.9262 99.8559 34.997 100.02 35.1628C100.568 35.7168 106.038 49.356 106.584 50.8013C106.715 51.1485 106.924 51.6198 106.91 51.9922C106.901 52.2314 106.838 52.4073 106.659 52.5741C106.47 52.6619 106.317 52.6771 106.115 52.6342C104.709 52.3349 104.217 48.663 103.421 47.5174C103.413 47.5066 103.405 47.4959 103.397 47.4852C102.196 47.5885 100.95 47.5243 99.7441 47.5186C98.2736 47.5258 96.7647 47.5694 95.2981 47.4809C95.1853 48.3317 93.7827 51.798 93.2217 52.3757C92.9946 52.6097 92.7502 52.7556 92.42 52.764C92.2282 52.6324 92.1604 52.5634 92.1016 52.3251C91.9959 51.8965 92.1182 51.3936 92.2498 50.9851C92.5836 49.9478 93.0724 48.9228 93.4918 47.9153L95.5763 42.8464L97.5692 37.9724C97.9738 36.983 98.3342 35.9201 98.8747 34.9967ZM95.7753 46.0776L99.5643 46.0638L102.731 46.0497C102.753 45.7456 99.6819 38.3534 99.3942 38.0013L99.1861 37.9611C99.1852 38.3959 96.2272 45.6557 95.885 45.983C95.8259 46.0392 95.8305 46.0338 95.7753 46.0776Z" fill="#F3F6F8"/>
<path d="M86.2625 34.8479C86.2791 34.8481 86.2957 34.8481 86.3122 34.8488C86.6837 34.8647 86.9746 34.9956 87.2234 35.2679C87.4562 35.7515 87.487 51.2221 87.2599 52.2648C87.1285 52.4418 86.9928 52.5289 86.789 52.6013C86.5174 52.698 86.261 52.7078 85.9975 52.5818C85.7492 52.2984 85.6939 51.9405 85.6589 51.5756C85.5289 50.2209 85.6539 48.7708 85.6521 47.4033L85.6451 38.2618L82.2956 43.3634C81.5681 44.4817 80.8771 45.6928 80.0268 46.7187C79.7792 47.0173 79.508 47.3691 79.12 47.4524C78.0212 46.691 73.7568 39.7731 72.7669 38.1896C72.7851 38.7197 72.7858 39.2519 72.7944 39.7824L72.8071 48.0444C72.8085 49.1094 72.9675 50.3686 72.8253 51.4052C72.7663 51.8364 72.575 52.3658 72.196 52.6204C71.9865 52.7611 71.8631 52.7547 71.6244 52.7137C71.3661 52.5287 71.2495 52.2555 71.1909 51.9516C71.0251 51.0895 71.0963 50.1367 71.0999 49.2621L71.1163 45.0167C71.1176 42.0687 70.9424 39.0377 71.1122 36.099C71.1294 35.7994 71.1494 35.4604 71.3244 35.2062C71.5656 35.0363 71.8915 34.9003 72.1949 34.9664C72.4826 35.029 72.7713 35.3687 72.9455 35.587C73.826 36.6896 74.5719 38.0351 75.3594 39.216C76.6551 41.1599 78.1261 43.1251 79.2396 45.1724C79.9871 43.6974 81.1052 42.2666 82.0256 40.8851C82.9855 39.4445 85.0923 35.8772 86.2625 34.8479Z" fill="#F3F6F8"/>
<path d="M129.046 34.9975C130 34.8818 138.664 34.8126 139.082 35.1035C139.261 35.2279 139.4 35.4289 139.415 35.6511C139.426 35.8206 139.34 36.0085 139.223 36.1285C139.082 36.2722 138.819 36.3643 138.621 36.3861C137.755 36.4814 136.776 36.4002 135.898 36.4004L130.059 36.3886C130.092 36.4383 130.123 36.488 130.149 36.5422C130.341 36.9441 130.34 42.4101 130.177 42.9112C131.324 42.8567 137.371 42.6434 138.035 43.1052C138.19 43.3081 138.242 43.4347 138.259 43.6895C138.166 43.9344 138.107 44.066 137.853 44.1815C136.561 44.7702 130.976 43.9278 130.239 44.4441C130.215 44.6313 130.157 44.7897 130.091 44.9655C130.097 44.9767 130.104 44.9876 130.11 44.9989C130.12 45.0177 130.128 45.0373 130.138 45.0563C130.173 45.1269 130.21 45.1979 130.226 45.276C130.364 45.9227 130.319 50.7908 130.073 51.2076C131.919 51.1661 133.775 51.209 135.622 51.2074C136.548 51.2065 137.52 51.1169 138.44 51.1754C138.639 51.1881 138.832 51.2589 139 51.3647C139.254 51.5249 139.363 51.7466 139.418 52.0339C139.362 52.2572 139.342 52.3659 139.133 52.4995C138.899 52.6495 138.486 52.6522 138.212 52.6659C137.137 52.7194 129.803 52.7705 129.163 52.6103C128.945 52.5556 128.761 52.4541 128.651 52.251C128.55 52.0652 128.537 51.8521 128.529 51.6451C128.391 47.9401 128.52 44.1792 128.531 40.4687C128.535 39.2585 128.32 36.4385 128.607 35.4475C128.687 35.1691 128.802 35.1242 129.046 34.9975Z" fill="#F3F6F8"/>
<path d="M31.1515 59.951C31.2582 59.9392 31.3651 59.9299 31.4722 59.9228C31.786 59.9033 32.2331 59.8858 32.4763 60.1184C32.6819 60.3154 32.6935 60.6508 32.7144 60.922C32.8825 63.1009 32.7532 65.3832 32.7523 67.5757L32.7552 80.3347C34.8706 80.2964 36.9915 80.3188 39.1076 80.3134C40.3455 80.3104 41.6703 80.214 42.8989 80.3545C43.2633 80.3962 43.5847 80.4595 43.8093 80.779C43.9414 80.9672 43.9959 81.2079 43.9448 81.4335C43.8674 81.7739 43.6012 81.9668 43.3171 82.1306C41.7338 82.3051 40.0158 82.1697 38.4146 82.1724C36.2013 82.1765 33.9046 82.3035 31.7005 82.1388C31.4379 82.1191 31.0235 82.1202 30.8538 81.9237C30.5779 80.1289 30.6782 78.2772 30.6775 76.4645L30.6784 68.579L30.6793 63.4241C30.6786 62.4921 30.6042 61.4859 30.7265 60.5662C30.7683 60.2521 30.9117 60.1314 31.1515 59.951Z" fill="#F3F6F8"/>
<path d="M37.1981 34.7226C39.0131 34.6025 40.8272 34.967 42.4549 35.7782C42.8221 35.9641 43.3159 36.2248 43.4373 36.6535C43.5006 36.877 43.4243 37.1287 43.2973 37.3184C43.1191 37.5841 42.8827 37.7071 42.5584 37.6375C42.1281 37.5453 41.5978 37.1752 41.1909 36.9846C39.5614 36.2214 37.9014 35.9736 36.1368 36.3962C34.2515 36.8473 32.7656 37.9225 31.7519 39.5766C30.6256 41.4142 30.3876 43.8371 30.8946 45.9105C31.3459 47.7568 32.4801 49.3991 34.1144 50.3878C35.9548 51.5011 37.9438 51.5912 39.9887 51.0884C40.588 50.893 42.37 49.803 42.8727 49.9968C43.1225 50.0933 43.3259 50.3286 43.4078 50.5819C43.482 50.8115 43.4552 50.9647 43.3554 51.1791C42.2929 52.2303 40.0915 52.7658 38.6441 52.8736C36.2119 53.0547 33.8083 52.4129 31.9489 50.797C30.1189 49.2069 29.09 46.9907 28.9239 44.5862C28.7496 42.063 29.4145 39.5897 31.0999 37.6681C32.7531 35.783 34.7117 34.8798 37.1981 34.7226Z" fill="#F3F6F8"/>
<path d="M110.426 34.9974C112.575 34.7634 115.389 34.9413 117.604 34.9477C119.263 34.9524 121.015 34.8052 122.659 34.942C122.926 34.9642 123.238 34.9974 123.447 35.1839C123.639 35.3561 123.657 35.5631 123.66 35.807C123.62 35.9155 123.575 36.0201 123.486 36.0982C122.902 36.6117 118.604 36.3939 117.571 36.3898C117.631 36.4806 117.683 36.5745 117.708 36.6809C117.912 37.5587 117.753 39.3237 117.754 40.305C117.755 42.4379 117.874 44.6504 117.732 46.7751C117.721 46.9469 117.679 47.0713 117.587 47.2176C117.594 47.2326 117.602 47.2476 117.609 47.2626C117.925 47.8673 117.821 51.0997 117.685 51.8597C117.637 52.1256 117.516 52.3895 117.278 52.5357C117.072 52.6618 116.762 52.7027 116.527 52.6457C116.351 52.6028 116.254 52.5386 116.171 52.3705C115.83 51.6706 116.002 49.5529 116.003 48.7026L116.003 40.6783C116.006 39.4077 116.133 38.0573 116.011 36.7944C115.997 36.6385 115.954 36.5221 115.872 36.388C114.943 36.476 110.742 36.5924 110.141 36.0607C110.018 35.9523 109.953 35.8327 109.963 35.6702C109.981 35.3806 110.223 35.1728 110.426 34.9974Z" fill="#F3F6F8"/>
<path d="M48.3255 34.9591C48.5572 34.9461 48.8063 34.9384 49.0367 34.9673C49.2598 34.9952 49.3941 35.0971 49.5282 35.272C49.6961 35.4915 49.6846 36.0352 49.6968 36.3141C49.8221 39.1954 49.702 42.135 49.7032 45.0217C49.7041 46.9052 49.874 49.3776 49.6385 51.1994C50.8054 51.2078 57.6577 50.9808 58.2738 51.3494C58.4714 51.4676 58.5626 51.6237 58.5912 51.8522C58.625 52.1246 58.5032 52.3329 58.3611 52.5491C57.5991 52.799 49.0222 52.7831 48.1582 52.4915L48.1855 52.2809L48.0979 52.3045L48.0913 52.265C47.9059 51.0986 47.9719 49.8752 47.9742 48.6975L47.9703 44.0664L47.9674 38.8929C47.9676 37.8451 47.9179 36.7634 48.0248 35.7204C48.0564 35.4129 48.1469 35.2087 48.3255 34.9591Z" fill="#F3F6F8"/>
<path d="M85.9774 23.3683C85.925 22.7508 85.832 18.7166 86.0857 18.4022C86.2397 18.2115 86.4034 18.1715 86.6375 18.1429C86.7909 18.198 86.8999 18.2103 86.9884 18.3589C87.1354 18.6057 87.2266 29.1431 87.0403 29.6603C86.9523 29.9047 86.7374 29.9401 86.5211 30.0316C86.3709 29.9766 86.2608 29.9033 86.1317 29.8098C85.7351 29.0623 85.9468 25.385 85.9479 24.2783L79.1766 24.288C79.2465 25.3146 79.347 28.9099 79.1192 29.7236C78.9842 29.9111 78.8905 29.9834 78.6722 30.0599C78.4802 30.0077 78.4033 29.9621 78.2996 29.7769C78.1559 29.5203 78.1212 29.1581 78.1055 28.8701C78.0057 27.0441 78.1216 25.1658 78.1257 23.3358C78.1291 21.8396 77.8784 19.4826 78.2101 18.1294C78.5067 18.1415 78.7997 18.1244 79.0536 18.2991C79.4065 18.9461 79.2045 22.4389 79.1982 23.3771C81.4529 23.3199 83.7211 23.3692 85.9774 23.3683Z" fill="#F3F6F8"/>
<path d="M63.5772 34.9583C63.768 34.9517 63.963 34.9508 64.1536 34.9635C64.42 34.9815 64.5938 35.0738 64.7688 35.274C64.9751 36.1506 65.0259 50.9079 64.865 51.9316C64.8087 52.289 64.6313 52.4181 64.3585 52.6205C64.2176 52.6414 64.0739 52.6632 63.9317 52.6702C63.6546 52.6836 63.5073 52.5942 63.3083 52.4177C63.0028 51.1723 63.1749 49.5979 63.1735 48.3037L63.1721 41.4056C63.1728 39.7506 63.0178 36.9744 63.2103 35.4471C63.2407 35.2057 63.3959 35.0963 63.5772 34.9583Z" fill="#F3F6F8"/>
<path d="M53.6949 18.137C53.8899 18.1424 54.1077 18.1363 54.2986 18.1752C55.4611 18.4127 53.8275 25.6832 55.3896 27.7954C55.9358 28.5336 56.7943 28.9789 57.6984 29.0923C58.5648 29.201 59.4335 28.9019 60.112 28.3675C60.6779 27.9218 61.0624 27.3325 61.2584 26.6404C61.8201 24.6595 61.1373 20.8873 61.4375 18.6733C61.4758 18.3902 61.5332 18.3139 61.7511 18.1437C61.9882 18.1206 62.0969 18.1684 62.2955 18.2952C62.4716 18.4907 62.4575 18.6893 62.4657 18.9365C62.4587 21.0032 62.6858 24.5184 62.3774 26.4069C62.1857 27.5794 61.6027 28.5692 60.6244 29.2571C59.6472 29.9483 58.4339 30.2201 57.255 30.0116C56.0929 29.8015 55.032 29.1568 54.3657 28.1744C54.0285 27.6815 53.8011 27.1219 53.6993 26.5337C53.5018 25.4038 53.4893 19.2175 53.6949 18.137Z" fill="#F3F6F8"/>
<path d="M32.5066 23.1561C33.4177 21.7766 34.3903 20.4321 35.3205 19.0652C35.5987 18.6565 35.9555 18.3429 36.4479 18.2487C36.6903 18.316 36.6903 18.3057 36.8153 18.5221C36.8332 19.4518 34.6847 21.9063 34.064 22.7664C33.7218 23.2055 33.4021 23.6601 33.0803 24.1142C33.0292 25.2517 33.0567 26.4129 33.0755 27.5517C33.0846 28.0961 33.1531 28.7185 33.0721 29.255C33.0263 29.5584 32.8997 29.7719 32.6491 29.9546C32.4065 29.9966 32.3904 29.9963 32.1721 29.8833C31.6804 29.2327 31.9216 25.22 31.942 24.1959C30.9622 22.7367 28.6334 20.0831 28.0332 18.6875C28.0981 18.3791 28.234 18.3096 28.4596 18.0967C28.5034 18.1012 28.5279 18.1029 28.5735 18.1125C29.2793 18.2611 31.9334 22.3402 32.5066 23.1561Z" fill="#F3F6F8"/>
<path d="M66.0823 18.1633C67.6914 18.1158 69.311 18.1454 70.9213 18.1416C71.9318 18.1393 73.016 18.0518 74.0154 18.1882C74.3338 18.2316 74.7114 18.2966 74.9132 18.568L74.8614 18.756C74.2219 19.3387 71.6545 19.0764 70.7717 19.0657C70.9803 21.4191 70.8171 23.9131 70.8119 26.2817C70.8169 27.1495 71.0252 29.063 70.7002 29.7646C70.6462 29.8813 70.5382 29.9469 70.41 29.9718C70.1645 30.0197 70.0832 29.9351 69.9119 29.7882C69.7914 29.5363 69.7388 29.2985 69.7229 29.0196C69.6752 28.1814 69.7605 27.3149 69.7571 26.4726L69.756 19.0666C68.9722 19.0748 66.3705 19.2748 65.7641 18.884C65.6552 18.8138 65.6686 18.7492 65.6445 18.6291C65.7469 18.3862 65.8708 18.2999 66.0823 18.1633Z" fill="#F3F6F8"/>
<path d="M21.1166 26.0383C22.0128 26.7945 23.0319 28.9103 23.8327 29.9503C22.9214 30.4178 22.1567 30.9413 21.4085 31.6428C20.4367 30.4251 19.5178 29.1595 18.5801 27.915C19.3578 27.2165 20.2499 26.6204 21.1166 26.0383Z" fill="#F3F6F8"/>
<path d="M9.80051 39.4104C11.1896 40.0115 12.6144 40.5834 13.9604 41.2744C13.7225 41.836 13.3099 43.5058 12.9499 43.8441C11.4963 43.3347 10.0044 42.9307 8.54395 42.4362C8.88157 41.3738 9.26737 40.391 9.80051 39.4104Z" fill="#F3F6F8"/>
<path d="M16.3523 29.7058C17.0752 29.977 18.839 32.3867 19.7556 33.0559C19.0205 33.6532 18.3925 34.4009 17.6926 35.0431C16.6184 33.941 15.3496 33.0258 14.2373 31.9583C14.8939 31.1763 15.6475 30.4465 16.3523 29.7058Z" fill="#F3F6F8"/>
<path d="M12.5114 34.2068C13.9058 35.0183 15.1571 36.0712 16.531 36.9215C16.1035 37.5751 15.5942 38.6257 14.9951 39.0955C13.6432 38.2913 12.2371 37.492 10.8223 36.8058C11.4056 35.9528 11.9688 35.0864 12.5114 34.2068Z" fill="#F3F6F8"/>
<path d="M12.217 56.0868L12.5024 56.0725C12.9213 56.4056 13.1398 57.9916 13.2901 58.5485C11.9401 59.1063 10.5032 59.4685 9.1173 59.9305C9.00865 59.928 8.96369 59.9448 8.87025 59.8801C8.38734 59.545 8.08696 57.7404 7.94434 57.1302C9.37366 56.8068 10.7851 56.4056 12.217 56.0868Z" fill="#F3F6F8"/>
<path d="M16.5609 65.3152C17.1329 65.6592 17.7181 66.6985 18.3025 67.1887C17.5842 67.8218 15.5144 70.1281 14.8057 70.39C14.0876 69.6502 13.3853 68.7683 12.9253 67.8418C14.0671 66.9112 15.3188 66.1044 16.5609 65.3152Z" fill="#F3F6F8"/>
<path d="M10.4829 51.0858C11.0039 51.039 11.5234 51.0542 12.0457 51.0631C12.0489 51.915 12.0763 52.7476 12.1527 53.5967C11.0298 53.8162 9.88176 53.9557 8.74951 54.123L7.41536 54.3006L7.30078 51.1448C8.3532 51.2292 9.42952 51.133 10.4829 51.0858Z" fill="#F3F6F8"/>
<path d="M7.90529 45.1353C9.3823 45.2932 10.8818 45.6835 12.3375 45.9862C12.3461 46.8179 12.2948 47.6889 12.2045 48.516L12.0602 48.6136C10.5279 48.4302 8.98281 48.3061 7.44434 48.1849C7.51564 47.1815 7.68701 46.1169 7.90529 45.1353Z" fill="#F3F6F8"/>
<path d="M19.9703 68.9778C20.5335 69.2537 21.3408 70.1737 21.9728 70.5781C21.3763 71.2253 19.6386 74.0442 19.0339 74.2259C18.1837 73.7682 17.3928 72.9996 16.7295 72.3073C17.8437 71.2396 18.8952 70.0861 19.9703 68.9778Z" fill="#F3F6F8"/>
<path d="M13.9853 60.8135C14.2996 61.003 15.1119 62.7076 15.3767 63.1238C13.9839 63.7331 12.6166 64.6354 11.292 65.3922L11.1812 65.3788C10.5856 64.9726 10.182 63.5393 9.96582 62.8699C11.2657 62.1201 12.642 61.4825 13.9853 60.8135Z" fill="#F3F6F8"/>
</svg>
