<svg width="155" height="152" viewBox="0 0 155 152" fill="none" xmlns="http://www.w3.org/2000/svg">
<path d="M81.7703 40.4436C82.7219 40.3353 83.7205 40.4461 84.5479 40.9506C85.4369 41.4926 86.103 42.4235 86.3434 43.4225C86.6714 44.785 86.482 48.282 86.478 49.8411L86.463 65.6791C86.4628 68.2917 86.2142 73.227 86.795 75.5647C87.5076 78.4617 89.3628 80.9586 91.9491 82.5022C94.5612 84.0556 97.6968 84.5093 100.652 83.7611C103.514 83.0592 105.972 81.2562 107.477 78.7548C109.039 76.1312 109.604 72.9818 108.795 70.0244C107.648 65.8299 104.152 62.6626 99.8172 61.8892C98.3686 61.6381 96.8427 61.8261 95.533 61.0464C94.5934 60.4933 93.9249 59.5841 93.684 58.5314C93.4444 57.4797 93.62 56.3767 94.2163 55.469C94.8451 54.512 95.8456 53.8888 96.974 53.6776C100.552 53.008 105.904 55.0024 108.783 56.9645C112.656 59.6175 115.422 63.566 116.566 68.0773C117.819 73.1035 116.942 78.2285 114.22 82.6355C111.578 86.9278 107.304 90.0001 102.352 91.1678C97.3607 92.3447 92.1005 91.5256 87.7204 88.8897C83.1329 86.1057 80.1795 81.8073 78.9537 76.6743C78.2586 73.7638 78.4978 70.5102 78.4999 67.532L78.5024 57.139L78.5082 48.7402C78.5109 47.0766 78.442 45.3595 78.5976 43.7029C78.6507 43.1365 78.7865 42.6714 79.1033 42.1896C79.7362 41.2264 80.6471 40.6753 81.7703 40.4436Z" fill="#F3F6F8"/>
<path d="M51.5663 54.0358C55.9753 53.664 60.5353 55.0209 64.1294 57.5271C68.0323 60.2484 71.0176 64.724 71.7986 69.3953C72.0457 70.8733 71.9854 72.4287 71.996 73.9236L72.0106 80.7074L72.036 85.3207C72.0411 86.254 72.0938 87.2336 71.9812 88.1611C71.8887 88.9207 71.657 89.6298 71.1879 90.2501C70.5801 91.0532 69.6691 91.5369 68.6719 91.6783C67.6184 91.8278 66.59 91.6227 65.7347 90.977C65.086 90.4872 64.5778 89.7886 64.3553 89.0109C63.949 87.5908 64.1217 85.8512 64.1227 84.3818L64.1277 76.1947C64.1254 74.4392 64.2236 72.5743 63.9486 70.8386C63.4973 67.9894 61.8909 65.295 59.5061 63.6153C57.0155 61.8303 53.8994 61.1127 50.8645 61.6251C47.8472 62.1414 45.3235 63.8699 43.5734 66.3163C41.8894 68.9053 41.2148 71.688 41.7124 74.751C42.4372 79.3781 45.9893 83.0807 50.6344 84.0506C52.2776 84.3869 54.3487 84.1056 55.7367 85.1461C56.4528 85.6898 56.9242 86.4886 57.05 87.3711C57.185 88.3918 56.7538 89.4141 56.1067 90.1938C55.3315 91.128 54.2642 91.6548 53.0489 91.7629C49.9449 92.0394 45.9236 90.8061 43.2489 89.266C42.1928 88.6579 41.2175 87.9072 40.2861 87.1274C36.4318 83.8914 34.0633 79.2596 33.7163 74.2797C33.3388 69.5495 34.9866 64.2798 38.1532 60.6529C40.8296 57.5875 44.5195 55.2782 48.5488 54.4086C49.547 54.1933 50.5504 54.1125 51.5663 54.0358Z" fill="#F3F6F8"/>
<path d="M135.629 40.391C142.904 39.7673 149.307 45.0921 149.911 52.2677C150.516 59.4433 145.091 65.7368 137.812 66.3052C130.572 66.8706 124.232 61.5568 123.63 54.4201C123.029 47.2834 128.394 41.011 135.629 40.391ZM133.724 62.2974C133.705 62.2701 133.687 62.2427 133.667 62.2158C133.343 61.7589 132.932 61.4016 132.571 60.9778C131.593 59.8315 131.185 58.4473 131.445 56.963C131.499 56.6563 131.582 56.3522 131.662 56.051C132.197 54.4822 133.084 53.3722 134.611 52.6333C135.215 52.3408 135.843 52.1597 136.49 51.9838C134.761 53.0186 133.144 54.5236 132.646 56.5231C132.524 57.0148 132.383 57.7837 132.694 58.2247C132.776 58.3409 132.976 58.3776 133.113 58.3903C133.631 58.4385 134.193 58.3094 134.698 58.2072C136.652 57.8115 138.424 57.1166 139.937 55.7977C141.852 54.1277 142.941 51.6501 143.087 49.1574C143.127 48.4717 143.166 46.622 142.769 46.0449C142.752 46.0192 142.724 46.0021 142.701 45.9807C141.602 46.5548 141.139 47.6921 139.812 48.2478C138.377 48.849 136.84 48.823 135.339 49.1126C132.759 49.6208 130.667 51.4792 129.887 53.9566C129.319 55.7736 129.52 57.7393 130.442 59.4086C131.197 60.7683 132.274 61.7159 133.724 62.2974Z" fill="#F3F6F8"/>
<path d="M9.79611 40.4482C10.7293 40.3226 11.6807 40.406 12.5153 40.8679C13.4524 41.3863 14.1923 42.3732 14.439 43.408C14.8227 45.0185 14.6081 48.1479 14.6004 49.9072L14.5474 65.5515C14.5451 68.2862 14.3 73.4697 14.9608 75.8699C16.048 79.8192 19.3872 83.07 23.4757 83.9202C24.8121 84.1981 26.4245 84.0982 27.6185 84.8077C28.4946 85.3282 29.1228 86.2715 29.3466 87.2499C29.5625 88.1939 29.3514 89.1592 28.827 89.9703C28.2385 90.8809 27.3841 91.3849 26.3403 91.6321C23.052 92.083 18.7375 90.6386 15.9719 88.968C11.5982 86.381 8.45133 82.1811 7.22873 77.2988C6.42533 73.956 6.61115 70.4973 6.60878 67.085L6.62189 56.2909L6.61311 48.0328C6.6166 46.6496 6.53263 45.1884 6.68577 43.8154C6.75563 43.1891 6.94275 42.6112 7.29107 42.0806C7.86289 41.2093 8.77925 40.6554 9.79611 40.4482Z" fill="#F3F6F8"/>
<path d="M16.7278 106.502C16.4867 106.487 16.3005 106.48 16.0814 106.365C15.7093 105.684 15.6998 101.633 15.8903 100.784C15.9286 100.612 15.9435 100.59 16.0841 100.499C16.2062 100.558 16.2335 100.559 16.3201 100.674C16.5656 101 16.6198 101.82 16.5435 102.213C16.5352 102.256 16.525 102.298 16.5158 102.34C17.4743 102.08 18.4385 101.833 19.3664 102.357C19.8204 102.614 20.1278 103.026 20.262 103.523C20.4608 104.257 20.3032 105.222 19.9163 105.885C19.8582 105.984 19.7877 106.072 19.7158 106.162C19.255 106.591 18.5904 106.591 17.9876 106.577C17.5676 106.567 17.1468 106.533 16.7278 106.502ZM16.8274 105.431C17.0116 105.575 17.1745 105.66 17.4047 105.714C18.0699 105.871 18.6538 105.705 19.2257 105.364C19.4199 105.114 19.551 104.89 19.6305 104.581C19.7314 104.188 19.722 103.836 19.4908 103.491C19.2756 103.17 18.9056 102.964 18.5273 102.893C17.7866 102.753 17.1768 103.069 16.5895 103.468C16.5729 104.163 16.4349 104.801 16.8274 105.431Z" fill="#F3F6F8"/>
<path d="M16.7278 106.502C16.4867 106.487 16.3005 106.48 16.0814 106.365C15.7093 105.684 15.6998 101.633 15.8903 100.784C15.9286 100.612 15.9435 100.59 16.0841 100.499C16.2062 100.558 16.2335 100.559 16.3201 100.674C16.5656 101 16.6198 101.82 16.5435 102.213C16.5352 102.256 16.525 102.298 16.5158 102.34C16.4004 102.506 16.4714 103.138 16.5361 103.346C16.5493 103.388 16.5717 103.427 16.5895 103.468C16.5729 104.163 16.4349 104.801 16.8274 105.431C16.6672 105.58 16.4825 105.773 16.4729 106.006C16.466 106.175 16.4916 106.298 16.6175 106.417C16.6511 106.449 16.6911 106.474 16.7278 106.502Z" fill="#F3F6F8"/>
<path d="M60.8804 103.118C60.9663 103.973 61.1791 105.377 60.5871 106.09C60.3019 106.433 59.9123 106.517 59.4853 106.565C58.6577 106.656 57.6825 106.68 57.0103 106.117C56.5624 105.742 56.3432 105.154 56.3062 104.587C56.26 103.934 56.4863 103.29 56.9325 102.806C57.3601 102.332 57.971 102.015 58.6196 102C59.2409 101.985 59.804 102.278 60.2399 102.695C60.262 102.716 60.2838 102.738 60.3059 102.76C60.4718 102.925 60.5873 103.087 60.8194 103.151L60.8804 103.118ZM58.8236 105.869C59.6929 105.742 60.2924 104.943 60.1609 104.086C60.0294 103.229 59.217 102.641 58.3486 102.774C57.4847 102.906 56.8919 103.702 57.0226 104.555C57.1534 105.407 57.9586 105.994 58.8236 105.869Z" fill="#F3F6F8"/>
<path d="M31.311 102.011C31.544 101.998 31.7516 102.003 31.9789 102.063C32.6304 102.235 33.1373 102.606 33.4614 103.194C33.9706 104.119 33.893 105.365 33.6018 106.349C32.9907 106.536 32.3153 106.577 31.6804 106.621C31.2205 106.625 30.8039 106.611 30.3863 106.4C29.8507 106.129 29.485 105.665 29.3107 105.1C29.1116 104.455 29.1487 103.721 29.5047 103.135C29.9207 102.451 30.5726 102.212 31.311 102.011ZM31.8612 105.825C32.3051 105.684 32.6714 105.573 32.9023 105.145C33.1098 104.761 33.1154 104.31 32.9699 103.904C32.8139 103.468 32.4854 103.128 32.059 102.941C31.7166 102.791 31.4764 102.783 31.1091 102.836C30.5955 103.062 30.1982 103.284 29.9817 103.823C29.8336 104.186 29.845 104.594 30.0131 104.949C30.2014 105.344 30.5774 105.636 30.9951 105.767C31.2765 105.855 31.571 105.845 31.8612 105.825Z" fill="#F3F6F8"/>
<path d="M12.5111 101.932C13.0244 101.931 13.4048 102.089 13.8083 102.403C14.4165 102.876 14.7759 103.531 14.8664 104.286C14.9378 104.881 14.9483 105.693 14.5227 106.165C14.107 106.626 13.2674 106.574 12.6938 106.598C12.3 106.596 11.8915 106.585 11.5211 106.438C10.988 106.226 10.5718 105.823 10.3742 105.289C10.1606 104.711 10.1449 103.988 10.4176 103.426C10.814 102.61 11.6877 102.208 12.5111 101.932ZM12.6847 105.8C13.1784 105.691 13.6333 105.609 13.9274 105.157C14.1548 104.807 14.2102 104.393 14.1073 103.992C14.0052 103.585 13.7374 103.238 13.3671 103.032C13.0551 102.856 12.7594 102.812 12.4064 102.832C11.8258 103.029 11.3305 103.2 11.0448 103.783C10.873 104.133 10.8647 104.563 11.0099 104.924C11.1558 105.287 11.4781 105.579 11.85 105.709C12.1124 105.801 12.4089 105.818 12.6847 105.8Z" fill="#F3F6F8"/>
<path d="M88.5998 102.028C88.812 102.021 89.0424 102.046 89.2492 102.092C89.7838 102.21 90.2289 102.564 90.5095 103.021C91.1093 103.996 91.0264 105.269 90.7867 106.339C90.2041 106.472 89.5862 106.522 88.9933 106.602C88.3348 106.629 87.7655 106.638 87.2176 106.22C86.7265 105.845 86.4869 105.234 86.4112 104.643C86.3301 104.009 86.4289 103.325 86.8532 102.82C87.3102 102.277 87.9155 102.094 88.5998 102.028ZM88.9592 105.814C89.4483 105.668 89.8501 105.598 90.107 105.113C90.2963 104.756 90.2911 104.371 90.1553 103.996C89.9847 103.524 89.597 103.086 89.135 102.874C88.9162 102.772 88.6745 102.728 88.4334 102.745C87.9452 102.875 87.5883 103.017 87.3337 103.473C87.091 103.915 87.0494 104.437 87.2195 104.911C87.3485 105.277 87.6257 105.609 87.9908 105.764C88.2947 105.894 88.6395 105.84 88.9592 105.814Z" fill="#F3F6F8"/>
<path d="M98.8725 101.94L98.9834 102.033C99.8961 102.788 100.504 102.897 100.653 104.264C100.702 104.713 100.841 105.826 100.571 106.201C100.366 106.486 99.1017 106.616 98.7365 106.638C98.0906 106.678 97.4612 106.594 96.9578 106.161C96.4719 105.744 96.2053 105.101 96.178 104.473C96.1466 103.815 96.3918 103.175 96.8557 102.701C97.4807 102.07 98.0675 102.221 98.8319 101.978L98.8725 101.94ZM98.5322 105.857C98.9898 105.728 99.4306 105.583 99.8744 105.413C99.8855 104.729 100.003 103.809 99.4817 103.267C99.1714 102.945 98.682 102.8 98.247 102.75C97.7507 102.86 97.4317 103.014 97.1646 103.46C96.9112 103.886 96.8494 104.398 96.9936 104.871C97.1034 105.236 97.3584 105.573 97.706 105.747C97.965 105.876 98.2497 105.866 98.5322 105.857Z" fill="#F3F6F8"/>
<path d="M103.42 102.016C103.942 101.997 104.436 102.066 104.898 102.32C105.422 102.606 105.778 103.077 105.924 103.648C106.086 104.283 106.075 105.125 105.709 105.694C105.3 106.327 104.71 106.474 104.014 106.618C103.574 106.627 103.162 106.627 102.754 106.442C102.164 106.172 101.713 105.674 101.506 105.066C101.31 104.493 101.351 103.888 101.64 103.354C102.014 102.664 102.681 102.243 103.42 102.016ZM103.936 105.802C104.427 105.667 104.83 105.58 105.101 105.107C105.32 104.73 105.372 104.282 105.246 103.866C105.132 103.479 104.873 103.169 104.509 102.983C104.109 102.778 103.73 102.786 103.295 102.841C102.795 103.064 102.437 103.303 102.233 103.827C102.068 104.251 102.082 104.722 102.292 105.129C102.457 105.451 102.739 105.681 103.089 105.787C103.362 105.87 103.66 105.859 103.936 105.802Z" fill="#F3F6F8"/>
<path d="M122.906 102.024C123.328 102.015 123.792 102.081 124.147 102.321C124.801 102.761 125.057 103.524 125.168 104.263C125.251 104.811 125.389 105.776 124.984 106.219C124.643 106.592 123.776 106.553 123.29 106.593C122.712 106.589 122.265 106.607 121.76 106.271C121.21 105.906 120.884 105.314 120.781 104.676C120.68 104.052 120.798 103.377 121.202 102.873C121.648 102.316 122.215 102.115 122.906 102.024ZM123.063 105.877C123.484 105.809 123.922 105.775 124.202 105.414C124.49 105.043 124.561 104.574 124.484 104.122C124.41 103.689 124.187 103.253 123.813 103C123.564 102.832 123.305 102.786 123.01 102.764C122.501 102.852 122.118 102.955 121.799 103.384C121.525 103.754 121.425 104.209 121.51 104.659C121.585 105.067 121.824 105.429 122.172 105.662C122.444 105.841 122.745 105.859 123.063 105.877Z" fill="#F3F6F8"/>
<path d="M39.5634 101.873L39.7225 101.871C40.3777 102.262 41.4454 102.736 41.6752 103.508C41.8705 104.164 41.6471 105.162 41.289 105.724C41.003 106.173 40.5843 106.482 40.0568 106.596C39.3978 106.739 38.618 106.609 38.0658 106.22C37.5657 105.867 37.293 105.322 37.2105 104.73C37.1225 104.101 37.2123 103.392 37.6171 102.878C38.0547 102.323 38.7353 102.068 39.4246 101.99C39.4561 101.987 39.4877 101.984 39.5195 101.981L39.5634 101.873ZM39.7487 105.855C40.2502 105.667 40.6544 105.426 40.8832 104.925C41.0558 104.556 41.0633 104.133 40.9037 103.758C40.6959 103.278 40.3128 103.036 39.8315 102.862C39.6183 102.784 39.4303 102.738 39.2035 102.743C38.6748 102.927 38.2471 103.093 37.9963 103.626C37.8049 104.032 37.8099 104.495 37.9875 104.906C38.1654 105.317 38.5302 105.638 38.9587 105.781C39.2135 105.866 39.4835 105.861 39.7487 105.855Z" fill="#F3F6F8"/>
<path d="M49.44 102.072C50.7294 101.964 51.8609 102.914 51.9589 104.186C52.0572 105.458 51.0844 106.566 49.7933 106.652C48.5177 106.736 47.4115 105.791 47.3144 104.534C47.2175 103.278 48.1663 102.178 49.44 102.072ZM48.7979 105.676C49.0741 105.842 49.3948 105.92 49.7174 105.902C50.2996 105.869 50.8173 105.526 51.0682 105.007C51.319 104.488 51.2629 103.876 50.922 103.409C50.581 102.943 50.0093 102.696 49.4306 102.767C48.7556 102.849 48.2075 103.344 48.0648 104C47.9222 104.656 48.2165 105.328 48.7979 105.676Z" fill="#F3F6F8"/>
<path d="M147.624 102.025C148.19 101.984 148.629 102.19 149.11 102.45C149.397 102.842 149.56 103.236 149.675 103.704C149.824 104.304 150.047 105.631 149.662 106.153C149.373 106.546 148.331 106.54 147.852 106.591C147.358 106.583 146.89 106.574 146.457 106.307C145.945 105.992 145.639 105.499 145.528 104.92C145.397 104.235 145.519 103.462 145.949 102.898C146.378 102.334 146.941 102.127 147.624 102.025ZM146.79 105.647C147.15 105.748 147.468 105.829 147.848 105.831C148.233 105.759 148.64 105.719 148.884 105.375C149.15 104.999 149.178 104.522 149.084 104.086C148.986 103.636 148.726 103.199 148.328 102.946C148.102 102.802 147.87 102.761 147.605 102.751C147.103 102.867 146.753 103.015 146.48 103.468C146.217 103.905 146.203 104.451 146.35 104.929C146.435 105.207 146.604 105.426 146.79 105.647Z" fill="#F3F6F8"/>
<path d="M22.8362 102.019C23.45 101.96 23.8985 101.982 24.4164 102.346C24.9518 102.723 25.3106 103.337 25.4029 103.976C25.4986 104.64 25.331 105.432 24.8989 105.96C24.5356 106.404 24.2219 106.495 23.6632 106.568C23.148 106.593 22.5352 106.592 22.0514 106.408C21.6601 106.259 21.4172 105.98 21.2658 105.599C20.9893 104.902 20.9881 103.832 21.3303 103.155C21.6662 102.491 22.1654 102.258 22.8362 102.019ZM23.6305 105.768C24.0844 105.583 24.4332 105.356 24.6238 104.89C24.7885 104.48 24.7679 104.02 24.5672 103.625C24.3891 103.271 24.0613 102.981 23.6778 102.858C23.3918 102.766 23.0991 102.794 22.8075 102.838C22.312 103.071 22.0204 103.239 21.8274 103.765C21.671 104.191 21.6801 104.692 21.8842 105.102C22.0427 105.421 22.3526 105.691 22.7037 105.783C22.988 105.857 23.3414 105.814 23.6305 105.768Z" fill="#F3F6F8"/>
<path d="M79.2502 102.015C79.6473 102.001 80.0588 102.072 80.4126 102.254C80.9582 102.536 81.3349 103.016 81.5112 103.595C81.7101 104.249 81.6508 105.035 81.2939 105.628C80.9018 106.278 80.4226 106.438 79.7228 106.608C79.1704 106.616 78.6583 106.636 78.1637 106.348C77.6971 106.076 77.4155 105.641 77.2886 105.127C77.1199 104.445 77.1902 103.647 77.5692 103.042C77.9606 102.418 78.547 102.161 79.2502 102.015ZM79.7865 105.804C80.2609 105.601 80.616 105.391 80.8132 104.897C80.9777 104.485 80.9565 104.024 80.7545 103.629C80.5686 103.265 80.2418 102.99 79.8478 102.866C79.5683 102.779 79.2833 102.798 78.9975 102.836C78.4906 103.066 78.1728 103.287 77.987 103.829C77.8414 104.254 77.8662 104.754 78.0829 105.152C78.2494 105.459 78.5734 105.74 78.9226 105.818C79.1953 105.879 79.5117 105.835 79.7865 105.804Z" fill="#F3F6F8"/>
<path d="M137.359 102.017C137.994 101.989 138.573 102.098 139.101 102.468C139.47 102.727 139.73 103.108 139.785 103.556C139.885 104.361 139.37 104.594 139.282 105.219C139.236 105.551 139.434 105.951 139.199 106.24C138.928 106.574 138.344 106.544 137.943 106.582C137.508 106.592 137.014 106.603 136.626 106.386C136.086 106.083 135.747 105.56 135.587 104.976C135.409 104.32 135.512 103.681 135.865 103.1C136.223 102.513 136.7 102.192 137.359 102.017ZM136.423 104.138C137.006 104.086 137.584 104.077 138.169 104.074C138.433 104.079 138.732 104.121 138.965 103.985C139.08 103.808 139.077 103.796 139.064 103.585C138.853 103.209 138.499 102.931 138.081 102.81C137.862 102.748 137.663 102.737 137.436 102.741C137.077 102.869 136.792 102.988 136.627 103.35C136.544 103.533 136.51 103.741 136.468 103.935L136.439 104.062L136.423 104.138ZM138.869 105.579C138.99 105.386 139.07 105.258 139.086 105.023C138.981 104.835 138.929 104.781 138.717 104.713C138.082 104.51 137.133 104.605 136.46 104.589C136.498 104.963 136.502 105.327 136.807 105.594C137.082 105.833 137.439 105.854 137.787 105.82C138.151 105.784 138.521 105.686 138.869 105.579Z" fill="#F3F6F8"/>
<path d="M63.5415 102.01C64.0998 101.971 64.5792 102.062 65.0462 102.379C65.5947 102.751 66.0687 103.43 66.1503 104.09C66.1796 104.326 66.1157 104.432 65.9666 104.608C65.3056 104.875 63.4612 104.627 62.6631 104.586C62.7097 104.958 62.748 105.364 63.0556 105.623C63.4585 105.963 64.0773 105.818 64.5524 105.747C64.853 105.69 65.1261 105.604 65.4027 105.758L65.4453 105.938C65.327 106.192 65.1144 106.327 64.8577 106.429C64.0981 106.729 63.2526 106.589 62.5196 106.292C62.3255 106.049 62.1529 105.795 62.036 105.507C61.7508 104.801 61.6741 103.939 62.0042 103.234C62.3137 102.573 62.8678 102.241 63.5415 102.01ZM62.5905 104.156C63.1775 104.142 63.7649 104.122 64.3519 104.116L65.2681 104.065C65.1292 103.591 64.9767 103.141 64.4998 102.899C64.1851 102.739 63.8901 102.716 63.5442 102.746C63.1823 102.913 62.8445 103.077 62.7145 103.48C62.6456 103.693 62.6132 103.934 62.5905 104.156Z" fill="#F3F6F8"/>
<path d="M110.411 100.745C110.994 100.597 111.592 100.517 112.194 100.507C112.86 100.493 114.214 100.514 114.677 101.043C115.014 101.427 115.019 105.422 114.925 106.011C114.896 106.187 114.895 106.301 114.722 106.391C114.567 106.472 114.422 106.453 114.264 106.409C114.087 105.146 114.289 103.669 114.367 102.399C114.389 102.049 114.393 101.501 114.107 101.244C113.779 100.95 111.705 101.247 111.142 101.282C111.043 101.985 111.029 102.559 111.19 103.254C111.135 103.455 111.131 103.578 111.155 103.785C111.166 103.881 111.165 103.839 111.149 103.943C111.091 104.646 111.238 105.659 110.992 106.306C110.92 106.343 110.882 106.367 110.797 106.387C110.644 106.423 110.514 106.388 110.394 106.298C110.298 105.714 110.362 105.118 110.365 104.529C110.361 103.268 110.376 102.006 110.411 100.745Z" fill="#F3F6F8"/>
<path d="M128.464 102.032C128.928 102.065 129.319 102.213 129.661 102.532C130.251 103.08 130.418 103.936 130.422 104.704C130.424 105.191 130.518 105.932 130.149 106.302C129.979 106.372 129.901 106.387 129.719 106.357C129.275 105.472 130.021 104.21 129.406 103.336C129.155 102.979 128.765 102.85 128.348 102.795C128.32 102.791 128.291 102.788 128.263 102.785C125.89 103.321 127.574 105.452 126.793 106.339C126.629 106.402 126.559 106.418 126.387 106.378C125.964 105.787 126.232 103.284 126.315 102.495C127.018 102.289 127.733 102.105 128.464 102.032Z" fill="#F3F6F8"/>
<path d="M73.9286 102.098C74.4061 102.05 74.8947 102.025 75.3417 102.226C75.8045 102.435 76.1155 102.898 76.2669 103.363C76.5017 104.084 76.5883 105.597 76.2463 106.289C76.0878 106.394 76.0897 106.401 75.9006 106.383C75.489 105.915 75.7742 104.492 75.614 103.825C75.5131 103.405 75.3465 103.165 74.9773 102.936C74.9548 102.922 74.932 102.909 74.9093 102.895C74.5087 102.798 73.9521 102.748 73.5974 103.003C72.7873 103.586 73.301 105.187 73.1377 106.013C73.0961 106.224 73.0375 106.28 72.8594 106.392C72.6668 106.391 72.5624 106.419 72.3947 106.315C72.1976 105.834 72.391 103.241 72.418 102.578C72.9183 102.381 73.4063 102.227 73.9286 102.098Z" fill="#F3F6F8"/>
<path d="M117.555 102.089C117.749 102.071 117.947 102.048 118.142 102.046C118.608 102.041 119.012 102.191 119.342 102.522C120.05 103.232 120.091 104.595 120.057 105.536C120.046 105.83 120.04 106.159 119.816 106.367C119.61 106.398 119.566 106.423 119.382 106.335C119.177 105.481 119.477 104.527 119.227 103.674C119.108 103.269 118.875 103.115 118.508 102.926L118.422 102.883C118.02 102.839 117.507 102.831 117.18 103.101C116.353 103.784 116.928 105.185 116.768 106.072C116.732 106.271 116.676 106.323 116.512 106.432C116.305 106.43 116.276 106.453 116.122 106.323C115.769 105.449 115.974 103.4 116.114 102.433C116.587 102.3 117.076 102.202 117.555 102.089Z" fill="#F3F6F8"/>
<path d="M133.016 102.023C133.098 102.018 133.181 102.012 133.263 102.012C133.787 102.011 134.456 102.187 134.813 102.593C134.962 102.762 135.076 102.947 135.051 103.17C134.34 103.355 133.585 102.583 132.748 102.846C132.405 102.955 132.147 103.204 131.994 103.522C131.775 103.977 131.762 104.559 131.941 105.029C132.058 105.337 132.27 105.612 132.587 105.736C133.108 105.939 133.711 105.744 134.188 105.522C134.46 105.378 134.749 105.26 135.031 105.135C134.974 105.374 134.923 105.632 134.831 105.86C134.71 106.16 134.474 106.386 134.166 106.491C133.573 106.693 132.643 106.677 132.09 106.376C131.628 106.124 131.359 105.656 131.232 105.163C131.049 104.454 131.081 103.607 131.486 102.974C131.862 102.389 132.353 102.171 133.016 102.023Z" fill="#F3F6F8"/>
<path d="M94.1524 106.821C93.4581 106.69 92.7611 106.598 92.3247 105.983C91.8881 105.368 91.746 104.444 91.8758 103.715C91.9647 103.216 92.2022 102.751 92.6382 102.467C93.195 102.104 93.8612 101.957 94.5185 102.093C94.9433 102.181 95.4965 102.441 95.7239 102.826C95.8102 102.972 95.8019 102.997 95.7619 103.151C95.1124 103.451 94.2866 102.475 93.2023 102.979C92.8755 103.131 92.6804 103.373 92.5791 103.712C92.4318 104.206 92.472 104.803 92.7347 105.254C93.4323 106.451 94.558 105.352 95.4489 105.559L95.5088 105.682C95.4131 106.023 95.321 106.195 95.0393 106.419C94.9328 106.504 94.8282 106.578 94.7417 106.684C94.7219 106.708 94.7032 106.733 94.6839 106.757C94.6489 106.721 94.6113 106.686 94.5786 106.648C94.5162 106.575 94.4578 106.46 94.4091 106.38L94.4601 106.492L94.3041 106.364C94.231 106.52 94.1836 106.651 94.1524 106.821Z" fill="#F3F6F8"/>
<path d="M7.05262 100.491C7.53281 101.072 7.13318 104.185 7.23027 105.111C7.37621 106.503 8.95399 105.367 9.62167 105.9C9.6635 106 9.68971 106.071 9.6722 106.181C9.63401 106.421 9.60495 106.416 9.41388 106.549C8.8159 106.637 8.0528 106.652 7.44972 106.59C7.22048 106.566 6.96102 106.551 6.80314 106.367C6.5635 105.742 6.41515 101.508 6.62416 100.848C6.6892 100.642 6.87736 100.589 7.05262 100.491Z" fill="#F3F6F8"/>
<path d="M35.3979 100.706C35.4424 100.72 35.489 100.73 35.5314 100.75C35.7215 100.84 35.9308 101.43 35.9867 101.64C36.1933 102.414 36.0398 105.855 35.6643 106.53C35.5302 106.464 35.4199 106.388 35.3005 106.3C35.2136 106.01 34.8976 101.951 34.9399 101.602C34.9886 101.198 35.0747 100.963 35.3979 100.706Z" fill="#F3F6F8"/>
<path d="M142.481 102.539C143.236 102.342 144.205 101.976 144.987 102.067L145.051 102.153C145.018 102.344 144.995 102.547 144.948 102.734C144.434 102.9 143.952 103.056 143.48 103.32C143.389 103.608 143.298 103.896 143.261 104.196C143.185 104.815 143.357 105.796 142.975 106.312C142.773 106.397 142.742 106.393 142.524 106.358C142.399 106.247 142.372 106.188 142.335 106.027L142.357 105.919C142.389 104.8 142.368 103.651 142.481 102.539Z" fill="#F3F6F8"/>
<path d="M44.7543 101.939L44.9199 101.945C44.9556 102.099 44.9837 102.313 44.9321 102.468C44.8075 102.841 44.242 102.915 43.9227 103.077C42.61 103.743 43.6454 105.244 43.1308 106.183C43.0117 106.4 42.8548 106.414 42.637 106.495L42.4407 106.333C42.2841 105.636 42.4619 103.332 42.4534 102.41C43.2592 102.374 43.9838 102.151 44.7543 101.939Z" fill="#F3F6F8"/>
<path d="M70.8116 100.537C70.9013 100.561 70.9799 100.598 71.0647 100.635C71.3805 101.345 71.2921 105.454 71.1879 106.438L70.7423 106.354C70.666 106.284 70.6227 106.277 70.6098 106.171C70.5358 105.569 70.4975 101.002 70.6348 100.761C70.6818 100.678 70.7527 100.612 70.8116 100.537Z" fill="#F3F6F8"/>
<path d="M141.593 106.248C141.414 106.356 141.329 106.402 141.112 106.41C140.948 106.303 140.901 106.231 140.85 106.04C140.694 105.456 140.817 101.088 141.071 100.616L141.186 100.627C141.721 101.412 141.47 104.512 141.44 105.492L141.593 106.248Z" fill="#F3F6F8"/>
<path d="M84.0666 105.564C84.3899 104.738 85.0099 102.679 85.6479 102.184L85.7502 102.223C85.9661 103.13 85.117 105.259 84.626 106.028C84.4968 106.231 84.3572 106.365 84.1201 106.436C83.9086 106.425 83.7771 106.362 83.6336 106.21C83.4838 106.051 83.4085 105.849 83.3384 105.648C83.495 105.648 83.447 105.658 83.5743 105.626C83.7519 105.581 83.8796 105.533 84.0666 105.564Z" fill="#F3F6F8"/>
<path d="M46.2356 100.789L46.3746 100.865C46.4401 100.973 46.4776 101.066 46.4979 101.192C46.6267 101.992 46.7993 105.986 46.4102 106.521C46.3754 106.507 46.3394 106.496 46.3058 106.48C46.151 106.405 46.1081 106.365 46.0613 106.2C45.8698 105.527 45.9228 101.345 46.2356 100.789Z" fill="#F3F6F8"/>
<path d="M26.1843 102.564C26.5356 102.847 26.8989 103.073 27.2746 103.32C26.7396 103.957 27.2336 105.583 26.7733 106.314C26.6995 106.432 26.6782 106.41 26.5534 106.445L26.397 106.335C26.0299 105.606 26.1959 103.445 26.1843 102.564Z" fill="#F3F6F8"/>
<path d="M98.8316 101.979C98.7859 101.566 98.4135 101.323 98.0986 101.071C97.587 100.992 97.4478 101.417 97.0014 101.505L96.8795 101.416C96.8783 101.221 96.8891 101.022 97.021 100.863C97.5747 100.194 98.961 100.802 99.7238 100.666C99.8829 100.638 100 100.629 100.162 100.639C100.305 100.755 100.295 100.744 100.315 100.926C100.071 101.463 99.4617 101.39 99.0145 101.677C98.8722 101.769 98.9049 101.787 98.8722 101.941L98.8316 101.979Z" fill="#F3F6F8"/>
<path d="M83.3388 105.648C83.3257 105.625 83.3109 105.602 83.2993 105.578C82.9754 104.899 82.0431 102.905 82.3102 102.227L82.5199 102.214C83.0054 102.476 83.6614 104.854 84.067 105.565C83.88 105.534 83.7523 105.581 83.5747 105.626C83.4474 105.659 83.4954 105.648 83.3388 105.648Z" fill="#F3F6F8"/>
<path d="M94.1524 106.821C94.1836 106.651 94.2309 106.52 94.3041 106.364L94.4601 106.492L94.4091 106.38C94.4578 106.46 94.5162 106.575 94.5786 106.648C94.6113 106.686 94.6489 106.721 94.6839 106.757C94.8515 107.149 95.1016 107.779 94.9258 108.204C94.8355 108.423 94.6835 108.578 94.4572 108.66C94.1552 108.77 93.7633 108.755 93.4796 108.602C93.3479 108.531 93.3363 108.493 93.2549 108.377C93.2919 108.197 93.2996 108.135 93.47 108.028C93.6168 107.936 93.9397 107.907 94.1121 107.875C94.1246 107.525 94.1252 107.17 94.1524 106.821Z" fill="#F3F6F8"/>
<path d="M27.0209 102.42C27.5064 102.242 28.0096 101.961 28.5271 102.143C28.5872 102.244 28.6308 102.254 28.587 102.375C28.4047 102.886 27.7298 103.111 27.2743 103.321C26.8986 103.073 26.5354 102.847 26.1841 102.565L26.2511 102.373C26.52 102.264 26.7447 102.34 27.0209 102.42Z" fill="#F3F6F8"/>
<path d="M60.306 102.76C60.119 102.268 60.0331 101.334 60.2816 100.855C60.3542 100.715 60.311 100.762 60.4709 100.707C60.737 100.922 60.7833 101.321 60.8199 101.639C60.8753 102.124 60.868 102.631 60.8805 103.119L60.8195 103.152C60.5874 103.087 60.4718 102.925 60.306 102.76Z" fill="#F3F6F8"/>
<path d="M111.191 103.254C111.815 103.273 112.656 103.214 113.177 103.586L113.119 103.773C112.474 104.02 111.828 103.962 111.149 103.943C111.166 103.84 111.166 103.882 111.155 103.785C111.131 103.578 111.135 103.456 111.191 103.254Z" fill="#F3F6F8"/>
<path d="M39.5631 101.874C39.5128 101.463 39.4133 100.885 39.7258 100.55C39.8633 100.403 40.0571 100.337 40.2572 100.347C40.4242 100.356 40.5291 100.417 40.6705 100.494L40.7837 100.672C40.6327 101.125 39.9427 101.307 39.7222 101.872L39.5631 101.874Z" fill="#F3F6F8"/>
</svg>
