<svg width="201" height="92" viewBox="0 0 201 92" fill="none" xmlns="http://www.w3.org/2000/svg">
<g clip-path="url(#clip0_434_1733)">
<path d="M62.2967 41.5953C62.9503 41.1327 63.7397 40.9032 64.5402 40.9399C65.3112 40.9326 66.0621 41.1969 66.6607 41.6853C67.3124 42.2122 67.775 42.9355 67.9807 43.7489L72.2455 42.6142C71.9243 40.9491 70.9916 39.4656 69.6312 38.4559C68.1588 37.4039 66.3798 36.8678 64.5714 36.9302C62.9851 36.8916 61.4209 37.2956 60.0531 38.096C58.7882 38.8689 57.7637 39.9797 57.0936 41.3034C56.3757 42.7373 56.0159 44.3254 56.0435 45.9281C56.0177 47.518 56.3629 49.0932 57.0532 50.5271C57.6976 51.8527 58.7056 52.9707 59.9595 53.7473C61.3327 54.5661 62.9098 54.9755 64.509 54.9315C66.2862 54.9921 68.034 54.478 69.4953 53.4646C70.8759 52.4364 71.8509 50.9549 72.2455 49.2787L67.854 48.3828C67.6613 49.1079 67.2684 49.767 66.7194 50.2792C66.0878 50.7639 65.3021 50.999 64.509 50.9439C63.3596 51.0136 62.2544 50.4922 61.5788 49.5614C60.8811 48.4984 60.536 47.2426 60.5929 45.974C60.5782 45.1074 60.7159 44.2446 61.0005 43.4258C61.241 42.7134 61.6872 42.0892 62.2838 41.6321" fill="#F3F6F8"/>
<path d="M75.7178 54.4554H80.0102V32.6648H75.7178V54.4554Z" fill="#F3F6F8"/>
<path d="M85.0664 54.4553H89.3588V37.4014H85.0664V54.4553Z" fill="#F3F6F8"/>
<path d="M113.017 36.9929C111.935 36.98 110.869 37.2371 109.912 37.7419C109.05 38.2064 108.32 38.8838 107.792 39.7063C107.401 38.9609 106.835 38.322 106.139 37.8447C105.151 37.2407 104.005 36.9433 102.847 36.9929C101.742 36.9745 100.651 37.2425 99.6801 37.7695C98.9736 38.1679 98.3505 38.7058 97.8556 39.3484V37.4004H94.064V54.447H98.3936V44.1291C98.355 43.2589 98.6446 42.4052 99.205 41.7387C100.358 40.5344 102.269 40.494 103.474 41.647C103.504 41.6763 103.535 41.7075 103.565 41.7387C104.138 42.4896 104.422 43.4241 104.364 44.3678V54.4562H108.656V44.1383C108.645 43.5416 108.771 42.9504 109.029 42.4107C109.257 41.9333 109.614 41.5276 110.061 41.2412C110.534 40.9512 111.083 40.8042 111.64 40.8189C112.479 40.7785 113.29 41.1237 113.843 41.7571C114.414 42.5098 114.696 43.4425 114.64 44.3862V54.4562H118.933V43.2424C119.009 41.6029 118.478 39.9928 117.445 38.7204C116.448 37.5693 114.977 36.991 113.029 36.9892" fill="#F3F6F8"/>
<path d="M136.643 40.0074C136.085 38.9077 135.141 38.0522 133.991 37.6023C132.708 37.1213 131.346 36.8881 129.977 36.9121C127.926 36.9121 126.304 37.36 125.115 38.2577C123.945 39.1133 123.09 40.3287 122.678 41.7167L126.563 42.9504C126.787 42.227 127.309 41.634 127.999 41.3219C128.618 41.0356 129.29 40.8832 129.973 40.8739C131.111 40.8739 131.919 41.1108 132.404 41.5827C132.793 42.0343 133.02 42.6053 133.05 43.2019L131.03 43.5012C129.927 43.6628 128.936 43.839 128.065 44.0171C127.303 44.1658 126.554 44.3696 125.824 44.6321C125.018 44.9038 124.274 45.3297 123.633 45.8879C123.108 46.3616 122.706 46.9528 122.458 47.6155C122.209 48.3077 122.086 49.0402 122.095 49.7764C122.086 50.687 122.312 51.5829 122.75 52.3798C123.202 53.1747 123.87 53.8265 124.68 54.2543C125.636 54.7518 126.705 54.9941 127.784 54.9574C129.046 55.0051 130.298 54.7408 131.434 54.1918C132.266 53.709 132.996 53.0737 133.593 52.321V54.4819H137.351V44.0354C137.351 43.2552 137.32 42.5502 137.258 41.9222C137.184 41.2577 136.981 40.6115 136.655 40.0258M132.624 49.2789C132.449 49.6075 132.229 49.9104 131.969 50.1767C131.599 50.5732 131.163 50.8981 130.676 51.1369C130.052 51.4305 129.367 51.5738 128.676 51.5536C128.242 51.5628 127.809 51.4875 127.402 51.3296C127.068 51.2029 126.78 50.9808 126.572 50.6925C126.37 50.3969 126.27 50.0444 126.281 49.6883C126.267 49.4129 126.325 49.1412 126.442 48.8933C126.582 48.6418 126.777 48.4233 127.012 48.2562C127.325 48.0304 127.669 47.8487 128.03 47.7147C128.447 47.5605 128.875 47.4337 129.308 47.3328C129.793 47.2152 130.43 47.0905 131.219 46.9472L133.04 46.6333C133.04 46.9325 133.019 47.2611 132.996 47.6412C132.975 48.203 132.84 48.7519 132.605 49.2605" fill="#F3F6F8"/>
<path d="M146.745 32.6643H142.446V37.401H139.546V40.7203H142.446V47.2251C142.446 48.244 142.446 49.162 142.478 49.9662C142.511 50.7996 142.739 51.6129 143.143 52.3436C143.596 53.1551 144.312 53.7885 145.175 54.1373C146.138 54.5229 147.167 54.7285 148.208 54.7377C149.368 54.7597 150.528 54.6606 151.67 54.4421V50.8547C150.754 50.9851 149.829 51.0273 148.907 50.9795C148.175 50.9795 147.494 50.6123 147.09 50.001C146.873 49.6118 146.763 49.173 146.772 48.7269C146.753 48.1981 146.745 47.5996 146.745 46.9332V40.7203H151.679V37.401H146.745V32.6643Z" fill="#F3F6F8"/>
<path d="M168.092 47.117H170.165C170.369 45.2976 170.152 43.4562 169.531 41.734C168.995 40.291 168.024 39.0517 166.75 38.1852C165.393 37.3131 163.803 36.8725 162.189 36.9203C160.618 36.8872 159.066 37.2838 157.703 38.064C156.415 38.8296 155.365 39.9385 154.671 41.2677C153.904 42.7713 153.524 44.442 153.562 46.1292C153.534 47.7228 153.926 49.2962 154.703 50.6879C155.441 51.9951 156.527 53.0709 157.843 53.7961C159.257 54.5708 160.85 54.9601 162.463 54.9271C164.067 54.9362 165.643 54.4883 167.002 53.6346C168.376 52.779 169.442 51.503 170.038 49.9976L165.746 48.7675C165.461 49.4266 164.982 49.9847 164.374 50.3648C163.719 50.7485 162.97 50.9394 162.212 50.9156C161.048 50.9926 159.916 50.5079 159.169 49.6102C158.659 48.8758 158.349 48.0184 158.274 47.1262H168.105L168.092 47.117ZM162.377 40.6582C163.627 40.6582 164.525 41.0382 165.068 41.802C165.476 42.4464 165.722 43.1808 165.786 43.9408H158.318C158.446 43.2376 158.729 42.5694 159.147 41.9892C159.834 41.0933 160.915 40.6435 162.377 40.6435V40.6582Z" fill="#F3F6F8"/>
<path d="M196.227 49.4991C196.317 49.0823 196.368 48.6601 196.378 48.2342C196.378 47.722 196.406 47.2391 196.406 46.7709V42.6143H192.817V46.3413L187.865 41.7166L187.052 40.9583C186.795 40.716 186.581 40.5049 186.408 40.325C186.176 40.0734 185.966 39.8036 185.775 39.519C185.576 39.1867 185.48 38.8011 185.501 38.4156C185.484 37.964 185.596 37.5178 185.824 37.1268C186.072 36.7577 186.423 36.4676 186.833 36.2933C187.311 36.0822 187.827 35.9775 188.35 35.9885C188.727 35.9904 189.103 36.0344 189.47 36.1188C189.854 36.2052 190.201 36.4035 190.471 36.688C190.774 36.9909 190.994 37.3654 191.108 37.7785L195.198 36.9615C195.069 36.4328 194.877 35.9205 194.626 35.4359C194.366 34.9421 194.038 34.4885 193.647 34.0902C193.017 33.3961 192.218 32.8766 191.328 32.5829C190.404 32.2781 189.439 32.1257 188.466 32.1349C187.956 32.1349 187.443 32.1642 186.937 32.2248C186.404 32.2854 185.879 32.4066 185.376 32.5883C184.179 32.9867 183.146 33.7633 182.428 34.7988C181.706 35.8398 181.329 37.0772 181.348 38.344C181.334 39.0692 181.471 39.7907 181.756 40.4608C182.068 41.1364 182.481 41.7606 182.98 42.3133L182.405 42.7888C182.211 42.9596 182.028 43.1468 181.858 43.345C181.331 43.9638 180.935 44.6816 180.693 45.4582C180.169 47.0647 180.193 48.7997 180.761 50.3914C181.418 52.231 182.901 53.6556 184.765 54.2358C185.881 54.6067 187.049 54.7903 188.224 54.7831C188.587 54.7831 188.947 54.7831 189.302 54.7517C189.656 54.7205 190.041 54.6929 190.467 54.636C191.149 54.5186 191.811 54.3129 192.441 54.0247C193.109 53.7217 193.73 53.3252 194.284 52.846L196.285 54.7517L198.917 51.9354L196.227 49.4991ZM190.588 50.4905C190.3 50.6153 189.999 50.7053 189.691 50.7604C189.261 50.8411 188.824 50.8816 188.385 50.8816C187.777 50.8723 187.173 50.7806 186.591 50.6062C186.022 50.4722 185.51 50.1564 185.133 49.7103C184.935 49.4404 184.772 49.1485 184.644 48.84C184.499 48.482 184.429 48.1002 184.438 47.7146C184.432 47.3805 184.48 47.0463 184.578 46.7269C184.702 46.2476 184.986 45.8254 185.385 45.5299C185.559 45.394 185.75 45.282 185.955 45.1975L191.288 50.105C191.063 50.2647 190.821 50.3988 190.566 50.5034L190.588 50.4905Z" fill="#F3F6F8"/>
<path d="M62.2967 70.4248C62.9503 69.9622 63.7397 69.7327 64.5402 69.7694C65.3131 69.764 66.064 70.0264 66.6661 70.5148C67.3143 71.0454 67.775 71.7706 67.9807 72.582L72.2768 71.4438C71.961 69.7768 71.0265 68.2915 69.6624 67.2855C68.19 66.2335 66.411 65.6973 64.6026 65.7598C63.0072 65.7102 61.4301 66.1104 60.0531 66.9164C58.7882 67.6875 57.7619 68.7964 57.0936 70.1201C56.3757 71.5558 56.0159 73.1439 56.0435 74.7485C56.0177 76.3384 56.3629 77.9099 57.0532 79.342C57.6994 80.6694 58.7056 81.7856 59.9595 82.564C61.3327 83.381 62.9098 83.7922 64.509 83.7482C66.2862 83.8069 68.0376 83.2929 69.5008 82.2813C70.8796 81.2513 71.8509 79.7698 72.2455 78.0954L67.854 77.1976C67.6612 77.9228 67.2684 78.5782 66.7194 79.0905C66.0878 79.5752 65.3021 79.812 64.509 79.7551C63.3596 79.8266 62.2544 79.3052 61.5788 78.3726C60.8811 77.3114 60.536 76.0557 60.5929 74.7852C60.5801 73.9168 60.7196 73.0539 61.0005 72.2332C61.2428 71.5227 61.689 70.8985 62.2838 70.4377" fill="#F3F6F8"/>
<path d="M87.1568 66.8855C84.3533 65.3562 80.966 65.3562 78.1626 66.8855C76.8756 67.629 75.8217 68.716 75.1168 70.025C74.3548 71.4717 73.9748 73.0873 74.0097 74.7213C73.9674 76.3443 74.3292 77.9507 75.0635 79.3956C75.7557 80.7156 76.804 81.8172 78.0873 82.5773C80.9 84.1121 84.3001 84.1121 87.1127 82.5773C88.4052 81.8245 89.4609 80.723 90.1589 79.4011C91.6159 76.4562 91.6159 73.001 90.1589 70.0562C89.4609 68.7343 88.4089 67.6309 87.1201 66.8727M85.6936 78.338C85.0125 79.2707 83.9862 79.737 82.6037 79.737C81.4324 79.8123 80.2977 79.3093 79.5671 78.3913C78.8254 77.3265 78.4618 76.045 78.5316 74.7488C78.5169 73.8603 78.6693 72.9753 78.9796 72.1437C79.2403 71.4368 79.7103 70.8273 80.3254 70.394C81.0083 69.9479 81.8142 69.7258 82.6313 69.7606C83.8136 69.6799 84.961 70.1811 85.7028 71.1064C86.4408 72.1693 86.8025 73.4453 86.7345 74.736C86.7915 76.0101 86.4353 77.2677 85.7211 78.3233" fill="#F3F6F8"/>
<path d="M113.649 65.809C112.568 65.7943 111.499 66.055 110.544 66.5617C109.682 67.0262 108.953 67.7018 108.424 68.528C108.037 67.7771 107.469 67.1364 106.771 66.6608C105.784 66.0568 104.639 65.7595 103.48 65.809C102.375 65.7943 101.286 66.0605 100.313 66.5856C99.6042 66.9858 98.9838 67.5238 98.488 68.1681V66.2166H94.7026V83.2632H99.0259V72.9452C98.9874 72.0751 99.2779 71.2232 99.8373 70.5548C100.99 69.3506 102.902 69.3101 104.106 70.4631C104.137 70.4925 104.169 70.5237 104.197 70.5548C104.77 71.3076 105.055 72.2421 104.996 73.1876V83.2632H109.294V72.9452C109.281 72.3486 109.407 71.7574 109.661 71.2195C110.127 70.2134 111.152 69.5873 112.259 69.6314C113.099 69.5892 113.91 69.9343 114.461 70.5678C115.035 71.3223 115.318 72.2568 115.259 73.2023V83.276H119.551V72.0621C119.551 70.2024 119.056 68.6951 118.063 67.5403C117.07 66.3855 115.599 65.809 113.649 65.809Z" fill="#F3F6F8"/>
<path d="M136.056 66.917C134.777 66.1183 133.296 65.7108 131.789 65.7457C130.335 65.6961 128.903 66.111 127.698 66.9299C127.587 67.0107 127.511 67.1318 127.403 67.2181V66.2175H123.611V90.8518H127.941V82.6436C130.473 84.1435 133.631 84.1123 136.133 82.5628C137.326 81.7587 138.277 80.6461 138.886 79.3426C140.212 76.4088 140.212 73.0453 138.886 70.1115C138.261 68.8062 137.286 67.7009 136.068 66.917M134.921 77.3598C134.67 78.096 134.214 78.744 133.606 79.2306C132.949 79.7135 132.147 79.9594 131.332 79.9264C130.517 79.9687 129.709 79.7429 129.035 79.2802C128.442 78.8193 128.009 78.1841 127.797 77.4626C127.294 75.6872 127.294 73.8073 127.797 72.0301C128.006 71.3177 128.427 70.6825 129.003 70.2143C129.634 69.759 130.399 69.5314 131.176 69.5681C132.019 69.5332 132.848 69.7793 133.535 70.2676C134.162 70.7504 134.638 71.4059 134.903 72.1513C135.208 72.9811 135.36 73.8605 135.35 74.7454C135.354 75.6359 135.203 76.5207 134.903 77.3598" fill="#F3F6F8"/>
<path d="M156.99 68.8324C156.43 67.7327 155.485 66.8789 154.335 66.4328C153.054 65.9481 151.694 65.7113 150.324 65.737C148.27 65.737 146.648 66.185 145.463 67.0828C144.302 67.9328 143.452 69.1371 143.039 70.5141L146.924 71.7478C147.145 71.0244 147.669 70.4314 148.359 70.1193C148.978 69.833 149.651 69.6806 150.333 69.6713C151.468 69.6713 152.277 69.9082 152.763 70.3801C153.151 70.8354 153.378 71.4027 153.41 71.9993L151.393 72.3005C150.283 72.462 149.297 72.6364 148.422 72.8164C147.66 72.9632 146.911 73.1688 146.18 73.4295C145.374 73.6995 144.631 74.1272 143.99 74.6853C143.467 75.159 143.062 75.752 142.815 76.4129C142.567 77.1069 142.444 77.8394 142.451 78.5756C142.442 79.4844 142.668 80.3803 143.106 81.1772C143.558 81.9721 144.224 82.6239 145.03 83.0571C145.989 83.5492 147.058 83.7897 148.135 83.7566C149.399 83.8025 150.653 83.54 151.791 82.9892C152.623 82.5064 153.355 81.8693 153.948 81.1147V83.2848H157.708V72.8512C157.712 72.1462 157.678 71.4412 157.609 70.738C157.537 70.0735 157.333 69.429 157.012 68.8415M152.971 78.0947C152.791 78.4233 152.571 78.7243 152.312 78.9924C151.941 79.3853 151.505 79.7085 151.02 79.9471C150.396 80.2445 149.709 80.3859 149.018 80.3656C148.582 80.3749 148.148 80.2978 147.741 80.1417C147.408 80.015 147.122 79.7929 146.914 79.5046C146.716 79.2072 146.616 78.8566 146.628 78.4985C146.625 78.2287 146.689 77.9624 146.812 77.7238C146.951 77.4704 147.145 77.2519 147.38 77.0867C147.693 76.8591 148.034 76.6736 148.396 76.5396C148.815 76.3854 149.243 76.2587 149.677 76.1577C150.162 76.0457 150.799 75.9154 151.585 75.7721L153.41 75.4582C153.41 75.7575 153.388 76.0861 153.361 76.4662C153.34 77.0261 153.21 77.5769 152.98 78.0854" fill="#F3F6F8"/>
<path d="M177.333 70.2859C177.122 69.5129 176.784 68.7786 176.332 68.1139C175.827 67.3888 175.15 66.7976 174.364 66.3919C173.347 65.9017 172.226 65.6685 171.098 65.7144C169.633 65.6575 168.185 66.0375 166.934 66.8049C166.436 67.1427 165.983 67.543 165.588 67.9983V66.2046H161.771V83.2493H166.128V74.5929C166.097 73.7246 166.219 72.8598 166.487 72.0355C166.661 71.4811 166.969 70.9798 167.384 70.5723C167.718 70.2583 168.126 70.0289 168.568 69.904C168.952 69.7938 169.348 69.7351 169.747 69.7296C170.507 69.6818 171.258 69.8985 171.875 70.3446C172.366 70.7485 172.741 71.2791 172.955 71.8776C173.174 72.4651 173.307 73.0802 173.349 73.7044C173.395 74.3102 173.417 74.8023 173.417 75.1933V83.2677H177.772V73.7044C177.772 73.4216 177.772 72.9681 177.709 72.3586C177.656 71.661 177.535 70.9725 177.346 70.2987" fill="#F3F6F8"/>
<path d="M192.727 66.2173L188.273 77.8259L183.792 66.2173H179.338L186.219 83.1373L183.41 90.8535H187.394L197.026 66.2173H192.727Z" fill="#F3F6F8"/>
<path d="M19.9837 54.4647C16.0989 54.4684 12.2563 53.6661 8.69824 52.1092L10.4919 47.9968C22.5045 53.5009 36.7054 48.2244 42.2114 36.2119C47.7155 24.1975 42.439 9.99668 30.4265 4.49253C30.1364 4.36034 29.8464 4.23366 29.5526 4.11248L31.3463 0C45.7345 6.26052 52.3236 23.0005 46.0632 37.3887C41.5467 47.7673 31.3022 54.4758 19.9837 54.4647Z" fill="#F3F6F8"/>
<path d="M20.0237 6.43188C30.863 6.43188 39.648 15.2187 39.648 26.0561C39.648 36.8955 30.863 45.6822 20.0237 45.6822C9.18434 45.6822 0.399414 36.8955 0.399414 26.0561C0.399414 15.2187 9.18434 6.43188 20.0237 6.43188Z" fill="#F3F6F8"/>
</g>
<defs>
<clipPath id="clip0_434_1733">
<rect width="200.057" height="91.8316" fill="white" transform="translate(0.399414)"/>
</clipPath>
</defs>
</svg>
