<svg width="119" height="135" viewBox="0 0 119 135" fill="none" xmlns="http://www.w3.org/2000/svg">
<path d="M56.5914 19.6594C56.6763 19.6396 56.6282 19.6478 56.7545 19.6412C63.6137 19.2763 71.0088 21.3094 76.1781 25.8814C82.5075 31.4793 85.4881 38.9815 85.9288 47.2487C85.9562 47.7604 85.9384 48.2736 85.9652 48.7856C86.0076 49.5949 86.0937 50.4005 86.0769 51.212C86.0487 52.5773 85.9063 53.7928 85.9863 55.1702C86.2107 55.0274 86.4404 54.8755 86.6894 54.778C87.1155 54.6112 87.6557 54.5357 88.0815 54.7313C88.4742 54.9118 88.5592 55.1994 88.7008 55.5726C88.6653 55.6416 88.628 55.7091 88.5915 55.7776C87.9815 56.9196 86.2693 57.5398 85.9811 58.8518C85.9973 58.9266 85.9861 58.9523 86.0494 59.0022C86.2431 59.1546 86.3866 59.2927 86.5352 59.4904L86.5801 59.5511C86.1656 60.7798 85.6401 61.9695 85.2312 63.2022C84.7419 64.6772 84.3653 66.2163 83.8254 67.6689C84.0768 67.5457 84.3455 67.4407 84.6232 67.3904C85.1665 67.2923 85.781 67.4108 86.2361 67.7226C86.5771 67.9563 86.8132 68.2904 86.8724 68.6995C87.0514 69.9369 86.4571 69.7134 85.9048 70.1368C85.6567 70.3269 85.5701 70.7445 85.2886 70.9476C84.5368 71.4899 83.3323 71.3985 82.7439 72.2141L82.7941 72.2607C83.0046 72.1849 83.2114 72.1385 83.4373 72.1432C84.2492 72.1602 85.1885 72.5453 85.7449 73.1327C86.0195 73.4223 86.2349 73.788 86.2131 74.1968C86.1929 74.575 85.9944 74.75 85.7286 74.9898L84.8015 75.0029L84.7542 75.1008C84.6851 75.2467 84.6256 75.4069 84.4922 75.5083C83.9427 75.9262 82.9811 75.5093 82.3597 75.4416C81.1672 75.3115 80.1277 75.9951 79.2464 76.7002C79.4877 76.7814 79.72 76.9028 79.9509 77.0092C80.1159 77.2964 80.277 77.5863 80.3408 77.9145C80.5883 79.1878 79.2304 79.751 78.6093 80.6284C77.4193 82.3094 75.4136 81.2272 73.7744 81.3772C72.5369 81.4904 70.9934 82.076 69.8868 82.6287C70.288 82.7286 70.7671 82.8369 71.1145 83.0626C71.3775 83.2335 71.5471 83.4661 71.6102 83.7714C71.6804 84.1116 71.6502 84.6507 71.4429 84.9454C71.0737 85.4711 69.6965 85.7485 69.0913 85.8773C67.0173 86.3189 66.7482 85.4529 65.1949 84.4696C65.1747 84.9306 65.1717 85.3933 65.1611 85.8545C64.8305 85.8518 64.0525 85.7658 63.7927 85.9384L63.8162 86.2104C63.7324 86.3752 63.6873 86.4371 63.5311 86.5382C63.4103 86.5494 63.2568 86.5491 63.1419 86.5841C62.828 86.68 62.4848 87.9071 62.334 88.2373C61.7915 88.2909 61.2236 88.2613 60.6776 88.2645C59.0731 88.2618 57.4267 88.3572 55.8289 88.2464C55.6523 87.6854 55.4337 87.1377 55.2593 86.5758L54.8502 86.5834C54.5252 86.5923 54.375 86.4433 54.0818 86.3829C53.5841 86.2805 52.9955 86.4021 52.5391 86.1448C52.2484 85.8112 52.4112 84.6378 52.4039 84.1561C50.4936 84.3606 50.1824 85.3652 48.6652 86.0537C48.104 85.9233 47.6926 85.6129 47.3036 85.5184C47.1096 85.4712 46.8959 85.5315 46.6991 85.5256C46.5333 85.5207 46.374 85.5094 46.263 85.3719C46.2228 85.3224 46.1307 85.1299 46.1232 85.0667C46.0992 84.8632 46.2743 84.8254 46.3557 84.6779C46.472 84.4675 46.3919 83.9157 46.3902 83.6711C46.3845 82.8767 46.545 82.6509 47.0979 82.0986C46.317 81.7734 43.4084 80.9276 42.6234 81.1173C42.0296 81.2608 41.5842 81.7315 40.9268 81.8434C40.4921 81.9172 39.9623 81.9082 39.5922 81.6404C39.2013 81.3574 39.0106 80.9625 38.9527 80.502C38.359 80.4767 37.7652 80.5107 37.1713 80.4813C37.0114 80.4734 37.0233 80.4723 36.9173 80.3566C36.839 79.8911 37.2526 79.8108 37.2982 79.4245C36.9034 78.9809 36.958 78.7332 36.9569 78.1646C37.5902 77.3661 38.2951 76.8374 39.3109 76.6371C38.4305 76.1285 37.6208 75.7886 36.6369 75.5393C36.2256 75.6951 35.6857 75.8674 35.2445 75.8503C34.8429 75.8348 34.68 75.6782 34.4171 75.4022C33.8181 75.5286 33.2367 75.6453 32.6385 75.4313C32.2915 75.3073 32.0298 75.038 31.8774 74.7095C31.7387 74.4108 31.6783 74.0381 31.8099 73.7269C32.0031 73.2706 32.8462 73.0666 33.2907 72.8947C33.3115 72.6697 33.1527 72.4524 33.0597 72.2449C33.0567 72.0051 33.234 71.7536 33.345 71.5443C33.3006 71.3392 33.0255 71.1758 32.8996 70.9798C32.8994 70.8325 32.9082 70.7586 33.0096 70.6434C33.2067 70.4189 33.498 70.3072 33.7939 70.2998C34.7791 70.2748 35.6597 71.0488 36.306 71.6855C35.2091 69.7361 34.3364 67.6192 33.3802 65.5964C32.6826 64.1206 31.1817 61.385 30.8526 59.9079C30.7886 59.6209 30.7378 59.2767 30.9239 59.0212C31.0255 58.882 31.2087 58.7739 31.3818 58.7576C31.4977 58.7465 31.6066 58.733 31.7216 58.7152C31.6862 58.1309 30.4941 56.8233 30.2151 56.1944C30.1106 55.9587 29.9983 55.6236 30.1302 55.376C30.1942 55.2558 30.3266 55.1622 30.4562 55.1225C30.9815 54.9622 31.7422 55.4445 32.1942 55.6696C32.0729 54.6189 32.1243 53.5776 32.0918 52.5247C32.0733 51.927 31.9877 51.3247 32.002 50.7276C32.0146 50.1991 32.0899 49.6744 32.1087 49.1465C32.1338 48.4428 32.0978 47.7375 32.1395 47.034C32.2377 45.522 32.4131 44.016 32.665 42.5215C33.4954 37.3263 35.0909 33.4863 38.3519 29.3029C41.846 24.7859 46.8122 21.5942 52.4138 20.2657C53.8113 19.9465 55.1762 19.8399 56.5914 19.6594ZM58.8118 54.7872L59.7897 54.7847C60.0423 54.5163 60.4013 53.9609 60.7726 53.9448C60.9012 54.0753 60.953 54.1288 60.9885 54.3151C60.9388 54.6364 60.7389 54.8126 60.4794 54.9975C60.218 55.1838 59.9115 55.3312 59.6203 55.4661C59.5872 56.8497 61.5162 57.9423 61.066 58.4566C60.8396 58.4882 60.6376 58.432 60.4537 58.2936C59.7577 57.7697 59.0927 56.4852 58.9883 55.6164C58.9821 55.5648 58.9828 55.5299 58.9815 55.4761C58.1464 55.114 57.6196 54.6924 57.0261 54.0095C56.9131 53.8794 56.8479 53.7 56.6703 53.7439C56.2591 54.2508 56.4962 55.2622 56.4387 55.8651C56.3923 56.3513 56.1706 56.8155 56.0791 57.2964C55.9764 57.8352 55.9363 58.3839 55.8177 58.9203C55.5135 60.2961 54.5937 61.4159 53.5795 62.364C53.8867 63.474 53.7197 64.1025 53.3789 65.1688C53.2702 65.5087 53.1778 65.9064 53.0026 66.2173C52.9208 66.3626 52.8196 66.4866 52.7067 66.6092C54.7299 67.7561 56.952 68.7358 59.0961 69.6436C60.4662 70.2236 62.5859 71.0751 63.8275 71.8307C64.1194 72.0082 64.3489 72.1989 64.4858 72.5128L64.4584 72.64C64.2458 72.7133 64.0505 72.632 63.8552 72.5437C63.4248 72.3494 63.0295 72.0828 62.6023 71.8785C61.5849 71.3922 60.5355 70.9487 59.5024 70.4947C58.0322 69.8485 56.5711 69.1999 55.115 68.5234C54.2674 68.1298 53.4071 67.7639 52.5983 67.2938C52.4883 67.5308 52.3792 67.7667 52.2554 67.997C53.2882 68.2737 54.3554 68.9048 55.3426 69.3484C57.5139 70.324 59.719 71.2639 61.8611 72.2983C62.7574 72.7311 63.8467 73.4631 64.8125 73.6552C65.0103 73.5219 65.2462 73.3945 65.4075 73.2206C65.3055 73.0154 65.0292 72.9913 64.8798 72.8102C64.8214 72.7393 64.8476 72.684 64.8526 72.5991C65.0841 72.4185 65.4075 72.4721 65.686 72.5014C66.3973 72.5761 67.0306 72.6443 67.508 73.2218L67.4752 73.1144C67.2854 72.4839 67.4576 71.9973 67.4408 71.366C67.4135 70.3296 66.9501 68.1219 66.3499 67.2643C66.0322 66.8106 65.5613 66.44 65.0745 66.1764C64.8621 66.0616 64.5696 65.8865 64.322 65.9325C64.2173 65.952 64.2158 66.001 64.1627 66.0817C64.2754 66.665 65.1972 66.9877 65.5832 67.4369C65.8916 67.7958 66.1665 68.3687 66.3201 68.8108C66.5121 69.3637 66.8408 71.4304 66.5242 71.9109C66.5089 71.9342 66.4915 71.9562 66.4753 71.9788C66.3052 71.9936 66.2813 71.975 66.1276 71.8962C65.9862 71.7102 66.0349 71.4529 66.0356 71.231C66.0417 69.3723 65.7483 68.2357 64.1996 67.1126C64.1829 67.5701 64.3623 69.1 64.0931 69.4083C63.8283 69.2376 63.6895 68.729 63.6244 68.4297C63.4357 67.5592 63.6853 64.4074 63.881 63.477C63.9679 63.0636 64.1106 62.6471 64.3558 62.2973C64.792 61.6749 65.4665 61.3483 66.2046 61.2189C67.6263 60.9699 69.1682 61.2413 70.6125 60.8302C71.1644 59.858 70.7301 59.0705 70.7325 58.0542C71.0273 58.06 71.3039 58.09 71.5754 57.9588L71.6591 57.8288C71.6062 57.619 71.4435 57.4802 71.2646 57.3643C71.2503 57.355 71.2348 57.3473 71.2199 57.3388C70.6001 57.3159 69.5966 57.3937 69.0961 57.0106C69.032 56.865 69.0197 56.8489 69.0491 56.6948C69.6827 56.3861 70.967 57.0709 71.6631 56.7468C71.7913 56.6872 71.9527 56.5057 72.0578 56.407C71.8985 56.0375 71.7927 55.6752 71.6975 55.2853C71.7999 55.0839 71.8965 54.8022 72.1218 54.7153C72.7903 54.458 73.4021 55.1918 73.8632 54.372C73.9266 53.8372 73.5727 53.1331 73.398 52.6274C72.8854 51.1431 72.3295 49.5078 72.2038 47.9348C72.1359 47.0861 72.1817 46.2053 72.1869 45.3531C70.9713 45.6459 67.7446 46.2946 66.888 46.925C66.4576 47.2419 66.224 47.7564 65.8251 48.1033C65.3381 48.5265 64.7102 48.8011 64.2552 49.2625C63.7034 49.822 63.4534 50.6756 62.796 51.1209C61.9855 51.6699 60.8887 51.289 59.8867 51.9399C59.5587 52.153 59.2721 52.4616 58.9888 52.7296C59.2233 52.9206 59.6259 53.1831 59.6684 53.4996C59.5869 53.6341 59.5099 53.7034 59.3392 53.7212C59.152 53.7407 59.0042 53.6585 58.8793 53.5306C58.7133 53.3607 58.5877 53.0723 58.3442 53.0152C57.987 53.0841 57.6508 53.193 57.3062 53.3063C57.4611 53.8335 58.2912 54.435 58.7396 54.7373C58.7638 54.7537 58.7877 54.7705 58.8118 54.7872ZM32.8327 56.1567C33.1499 56.4548 33.4595 56.7501 33.743 57.0803C33.574 56.2109 33.6507 55.2501 33.6484 54.3663C33.6455 53.2811 33.6143 52.2386 33.6578 51.1513C33.688 50.4018 33.6448 49.65 33.6847 48.9008C33.9968 43.0433 35.0753 37.0636 38.4673 32.1285C41.9938 26.9975 47.1704 23.0074 53.4427 21.8291C55.6852 21.4078 57.9618 21.3777 60.2376 21.4735C60.7842 21.4965 61.327 21.5845 61.8722 21.599C63.0633 21.7835 64.2549 21.9634 65.4238 22.2601C70.7853 23.6213 75.2903 26.6317 78.5472 31.0417C82.7282 36.703 83.9715 42.5096 84.2358 49.393C84.2693 50.2646 84.3517 51.128 84.3547 52.0015C84.3607 53.7975 84.2011 55.5765 84.2248 57.3755C84.5533 56.848 85.0526 56.2212 85.2141 55.6272C85.4237 54.857 85.338 54.0282 85.3796 53.2383C85.4205 52.4583 85.5133 51.6843 85.5181 50.9021C85.5228 50.1144 85.4268 49.3469 85.3819 48.5637C85.2227 45.788 84.9831 43.1099 84.3237 40.3986C82.76 33.9695 78.248 27.4729 72.509 24.0019C68.7205 21.7105 64.5156 20.616 60.1163 20.263C58.9454 20.169 57.565 20.0776 56.4018 20.2483C49.0738 20.9541 43.7102 23.8613 39.0402 29.4627C34.2231 35.2407 32.8002 41.9114 32.6348 49.2207C32.6224 49.7644 32.5282 50.3039 32.5213 50.8481C32.5146 51.385 32.6108 51.917 32.6365 52.4523C32.6717 53.1875 32.6332 53.9239 32.7064 54.658C32.7564 55.1593 32.82 55.6524 32.8327 56.1567ZM34.2469 56.5221C34.6575 56.4026 34.9076 56.2961 35.3297 56.4329C35.4408 56.3314 35.4244 56.1993 35.4284 56.0525C35.44 55.623 35.385 55.1852 35.3808 54.7543C35.3649 53.142 35.3483 51.5046 35.4003 49.8934C35.4488 48.3898 35.6226 46.8434 35.8069 45.3503C36.4102 40.4663 37.5027 36.4611 40.4547 32.4138C41.2582 31.312 42.1707 30.1925 43.1548 29.2416C47.5079 25.035 52.834 23.0609 58.9156 23.1623C60.0812 23.1818 61.2277 23.423 62.3827 23.4561L62.4423 23.4723C63.772 23.8228 65.133 23.9764 66.4536 24.402C71.6794 26.0869 75.7844 29.6491 78.5452 34.2915C81.6265 39.4729 82.3031 44.2268 82.5158 50.1617C82.5485 51.0691 82.6342 51.9598 82.6337 52.8707C82.6334 53.4193 82.6483 53.9696 82.6272 54.5177C82.601 55.1992 82.3177 56.3523 82.5358 56.9794C82.5533 56.9678 82.5702 56.9555 82.5881 56.9446C82.9047 56.7535 83.272 56.7753 83.6317 56.7647C83.6206 55.8176 83.7315 54.9324 83.7862 53.9928C83.8403 53.0614 83.8153 52.1111 83.8007 51.178C83.7896 50.4738 83.6818 49.7822 83.6438 49.081C83.3073 42.8551 82.4767 38.0614 78.9567 32.7465C77.9564 31.2361 76.8349 29.7639 75.5246 28.4993C71.5468 24.6602 66.1504 22.4769 60.6288 22.0681C59.332 21.972 57.9792 22.0185 56.6782 22.0369C56.3989 22.0408 56.1052 22.0346 55.8296 22.0789C50.4535 22.8088 46.4223 24.555 42.5399 28.3502C41.6316 29.2382 40.7755 30.1115 39.9998 31.1188C36.9077 35.1343 35.5663 38.9596 34.7849 43.9208C34.5152 45.6328 34.2956 47.3988 34.2349 49.132C34.1486 51.5901 34.2432 54.0623 34.2469 56.5221ZM55.9982 35.191C56.0728 35.3948 56.175 35.6038 56.1442 35.8236C55.9787 35.8946 55.7974 35.8935 55.6241 35.8284C55.4995 35.7815 55.4579 35.7448 55.4041 35.6235C55.1782 35.1151 55.7038 34.0749 55.9105 33.6093C55.6547 33.3315 55.3985 33.0105 54.9856 32.9929C53.6484 32.9366 51.0886 34.87 50.1447 35.786C48.426 37.4538 47.0036 39.1929 46.1125 41.4304L46.1851 41.3743C46.7526 40.9304 47.8457 39.1255 48.4651 39.1555C48.6722 39.2899 48.7112 39.4252 48.8176 39.6358C49.9877 38.4079 50.9817 38.2897 52.5971 38.0258C53.0598 37.9502 53.5464 37.8064 54.0126 37.7875C54.2435 37.7782 54.4553 37.8077 54.6282 37.9686C54.607 38.0943 54.6335 38.0806 54.5171 38.1677C53.7735 38.7247 51.0433 38.4384 49.6702 39.6556C48.0293 41.1102 49.3829 42.9035 46.9363 44.0876L47.4196 44.5334C47.7579 44.1946 48.2242 43.3298 48.642 43.1995C48.8073 43.2518 48.8074 43.2492 48.9009 43.3929C48.9019 43.9534 47.9759 44.6226 48.0349 44.9246C48.2117 44.9496 48.4567 44.8046 48.5919 44.6953C49.1447 44.2483 49.2188 43.1371 49.253 42.4773C49.3034 41.5073 49.2198 40.3613 50.0261 39.6652C50.2311 39.4883 50.5115 39.2776 50.7985 39.2974C50.9251 39.3813 50.97 39.3988 50.9985 39.5597C51.0533 39.8675 50.9566 40.2073 51.0109 40.5257L51.3045 41.2377C50.8595 41.7829 50.4137 42.3129 49.8939 42.7911C49.771 43.3588 49.6937 43.9938 49.4468 44.524C49.2408 44.966 48.5926 45.4859 48.5439 45.9114C48.6894 46.0978 49.025 46.1942 49.244 46.2922C49.4511 45.4197 49.9597 45.1081 50.1032 44.5179C50.2185 44.0435 49.7119 43.312 50.2852 42.9791C50.5906 42.8018 50.944 42.6999 51.2775 42.5869C52.3547 42.2224 53.026 41.8593 53.6902 40.9251C53.6821 40.5242 53.5504 39.9572 53.7471 39.6098L53.98 39.5496C54.2601 39.9746 54.3073 40.3935 54.3474 40.8856C55.3896 41.0385 56.1931 40.8937 57.0506 40.2658C57.5448 39.9038 57.9997 39.4899 58.4994 39.136C58.3221 38.9548 58.15 38.7864 57.949 38.6304C57.7073 38.4425 57.608 38.3212 57.5713 38.0187L57.6169 37.8882C57.7965 37.835 57.9351 37.898 58.095 37.9892C58.8072 38.3964 59.6704 39.2697 60.2824 39.8319C60.6126 39.0771 61.4583 36.6869 62.2061 36.4358C63.0036 36.1681 64.0896 37.1198 64.8719 36.8094L64.9113 36.7027C64.6259 36.3066 62.9517 36.1483 62.4194 36.0587C62.2194 36.0253 62.0186 36.0083 61.8162 35.998L61.7622 36.0542C61.2571 36.5893 60.8992 37.4868 60.2485 37.8378C60.0934 37.8375 60.0928 37.8282 59.9702 37.7317C59.896 37.3308 60.2368 37.0873 60.3844 36.7356C60.2209 36.5523 60.0546 36.3546 59.8629 36.1998C59.4459 35.863 58.9848 35.716 59.0256 35.0953C59.0493 34.7371 59.1408 34.3554 59.1892 33.9962C58.9757 33.7473 58.5678 32.9663 58.5859 32.6314C58.5917 32.5253 58.6319 32.5015 58.6938 32.4198C58.8326 32.4059 58.8585 32.4049 58.9739 32.4979C59.2713 32.7375 59.4884 33.2431 59.6717 33.5724C60.4229 33.9787 61.128 34.0328 61.7618 34.6736C62.0543 34.5217 62.3456 34.3602 62.6444 34.2214C62.1424 33.3659 61.3927 32.6838 60.8784 31.8412C60.9807 31.5476 61.0742 31.2474 61.1999 30.9626C60.8376 30.9273 60.4139 30.7624 60.0639 30.8394C58.6308 31.1556 57.7117 31.8161 56.9149 33.0422C56.4794 33.7126 56.203 34.4243 55.9982 35.191ZM33.2185 60.2902C33.243 59.3904 33.2708 58.4731 33.2183 57.5746C32.7035 56.7273 31.6471 55.9146 30.6618 55.6902C30.6325 55.6834 30.6027 55.6786 30.5732 55.6728C31.2617 56.6754 31.9387 57.6544 32.4688 58.7516C32.6227 59.0702 32.9569 60.154 33.2185 60.2902ZM48.3219 67.889L48.6354 67.8991L48.6999 67.8299C48.1338 67.3063 47.4264 67.3424 46.9358 66.6165C46.9572 65.6142 47.1751 64.9863 47.7705 64.1838C47.5717 63.926 47.3371 63.5076 47.0873 63.3139C46.8384 64.0341 46.5715 64.3826 45.936 64.8153C46.3219 65.2258 46.4733 65.632 46.4541 66.194C46.4458 66.4379 46.3849 66.6898 46.3362 66.9289C46.9545 67.4916 47.4538 67.8408 48.3219 67.889ZM52.8541 79.3566C52.8734 80.2182 53.0808 81.2255 53.7278 81.8648C53.8812 82.0164 54.0997 82.1488 54.3262 82.1175C54.5388 82.0881 54.6775 81.9244 54.7762 81.7507C55.0675 81.2382 55.0186 80.637 55.0111 80.0726C54.925 79.7592 54.8346 79.5002 54.5171 79.3498C54.4366 79.3117 54.4241 79.311 54.3474 79.2894L54.2166 79.3493C54.1037 79.7653 54.6556 80.3634 54.5635 80.9663L54.4095 81.035C53.9357 80.6277 53.7014 79.7044 53.2651 79.4234C53.1606 79.356 52.9743 79.3615 52.8541 79.3566ZM57.8264 29.256C58.5317 29.1722 59.283 29.0291 59.9933 29.0959C60.1229 28.7187 60.2376 28.3698 60.4494 28.029C60.4729 27.9913 60.494 27.9522 60.516 27.9137L60.5587 27.8404C60.2047 27.8179 59.8251 27.8435 59.5334 27.6161C59.3718 27.8099 59.1891 28.0864 58.9118 28.105C58.6054 28.1256 58.381 27.8251 58.1891 27.6295C57.9018 27.7265 57.6488 27.8018 57.3435 27.8282L57.2424 27.8375C57.222 27.8392 57.2017 27.8402 57.1815 27.8416C57.3935 28.27 57.6865 28.7511 57.7823 29.2175L57.8264 29.256ZM71.2002 79.0402C73.1066 77.6095 73.7935 76.7559 75.0534 74.7679C75.5173 73.8549 76.4723 72.4894 76.477 71.4649L76.4113 71.4444C75.7057 72.1455 74.6066 75.5004 73.8849 75.7239C73.743 75.6513 73.7035 75.6444 73.6638 75.4786C73.4472 74.575 76.7231 70.7405 75.7287 69.8305C75.6072 69.7192 75.43 69.6408 75.2691 69.6139C74.6539 69.9458 74.344 70.2916 73.9206 70.8263C73.9319 71.3814 74.0472 72.1476 73.7451 72.6326C73.395 73.1947 73.7387 73.2171 73.6412 73.7991C73.3292 75.6588 72.4431 77.597 71.2002 79.0402ZM67.0992 31.2091L67.7433 30.7933C68.4064 30.6144 69.0308 30.6265 69.7142 30.6387C69.0126 29.9543 68.2141 29.7042 67.2392 29.6535C66.6436 29.8033 66.1335 30.025 65.5932 30.3095C66.1113 30.5858 66.6234 30.8641 67.0992 31.2091ZM47.7748 85.0612L48.5917 85.458C48.7647 85.3297 48.9355 85.1944 49.1133 85.0731C49.6842 84.5466 50.2722 84.2206 50.9647 83.8792C50.3711 83.6524 49.8693 83.4477 49.2182 83.4616C48.919 83.5478 48.6689 83.6844 48.3994 83.8337C48.1513 84.2246 47.937 84.6275 47.7748 85.0612ZM79.2481 45.3495C79.4723 45.6402 79.6839 45.9493 79.9652 46.1889C79.8083 45.8662 79.5921 45.5134 79.5493 45.1574L79.5983 45.039L79.7129 45.009C79.99 44.9347 80.2468 44.8789 80.4628 44.6837L80.4055 44.6357C80.2762 44.6549 79.4092 44.8501 79.3746 44.8193C79.2952 44.7487 79.268 44.6694 79.2202 44.5788C79.1812 44.5048 79.1971 44.5315 79.1219 44.4683C79.0724 44.6693 79.0727 44.7682 78.9216 44.9162C78.6093 44.9248 78.3381 44.7675 78.0147 44.7745L77.9804 44.8547C78.2626 45.0335 78.7438 45.032 79.0731 45.0722C78.8328 45.3964 78.4021 45.8503 78.403 46.271L78.4423 46.2819C78.6691 45.9853 78.86 45.5681 79.1437 45.3325L79.2481 45.3495ZM42.7364 44.6019C42.5469 45.3623 42.673 47.1852 42.674 48.0581L42.6808 55.7922C43.4161 55.759 44.1141 55.5199 44.8398 55.4272L45.1489 55.3323C45.197 55.2357 45.1878 55.2894 45.1615 55.1694L43.4998 47.7779C43.2832 46.8184 43.1685 45.6958 42.8334 44.7805C42.8082 44.7118 42.7764 44.6628 42.7364 44.6019ZM58.8002 49.8847C58.5789 50.0024 58.3492 50.133 58.1043 50.194C56.9546 50.4804 54.9996 50.0736 54.5953 51.3815C54.5459 51.5411 54.5373 51.7119 54.527 51.8776L54.5832 51.9194L54.6637 51.8406C54.8853 51.6615 55.1281 51.4373 55.3896 51.3206C56.7214 50.7263 57.7471 51.568 59.1134 50.403C59.0337 50.2605 58.9237 49.9813 58.8002 49.8847ZM48.9793 72.7206C48.8262 72.9116 48.6095 73.104 48.5692 73.3448C49.1 73.7325 49.2521 73.5422 49.8169 74.1941C49.8607 74.4008 49.9094 74.6072 49.9332 74.8172L50.0992 75.8475C50.3209 75.1423 50.5369 74.5705 50.9607 73.9536C50.7159 73.6 50.4685 73.2873 50.4452 72.844C50.4383 72.7143 50.4574 72.5529 50.3177 72.5221C49.8882 72.6354 49.4292 72.7762 48.9793 72.7206ZM70.2179 37.7261C69.5313 37.7991 68.8397 37.9022 68.3646 38.4568C68.0991 38.7668 68.0024 39.1461 68.0571 39.5458C68.1158 39.9751 68.3375 40.3637 68.5908 40.7101C69.2694 41.1164 69.785 41.1646 70.5558 41.0082C70.903 40.6765 71.2102 40.3717 71.2205 39.8599C71.2268 39.5476 71.0916 39.2508 70.871 39.0302C70.6324 38.7917 70.2927 38.649 69.9514 38.666C69.6469 38.6812 69.4232 38.8155 69.2297 39.0394C69.1827 39.1906 69.1511 39.3189 69.1369 39.4777C69.2029 39.7209 69.237 39.856 69.4776 39.988C69.6313 40.0723 69.8738 40.1469 70.0478 40.0938C70.187 40.0513 70.2033 39.9996 70.2759 39.8849L70.2825 39.7383C70.1826 39.7098 70.1903 39.6995 70.0837 39.7321C69.9222 39.7814 69.7785 39.8524 69.6122 39.7907C69.5621 39.6471 69.5578 39.5037 69.617 39.3561C69.666 39.2338 69.7197 39.169 69.8461 39.1281C70.0707 39.0555 70.4402 39.1197 70.6436 39.2367C70.7979 39.3255 70.9093 39.4618 70.95 39.6346C70.9994 39.8445 70.9346 40.0737 70.8149 40.2496C70.6429 40.5021 70.3593 40.6485 70.06 40.6978C69.7122 40.7553 69.2473 40.6868 68.9587 40.4757C68.7476 40.3212 68.6409 40.0829 68.6082 39.831C68.5617 39.4711 68.6057 39.0865 68.6313 38.7263C69.0021 38.3043 69.3562 38.1402 69.9076 38.0335C70.065 38.0032 70.1488 37.9324 70.2619 37.8251L70.2373 37.7358L70.2179 37.7261ZM47.2543 75.8413L48.182 75.7978L48.2503 75.7495C48.2758 75.5191 48.2726 75.3642 48.1938 75.1447C47.7945 74.9265 47.3474 74.6226 46.937 74.4523C46.8429 74.6825 46.738 74.9127 46.6546 75.1466C46.8687 75.3704 47.0758 75.5875 47.2543 75.8413ZM51.1489 29.8998C50.406 30.3195 49.6675 30.7533 48.8981 31.1242C49.4143 31.1992 49.883 31.2635 50.3558 31.4948L50.4419 31.591C50.771 31.5819 51.7563 30.8836 52.1497 30.7121C51.8289 30.4424 51.5025 30.1232 51.1489 29.8998ZM62.6711 29.2075L63.6217 28.2782C62.7949 28.0179 62.0526 27.9295 61.1875 27.9391C60.9595 28.3495 60.7098 28.7589 60.5335 29.194C60.9371 29.2274 62.3013 29.5052 62.6044 29.2714C62.6289 29.2527 62.6489 29.2288 62.6711 29.2075ZM71.2122 73.6932C70.8488 73.9461 70.5011 74.1978 70.1735 74.4952L70.9975 74.2105C71.1917 74.0941 71.6301 73.1564 71.9958 72.7953C72.3468 72.6988 73.038 72.6118 73.2272 72.2895C73.4322 71.9401 73.346 71.3533 73.3352 70.959C73.1447 70.7953 72.8484 70.8683 72.6042 70.7659C72.3413 70.9089 72.0568 71.0319 71.9671 71.341C71.8801 71.6413 72.0015 72.0455 72.06 72.348C71.6543 72.7803 71.4104 73.1341 71.2122 73.6932ZM55.5815 49.8593C56.6813 49.8541 57.4831 49.784 58.5062 49.3817C58.2345 48.8925 57.9648 48.4689 57.5527 48.0824C57.2489 48.4137 56.9591 48.7512 56.5652 48.9821C56.1249 49.2405 54.9079 49.4106 54.8981 49.9826L55.0098 50.0401C55.2007 49.9809 55.3913 49.9207 55.5815 49.8593ZM50.9366 65.7371L51.2672 65.9362L51.3674 65.8941C51.4584 65.5436 51.3084 65.017 51.6652 64.814C52.1427 64.5421 52.8608 64.8437 53.149 64.0779C53.2617 63.7784 53.1699 63.0439 53.035 62.7514C53.0053 62.6873 52.9904 62.6771 52.9476 62.6319L52.8648 62.6227C52.6202 62.7193 52.4181 62.7594 52.2524 62.9696C52.2301 63.117 52.2461 63.2106 52.2768 63.3571C52.3355 63.6373 52.2997 63.7864 52.1385 64.0261C51.773 64.5694 50.4562 64.5647 50.4648 65.2021C50.582 65.4173 50.7269 65.6016 50.9366 65.7371ZM71.8066 74.2825C71.9763 74.5215 72.1526 74.7391 72.2264 75.0262C72.1903 75.1963 72.1857 75.2012 72.0535 75.3166C71.9011 75.3283 71.8327 75.3069 71.7132 75.2066C71.6562 75.1587 71.6069 75.0919 71.5601 75.0353C71.3772 75.1055 71.2293 75.3155 71.0961 75.4574C71.2832 75.7549 71.4643 76.0391 71.6993 76.3032C71.8112 76.4357 71.9044 76.5546 71.9823 76.7094C72.3428 75.956 73.2832 74.0597 73.0057 73.2424C72.8514 73.1447 72.6836 73.1644 72.5028 73.1519C72.1957 73.5124 71.978 73.8375 71.8066 74.2825ZM61.9238 32.1951C62.283 32.6972 63.4401 33.8004 63.4112 34.3713C63.0606 34.7429 62.3288 34.8538 62.0662 35.2482C62.1174 35.3674 62.1336 35.389 62.262 35.4431C62.9411 35.7301 65.3924 35.7465 65.7354 36.2628C65.7377 36.3829 65.7446 36.4833 65.7035 36.5977C65.6505 36.7431 65.5829 36.8766 65.5886 37.0326L65.7026 36.9202L65.6476 37.0259C66.1976 36.5464 66.5689 35.7795 66.6158 35.0632C66.6421 34.6637 66.6121 34.2435 66.5812 33.8446C65.0904 33.3385 63.5116 32.2173 61.9238 32.1951ZM56.3809 32.4198C56.1695 32.4485 56.0156 32.4352 55.8488 32.5707C55.9151 32.7635 56.0722 32.8891 56.2144 33.03C56.342 32.8537 56.5159 32.6225 56.5245 32.4059C56.3989 32.4077 56.4443 32.3923 56.3809 32.4198ZM50.2739 77.5117C50.3757 77.3226 50.3656 77.0934 50.2981 76.8885C50.1755 76.5162 49.7952 76.3746 49.6165 76.0581C49.3596 75.6029 49.3878 74.9174 49.2116 74.4167C48.7322 73.9392 48.1472 73.8954 47.4903 73.875L47.3205 74.1074C47.8378 74.3845 48.6858 74.4307 48.8747 75.0923C49.1408 76.0243 48.3591 76.3719 49.6479 77.1752C49.8479 77.2999 50.0632 77.4054 50.2739 77.5117ZM68.4132 83.191C67.9769 83.2812 67.5703 83.3956 67.1521 83.548C68.1377 83.8494 69.299 83.8467 70.187 84.4028C70.3776 84.5298 70.6069 84.7313 70.8424 84.7349C70.9987 84.5904 71.0337 84.4785 71.0352 84.2619C71.0368 83.9937 70.97 83.7583 70.7645 83.5733C70.2111 83.075 69.1122 83.1558 68.4132 83.191ZM57.5643 74.4767C57.1865 74.0922 56.8913 73.6616 56.7514 73.1369C56.7249 73.0379 56.7004 72.7933 56.62 72.7251C56.061 73.0322 55.7017 73.1441 55.0701 73.1955C55.813 73.7993 56.1878 74.2479 56.4533 75.1808L56.4803 75.3915C56.5958 75.4612 56.7123 75.4793 56.844 75.4433C57.213 75.3426 57.4131 74.7838 57.5643 74.4767ZM54.4632 28.421C54.5652 28.7058 54.8005 29.5103 55.0914 29.6464C55.115 29.6576 55.142 29.66 55.1672 29.6667C55.8217 29.4843 56.4897 29.3529 57.1652 29.2743C57.0205 29.0049 56.7171 28.2515 56.4837 28.1107C55.7997 28.1611 55.1221 28.2237 54.4632 28.421ZM45.4853 36.2178C44.8465 36.3435 44.2126 36.4234 43.582 36.593C43.0522 37.2811 42.5969 37.9487 42.2364 38.7422L42.2672 38.8371C42.9634 38.5863 43.6506 38.3989 44.3755 38.2434C44.7274 37.6189 45.0652 36.9704 45.4784 36.3827L45.4458 36.4634L45.5506 36.3687L45.4633 36.2902L45.5339 36.2591L45.4853 36.2178ZM38.554 78.8459C38.2828 79.194 38.0388 79.5528 37.7984 79.9221C38.3517 79.9372 40.7076 79.7913 40.9978 80.0622C41.0544 80.115 41.0207 80.181 41.013 80.25C40.6436 80.6231 40.0445 80.5277 39.5415 80.534L39.9261 81.1245L40.681 81.3923C41.2294 81.158 41.7656 80.7031 42.3268 80.5582C43.2994 80.3071 46.3293 81.1349 47.3205 81.5246C47.7047 81.6757 48.0764 81.8748 48.4376 82.073C49.8 82.8719 51.2136 83.358 52.7588 83.6799C51.8349 83.1403 50.1295 82.5131 49.7881 81.366C49.634 80.8485 49.8043 80.6241 49.3511 80.2028C49.2132 80.2219 49.2155 80.2031 49.1068 80.3034C48.9607 80.438 48.8736 80.5111 48.6648 80.4933C48.4985 80.4792 48.3746 80.3794 48.2739 80.254C47.8901 79.7763 47.7433 78.7925 47.8246 78.1974C47.9184 77.5099 48.3405 77.1102 48.1199 76.4005C47.8323 76.401 47.5412 76.4113 47.254 76.3969C46.8458 77.3331 46.7616 78.0103 47.1512 78.9674C47.6956 80.3051 49.321 81.295 49.4973 81.8415L49.4366 81.9809C49.2345 82.0452 49.1178 82.0483 48.9237 81.9527C47.5178 81.2599 45.067 77.9877 44.6485 76.5238C44.4787 75.9303 44.3907 74.7867 43.8765 74.4264C43.6953 74.5071 43.5007 74.5435 43.4245 74.7451C43.2388 75.236 44.1308 76.0113 43.7779 76.2726C43.6078 76.2722 43.4815 76.2894 43.3435 76.1675C43.1044 75.956 42.9603 75.5535 42.6687 75.4169C42.54 75.5004 42.4972 75.556 42.4298 75.6919C42.482 76.0298 42.6858 76.1578 42.9484 76.3493C43.1423 76.4906 43.394 76.6285 43.5567 76.8014C43.8942 77.1597 44.1482 77.7866 44.4452 78.2029C44.794 78.6918 45.6045 79.4706 45.8104 79.9495L45.7974 80.1177C45.6632 80.2044 45.5662 80.227 45.4034 80.205C45.0793 80.1609 44.7184 79.7958 44.4114 79.6554C43.1208 79.0647 41.3574 78.4451 39.9212 78.5467C39.4485 78.5801 39.0045 78.7095 38.554 78.8459ZM53.2639 76.9549C53.7154 76.6251 54.1875 76.3159 54.2902 75.7253C54.3138 75.5895 54.3027 75.4454 54.2265 75.3255C54.1258 75.1672 53.8071 75.0113 53.6251 74.988C53.5101 74.9733 53.3827 74.9911 53.268 75.0041C52.9346 75.1453 52.5366 75.2723 52.4016 75.6414C52.3222 75.8524 52.3332 76.0862 52.432 76.2891C52.5732 76.5822 52.8621 76.7967 53.1327 76.9673L53.2639 76.9549ZM65.8191 84.1743C66.7349 84.7387 67.5061 85.6214 68.6819 85.3622C68.9805 85.2964 69.277 85.1932 69.5684 85.1016L69.7934 84.984C69.5935 84.6566 68.9372 84.5363 68.5701 84.4462C67.6658 84.2242 66.748 84.1529 65.8191 84.1743ZM48.106 33.2836C48.3747 33.2679 49.4582 32.3405 49.6496 32.1303C49.7437 32.0268 49.7682 32.007 49.7665 31.8651C49.3696 31.6586 48.8445 31.8558 48.4156 31.6445C47.7504 32.1802 47.087 32.6955 46.3848 33.1829C46.9408 33.1825 47.569 33.1312 48.106 33.2836ZM82.3078 74.2866C82.1418 74.3993 81.8939 74.6129 81.6811 74.5836C81.5084 74.5598 81.482 74.5031 81.3906 74.3735C81.4243 74.1715 81.4733 74.0526 81.654 73.937C82.1067 73.6471 83.161 73.6157 83.6773 73.7528C84.1934 73.8899 84.7899 74.6958 85.3754 74.4311C85.493 74.378 85.5466 74.3013 85.6213 74.2035C85.6205 73.9216 85.3963 73.6947 85.2035 73.5062C84.7375 73.0506 84.0547 72.7471 83.392 72.76C83.3028 72.7618 83.2169 72.7728 83.1285 72.7844C80.3076 73.3691 79.5579 75.2357 77.709 76.9989C78.2123 76.7807 78.5453 76.4902 78.964 76.1509C80.1333 75.2031 81.0973 74.7773 82.6314 74.8603C83.1261 74.9933 83.5661 75.1665 84.0757 75.0031L84.137 74.8904C84.0056 74.6157 83.6844 74.4729 83.4089 74.3719C83.0483 74.2399 82.6852 74.2732 82.3078 74.2866ZM65.079 29.94C65.5405 29.5758 66.0041 29.385 66.557 29.1884C65.9904 28.837 65.1849 28.4584 64.4931 28.5358C63.9504 28.8023 63.6027 29.1196 63.224 29.5845C63.5573 29.6568 64.7506 30.0849 65.0016 30.0253L65.079 29.94ZM53.8492 72.9726C53.4304 72.3631 53.0738 71.8465 52.9528 71.1025C52.3191 71.3355 51.7839 71.3331 51.1106 71.329C51.0076 71.8394 50.8684 72.8841 51.1976 73.3315C51.2898 73.4571 51.3504 73.4669 51.493 73.516C51.5921 73.4692 51.6808 73.4232 51.7706 73.3606C52.3878 72.9992 53.1534 73.0057 53.8492 72.9726ZM50.7153 80.1819C50.4841 80.2093 50.3832 80.1922 50.203 80.3441C50.1285 80.6786 50.3358 81.0739 50.5135 81.351C51.1837 82.3956 52.4068 82.7301 53.4574 83.2506L53.6335 83.2722C53.3405 82.882 52.7407 82.6166 52.381 82.2461C52.0061 81.8599 50.9049 80.3055 50.7153 80.1819ZM51.5298 29.5074C51.929 29.7645 52.3338 30.0151 52.7086 30.3062C53.1241 30.4371 53.9655 29.9964 54.4231 29.9135C54.2351 29.5251 54.0016 28.8716 53.6172 28.6554C52.9297 28.9753 52.2534 29.273 51.5298 29.5074ZM45.9674 71.4784L45.9938 71.579C46.1214 72.0822 45.916 72.9273 46.1881 73.2956L46.3358 73.3213C46.471 73.0037 46.2456 72.6473 46.6075 72.4497L46.8873 72.4663C47.089 72.7905 47.3309 73.0102 47.6154 73.2605C47.8623 73.0394 48.1124 72.8229 48.3338 72.5764C47.8716 72.2272 47.5155 71.9869 47.2594 71.453C47.2073 71.3444 47.251 71.371 47.1388 71.3622C46.746 71.444 46.368 71.4656 45.9674 71.4784ZM60.5016 72.3617C59.5626 71.9178 58.5819 71.3556 57.5931 71.0408C57.322 71.8237 57.1106 72.6227 57.496 73.415C57.662 73.7562 57.9298 74.053 58.3061 74.1646C58.615 74.2561 59.1482 74.1698 59.4271 74.0056C59.5424 73.9377 59.6495 73.8541 59.7551 73.7724C60.1776 73.3456 60.3135 72.918 60.5016 72.3617ZM47.3669 62.0896C47.4773 61.8166 47.5833 61.5461 47.7686 61.3124C48.2148 60.7497 49.6835 59.9299 49.6592 59.2154C49.5108 58.9847 49.3432 58.9361 49.0833 58.8598C49.0049 59.0903 48.9312 59.3252 48.7758 59.5184C48.2001 60.2344 46.9571 60.5543 47.0114 61.6314C47.0197 61.7948 47.0406 62.0238 47.1274 62.1685C47.1705 62.2405 47.1784 62.2415 47.2328 62.2893C47.3511 62.2267 47.3275 62.2092 47.3669 62.0896ZM46.2109 37.2119C46.7613 36.4641 47.5369 35.1809 48.541 35.0484C48.7782 35.0172 49.0529 35.0526 49.2422 35.2098C49.3236 35.2773 49.3945 35.3606 49.4637 35.44C50.5271 34.7224 51.335 33.8409 52.5205 33.2644C52.3802 32.9564 52.2419 32.6892 52.367 32.3467C52.557 31.826 53.0938 31.5517 53.5795 31.3509C56.6898 30.0643 61.2081 29.7985 64.3452 31.0855C64.7432 31.2488 66.1953 32.0757 66.4523 31.998C66.52 31.9775 66.5447 31.96 66.6022 31.9272C66.6231 31.7826 66.6413 31.8394 66.5533 31.7201C66.1995 31.2407 65.3469 30.8949 64.8091 30.6829C63.3701 30.1158 60.5683 29.5573 59.0782 29.6714C58.0136 29.789 56.9489 29.8676 55.8989 30.087C52.3068 30.8547 49.0953 32.8256 46.8106 35.6644C45.3752 37.4364 43.3942 41.0451 43.1891 43.2905C43.1539 43.6766 43.2713 44.1187 43.36 44.494C44.038 41.9507 44.7738 39.4536 46.2109 37.2119ZM52.9798 81.9603L52.5464 81.0826C52.4714 80.891 52.3893 80.6923 52.3495 80.4902C52.2859 80.1668 52.3547 79.3528 52.1861 79.1126L51.9651 79.0979L51.9102 79.1578C51.9834 79.3354 51.9927 79.344 51.9442 79.5279C51.8011 79.6471 51.7992 79.6448 51.6113 79.6496C51.2332 79.4402 51.1847 79.0319 51.0729 78.6488C50.7153 78.4677 50.3522 78.2932 49.9986 78.1045C50.0162 78.5087 49.9797 78.952 50.3237 79.2381C50.6029 79.4704 50.9864 79.5675 51.2475 79.8162C51.9161 80.453 52.2846 81.3234 52.9798 81.9603ZM43.422 39.0159C42.9843 39.1963 41.8627 39.5191 41.6914 39.9866C41.4886 40.5402 41.4422 41.1243 41.0902 41.6254C40.8637 41.9475 40.4931 42.2266 40.3224 42.5705C40.4587 42.66 40.5928 42.7531 40.7244 42.8494C40.7072 43.0214 40.5227 43.1884 40.3924 43.2913C40.0498 43.5619 39.6271 43.7331 39.2005 43.814C39.1863 43.8167 39.1723 43.8205 39.1581 43.8238C39.2898 44.0552 39.4041 44.3179 39.6241 44.4784L39.7744 44.4777C40.37 44.2931 40.9657 44.1326 41.5714 43.9842C41.7579 43.3903 41.9134 41.8196 42.3082 41.4564C42.4325 41.4472 42.4868 41.4282 42.589 41.5158C42.7099 41.6193 42.8006 41.8316 42.8768 41.9728C43.2085 41.0712 43.735 39.9708 43.9445 39.0582C43.7842 38.9546 43.6031 38.9995 43.422 39.0159ZM43.2682 63.2677C43.5084 63.2419 43.6503 63.204 43.8481 63.0649C43.9368 62.8951 43.9358 62.8899 43.9018 62.7015L43.6283 62.4328C42.9926 62.4229 42.3524 62.4268 41.7177 62.3963C41.463 62.4056 41.1478 62.3717 40.964 62.5757C40.8613 62.6896 40.8199 62.7862 40.7943 62.9378C40.8663 63.0926 40.9143 63.1503 41.0809 63.2125C41.6658 63.4308 42.6357 63.2534 43.2682 63.2677ZM55.144 48.9463C55.4702 48.8398 55.8061 48.746 56.1043 48.5746C56.3899 48.3657 56.8869 48.0798 56.9253 47.6934C56.9406 47.5391 56.8926 47.4182 56.778 47.3125C56.5744 47.1244 56.0516 47.0227 55.7785 47.0271C55.2371 47.6336 55.194 48.1673 55.144 48.9463ZM62.3214 86.5951C60.1816 86.5295 58.0358 86.5747 55.8949 86.5682C56.0068 86.9509 56.1182 87.3233 56.279 87.6894C57.1392 87.6993 61.5663 87.8488 61.9149 87.5829L61.9917 87.4587C62.109 87.1735 62.2299 86.8899 62.3214 86.5951ZM67.4235 81.4855C68.2568 80.9954 69.4027 80.4538 69.6767 79.4478C69.7297 79.2532 69.7744 79.0383 69.725 78.8398C69.6314 78.8112 69.5477 78.7896 69.4503 78.7795C69.2666 78.8826 69.0923 78.9859 68.9452 79.1376C68.7214 79.3685 67.3755 81.184 67.2921 81.428C67.285 81.4489 67.2821 81.4709 67.2772 81.4925L67.3539 81.5201L67.4235 81.4855ZM48.1653 62.7219C48.3172 62.4061 48.4641 62.135 48.7196 61.8841C49.1943 61.4179 51.1759 60.3752 50.8525 59.5754C50.7795 59.3948 50.5977 59.3286 50.4211 59.287C50.3968 59.2812 50.3722 59.277 50.3477 59.2721C50.2626 59.6287 50.1486 59.9594 49.9166 60.2539C49.2844 61.0563 48.3296 61.2082 48.0354 62.3013C47.9866 62.4825 47.9439 62.7103 48.0218 62.8872C48.1089 62.8289 48.1142 62.8216 48.1653 62.7219ZM59.5927 35.1203C60.0265 35.4993 60.4366 35.8353 60.7634 36.3113C60.8483 36.2154 60.8956 36.1267 60.9493 36.0113C61.1386 35.7699 61.3264 35.5272 61.5125 35.2831C60.9711 34.7743 60.4354 34.5658 59.7701 34.2634C59.7459 34.5778 59.7001 34.8213 59.5927 35.1203ZM44.652 74.2416C44.7511 74.6136 44.7847 75.0922 44.9865 75.4128L45.1195 75.4608L45.3649 75.2971C45.7807 75.1021 46.0526 74.9854 46.2298 74.5335C46.293 74.3724 46.3039 74.2115 46.2206 74.054C46.1261 73.8751 45.8206 73.7148 45.6281 73.6774C45.5814 73.6683 45.5483 73.6707 45.4994 73.6702C45.1694 73.8336 44.9299 73.9978 44.652 74.2416ZM49.0612 80.0338L49.2034 79.9249L49.1937 79.8218C49.1877 79.7523 49.1818 79.6833 49.1748 79.6139C49.1196 79.078 49.647 77.9829 49.1355 77.596C49.0701 77.5465 48.976 77.5136 48.9019 77.4821C48.6234 77.658 48.4953 77.7682 48.424 78.094C48.3027 78.6469 48.4486 79.3141 48.7851 79.7725C48.8618 79.8772 48.9575 79.9567 49.0612 80.0338ZM70.6019 78.8398C70.9371 78.3823 71.5724 77.7213 71.4588 77.1173C71.399 76.799 71.1599 76.5711 70.9422 76.3474C70.8312 76.5401 70.7071 76.7399 70.6251 76.9467C70.4845 77.3022 70.2635 78.6293 70.3804 78.9607C70.3869 78.9794 70.3983 78.9962 70.4071 79.014C70.5095 78.9692 70.5411 78.9318 70.6019 78.8398ZM46.9817 83.1236C46.9757 83.4865 46.8503 84.5749 47.0896 84.8265C47.1735 84.7514 47.2198 84.6883 47.2738 84.5901C47.6669 83.8679 47.8587 83.3827 48.6387 82.9547C48.4575 82.8311 48.2546 82.6568 48.0402 82.6018C47.536 82.6585 47.3326 82.779 46.9817 83.1236ZM63.6426 44.0338C63.8396 43.9362 63.9166 43.9314 64.0152 43.7315C63.9709 43.5427 63.9037 43.3797 63.824 43.2029C63.6342 43.2864 63.5081 43.3001 63.4079 43.484C63.4689 43.6763 63.5547 43.852 63.6426 44.0338ZM53.9356 44.3779C53.227 44.3736 52.6627 44.3993 52.1347 43.8725C51.9506 43.6889 51.6516 43.2925 51.4274 43.1994C51.2912 43.2381 51.033 43.2728 50.964 43.3882L51.0125 43.4193C51.5487 43.7669 52.0439 44.1764 52.525 44.5937C52.834 44.6477 53.1423 44.6964 53.4423 44.7893L53.9356 44.3779ZM75.3922 48.1658C75.6293 48.4867 75.8498 48.8353 76.1801 49.0704C76.0436 48.8008 75.3537 47.9352 75.3508 47.7207C75.6553 47.5066 76.0784 47.5765 76.3654 47.35L76.362 47.2436C75.9733 47.2786 75.5879 47.4104 75.213 47.5162C75.2148 47.2791 75.2789 46.6571 75.0939 46.5077C75.0648 46.4842 75.0287 46.4704 74.9961 46.4517C74.904 46.763 74.9717 47.1302 74.8319 47.411C74.6724 47.4936 74.6013 47.4923 74.4267 47.4412C74.3155 47.4087 74.206 47.3593 74.0992 47.3147L73.9482 47.3347L73.926 47.4789C74.1745 47.6752 74.511 47.5718 74.7586 47.7821C74.7958 48.1819 74.1967 48.4088 74.4325 48.7961C74.6825 48.5405 74.7827 48.1366 75.0796 47.9441C75.265 47.9728 75.2748 48.0279 75.3922 48.1658ZM54.1733 84.4366C53.7756 84.3475 53.4049 84.2843 52.9969 84.2705L52.9946 85.7228L54.1455 85.7178L54.1733 84.4366ZM65.9798 41.8204C65.7854 41.9087 65.6084 41.9669 65.4845 42.1454C65.4043 42.5547 65.5581 42.7956 65.7466 43.1463L65.8493 43.1738L65.9201 43.131L66.5906 42.8991C66.4087 42.5466 66.2373 42.1215 65.9798 41.8204ZM62.8959 83.7802C65.449 82.7 66.3618 81.672 67.9398 79.4817C67.6505 79.184 67.3358 78.8146 66.8848 78.7963C66.8138 78.7935 66.7429 78.7963 66.6718 78.7996C66.4206 78.873 66.1698 78.9501 65.9172 79.0186C65.7684 80.3818 65.4365 81.8052 64.2926 82.7017C64.1392 82.8221 64.0034 82.9264 63.8019 82.9415C63.7211 82.8448 63.7342 82.8942 63.743 82.7654C63.7883 82.1045 64.5649 81.58 64.8512 80.9951C65.1441 80.3969 65.2334 79.7338 65.3351 79.0842C64.6611 79.0847 63.9902 79.0891 63.3168 79.1222L63.3758 79.8135C63.5803 81.402 63.7081 82.3399 62.8959 83.7802ZM71.149 70.7039C70.927 70.2321 70.622 69.9059 70.1243 69.7163C69.8178 69.5995 69.4594 69.5363 69.139 69.4609C69.2599 69.9453 69.6899 70.1595 69.9275 70.6038C70.3529 70.5994 70.733 70.6038 71.149 70.7039ZM67.6231 68.7907C67.7048 69.1434 67.7883 69.4925 67.833 69.8519C68.0896 69.7901 68.34 69.7319 68.6029 69.7009C68.6165 69.4514 68.5829 69.1583 68.3931 68.9723C68.1559 68.7399 67.9305 68.7731 67.6231 68.7907ZM71.5452 38.8078C71.5906 38.7275 71.6111 38.6717 71.634 38.5814C71.6793 38.4021 71.8016 38.2437 71.9143 38.0988C71.6899 37.9721 71.4535 37.8532 71.2374 37.7139L70.7575 38.1575C71.0577 38.3471 71.2981 38.5548 71.5452 38.8078ZM63.7204 76.9463C63.543 76.5856 63.325 76.2109 63.2337 75.8191L63.1845 75.7827C62.9411 75.8636 62.6992 75.9489 62.459 76.0387L62.4374 76.1251C62.6551 76.2946 62.8817 76.4402 63.1157 76.5861L63.7204 76.9463ZM60.5117 78.9509C60.3142 79.1349 59.9537 79.4111 59.9378 79.6964C59.9368 79.716 59.9417 79.7355 59.9436 79.755C60.0589 79.809 60.0773 79.8191 60.2052 79.7746C60.3757 79.7156 60.5411 79.6016 60.6958 79.5101L61.8589 78.9578L60.5117 78.9509ZM46.6111 60.6291C47.156 59.9192 47.9445 59.4641 48.5164 58.7645L48.5635 58.7079L48.5914 58.6734L48.0569 58.3734C47.9284 58.8258 47.7173 58.9325 47.3246 59.1509C46.9128 59.38 46.4734 59.5749 46.345 60.0717C46.2838 60.3081 46.3563 60.5475 46.4792 60.7499C46.5949 60.7004 46.5505 60.7403 46.6111 60.6291ZM65.4087 47.3613C64.9527 47.5603 63.5047 48.068 63.2512 48.4155L63.3707 48.4723C64.1726 48.3092 65.0269 48.1174 65.5348 47.4161C65.452 47.3493 65.4963 47.3615 65.4087 47.3613ZM70.2025 69.0978C70.0988 68.9098 70.0014 68.7145 69.8801 68.5371C69.4902 68.3751 69.1571 68.2517 68.7287 68.2295L69.0283 68.8791L70.2025 69.0978ZM64.5868 85.3155C64.5892 84.888 64.5866 84.4599 64.614 84.0331C64.3288 84.0313 64.0429 84.0335 63.7578 84.026C63.7644 84.4444 63.7645 84.8639 63.7808 85.282L64.5868 85.3155ZM41.3625 63.8145L41.3689 64.5712C42.0575 64.5614 42.748 64.5406 43.4365 64.5629C43.4292 64.331 43.4514 64.055 43.3551 63.8411C42.7017 63.7668 42.0199 63.8093 41.3625 63.8145ZM64.7339 37.8871L64.9013 37.7141C64.8071 37.564 64.6229 37.5213 64.454 37.4806C64.2294 37.4267 64.0024 37.3809 63.7763 37.3345C63.9116 37.6548 64.0566 37.9732 64.1623 38.3046C64.347 38.1549 64.5242 38.0026 64.7339 37.8871ZM49.9526 41.8278C50.2475 41.4705 50.5907 41.212 50.5224 40.6987C50.497 40.5074 50.4738 40.227 50.3418 40.0917C50.047 40.6809 49.9346 41.1625 49.8648 41.8173L49.9107 41.8834L49.9526 41.8278ZM57.1597 78.655C57.8758 78.538 58.4473 78.3121 59.0211 77.8736L59.0467 77.7271L59.0771 77.8123L58.9129 77.6871L58.9431 77.6823L58.8744 77.6736C58.3284 77.9339 57.5216 78.2153 57.0662 78.5979C57.1159 78.662 57.0838 78.6447 57.1597 78.655ZM72.6124 69.5309C72.5983 69.7878 72.576 69.9649 72.7154 70.1937C72.8518 70.2962 72.9819 70.3536 73.1599 70.3315C73.2312 70.3226 73.2357 70.3173 73.2928 70.2934C73.3298 70.1087 73.3657 70.0109 73.24 69.8432C73.1062 69.6644 72.8173 69.5915 72.6124 69.5309ZM46.6812 76.2093C46.5744 76.0154 46.4982 75.8318 46.297 75.7195C46.1096 75.6892 45.9547 75.693 45.7662 75.7115L45.2448 76.2191C45.324 76.5245 45.3722 76.9307 45.5889 77.1687L45.7279 77.2201C45.8415 77.1585 45.9332 77.094 46.032 77.0114C46.3097 76.8021 46.4951 76.4969 46.6812 76.2093ZM71.923 70.3329C72.0664 70.0331 72.0986 69.8162 71.9717 69.5018C71.7689 68.9997 71.2115 68.7645 70.7439 68.5643C70.7439 68.9983 70.7104 69.1934 71.0396 69.5169C71.1893 69.6639 71.365 69.8074 71.4757 69.9861C71.5736 70.144 71.6164 70.3428 71.7414 70.4798L71.923 70.3329ZM59.5739 83.2127C59.7279 83.3822 59.8777 83.5645 60.0486 83.7175C60.5435 83.9618 60.9676 83.9331 61.4842 83.7624C62.0275 83.583 62.4815 83.277 62.7383 82.7594C63.2075 81.8133 62.8984 80.4219 62.7121 79.4252C61.6658 79.6392 60.4999 80.1158 59.9058 81.046C59.4857 81.7035 59.453 82.4683 59.5739 83.2127ZM64.8129 42.6047L64.3318 42.873C64.403 43.049 64.5225 43.497 64.658 43.6053C64.8692 43.5345 64.998 43.5344 65.1222 43.3466C65.1196 43.0963 64.9242 42.8271 64.8129 42.6047ZM40.2232 73.8564C40.69 74.8258 41.0382 75.7296 41.8799 76.4414L41.9488 76.4432L41.8988 76.4059C41.892 76.3859 41.8849 76.3659 41.8783 76.3459C41.7092 75.828 41.8848 75.5708 42.0156 75.0835L41.8408 75.0209C41.8332 75.001 41.8282 74.9798 41.818 74.9609C41.7361 74.8099 40.7426 74.2734 40.5171 74.0809C40.4253 74.0026 40.3272 73.9183 40.2232 73.8564ZM61.3188 78.4042C61.0447 78.0846 60.7176 77.6432 60.2607 77.6018C60.1289 77.59 60.003 77.6161 59.8745 77.6414C60.1441 78.1004 60.8309 78.2595 61.3188 78.4042ZM59.5077 79.0483L59.9113 78.6808C59.8763 78.5082 59.6202 78.4321 59.514 78.2648C59.3691 78.4159 59.2224 78.5129 59.1952 78.7249C59.2595 78.8581 59.3193 78.9801 59.4108 79.098L59.5077 79.0483ZM66.404 74.3769C66.213 74.0884 65.9185 73.9488 65.6227 73.7857C65.5366 73.8596 65.4488 73.9361 65.3728 74.0201C65.1372 74.2806 64.956 75.1945 64.9676 75.5382C65.0472 75.654 65.0503 75.6633 65.1826 75.7104C65.3709 75.6184 65.4382 75.3313 65.5737 75.1751C65.6657 75.069 65.6943 75.0733 65.8274 75.0583C65.9912 75.162 65.9968 75.1661 66.0647 75.3453C66.0429 75.5785 65.9752 75.7387 65.8721 75.9456L65.8327 76.0232C66.2006 76.338 66.7094 76.3082 67.2028 76.7848L67.2642 76.8453C66.9551 77.1608 66.5893 77.4205 66.238 77.6884C66.552 77.8566 66.9367 78.2313 67.2376 78.3348C67.4226 78.0512 67.0903 77.4901 67.2145 77.1378C67.3619 77.0728 67.4971 77.1027 67.6518 77.1208C68.0763 77.5256 67.5343 78.3326 67.9352 78.7531C68.0584 78.8825 68.1637 78.8983 68.331 78.9196C68.6134 78.6303 68.347 78.0179 68.455 77.6195C68.5968 77.5218 68.6157 77.5136 68.788 77.5059C68.9795 77.6722 68.9783 77.9935 69.0688 78.2268L69.9866 78.267L69.9659 78.2206C69.954 78.195 69.9417 78.1696 69.9301 78.1439C69.8503 77.9659 69.8004 77.8048 69.6329 77.6898C69.4202 77.5441 69.237 77.4401 69.1074 77.2129L69.1458 77.0782C69.3993 76.8988 69.6148 77.0467 69.8696 76.9505C70.1138 76.8584 70.2175 76.6322 70.2987 76.4034C70.3639 76.2201 70.4485 76.0076 70.3577 75.8346C70.2714 75.8101 70.307 75.8112 70.2169 75.8222C69.9692 75.8527 69.7262 75.9246 69.5065 75.792C69.4809 75.5739 69.5458 75.4893 69.6353 75.2919C69.9309 75.2789 70.2814 75.3083 70.5395 75.1535L70.5489 75.0544C70.4007 75.0038 70.351 74.9845 70.1945 75.0349C70.137 75.0534 70.0842 75.0842 70.0266 75.1022C69.8385 75.161 69.5419 75.1032 69.3806 74.9929C69.2356 74.8938 69.22 74.8107 69.1978 74.6476C69.3878 74.0595 70.1089 73.785 70.4914 73.3316C70.8298 72.9303 71.0787 72.4778 71.4547 72.1028C71.3816 71.9404 71.3073 71.7701 71.2013 71.6256C71.0472 71.4152 70.8092 71.1261 70.5333 71.095C69.9389 71.0278 69.6904 72.0134 69.2579 72.2801C69.1407 72.3521 69.0995 72.3289 68.9726 72.3029C68.6588 71.9292 69.3716 71.4262 69.3401 70.9433C69.3224 70.6709 69.1554 70.5034 68.9591 70.3315C68.9397 70.3144 68.9199 70.2979 68.9001 70.281C68.5416 70.3272 68.2033 70.3964 67.8539 70.4873C67.9236 70.7394 68.007 70.9892 68.084 71.2393C68.3053 71.2792 68.5852 71.2956 68.7691 71.4289L68.751 71.6629C68.6018 71.8658 68.4548 71.8338 68.2328 71.9324C67.6999 72.1691 68.2595 73.0051 68.0953 73.4284C67.8822 73.5068 67.783 73.4394 67.5756 73.3554C67.5929 73.4424 67.6151 73.5378 67.613 73.6265C67.6095 73.7758 67.5846 73.8714 67.4772 73.973C67.0901 73.9344 66.7634 73.4038 66.4328 73.186C66.239 73.1642 66.1839 73.1512 65.9981 73.226L66.8198 73.7007C66.9026 73.8601 66.9819 74.0232 67.0696 74.1799C67.0809 74.1992 67.0918 74.2186 67.1034 74.2376C67.3993 74.7242 68.1912 74.7766 68.0257 75.3026C67.9672 75.4886 67.7911 75.7092 67.6027 75.7787C67.5868 75.7846 67.5697 75.7866 67.5532 75.7904C67.3689 75.5581 67.233 75.2949 67.049 75.0649C66.8553 74.8232 66.6078 74.6146 66.404 74.3769ZM79.9326 66.4182C80.0207 65.909 80.0996 65.1974 79.7699 64.7468C79.7586 64.7314 79.7441 64.7184 79.7312 64.7041C79.6653 65.0948 79.5062 65.959 79.7291 66.2987C79.7888 66.3898 79.8341 66.3838 79.9326 66.4182ZM63.3997 38.1999C63.4751 38.0931 63.4629 38.1495 63.4351 38.0087C63.3788 37.7234 63.1984 37.4284 63.0693 37.1674L62.9414 37.1031L62.9542 37.1045C62.8251 37.0483 62.6932 36.9803 62.5597 36.9365C62.652 37.2797 62.7488 38.1838 63.0548 38.3649C63.1789 38.3187 63.2857 38.2664 63.3997 38.1999ZM46.9651 68.187C46.9739 68.4717 47.0237 68.6446 47.236 68.8467C47.5562 69.1517 48.0171 69.2316 48.4476 69.1987C48.7378 69.1766 48.9663 69.0859 49.214 68.9411C49.3233 68.7933 49.3972 68.7311 49.4131 68.5463C49.1166 68.4778 48.8094 68.5052 48.5066 68.4944C47.9879 68.4762 47.4532 68.3596 46.9651 68.187ZM68.2459 68.2104C68.194 68.0303 68.2005 67.8737 68.003 67.7965C67.8083 67.7202 67.4636 67.7723 67.2542 67.7812C67.3411 67.9402 67.3973 68.1267 67.5932 68.1791C67.7775 68.2282 68.0515 68.2021 68.2459 68.2104ZM68.086 36.3408L67.4221 38.4773L68.0326 37.871C68.343 37.5219 68.6459 37.1596 68.9808 36.8331C68.6874 36.6525 68.4017 36.4819 68.086 36.3408ZM53.9741 77.1985C54.6682 76.9718 55.3803 76.7436 55.7426 76.0531C55.925 75.7058 55.9308 75.2951 55.7941 74.9315C55.5954 74.4033 55.1235 73.973 54.6064 73.7507C54.0888 73.5281 53.6067 73.5532 53.0606 73.5827C52.3744 73.687 51.7451 73.957 51.317 74.5215C50.8985 75.0736 50.6804 75.8571 50.7845 76.5395C50.8906 77.2345 51.2762 77.8223 51.8578 78.2224C52.7173 78.8134 53.6229 78.887 54.6301 78.7006C55.2653 78.583 55.9056 78.4194 56.4979 78.1603C57.885 77.5531 59.537 76.2736 61.0523 77.2944C62.6534 78.3732 62.1237 78.6023 64.2594 78.5161C64.6535 78.5002 65.1558 78.5506 65.5358 78.482C65.6246 78.4659 65.6365 78.4568 65.7082 78.4256C65.4849 78.2447 65.1346 78.2375 64.9629 78.009C65.1283 77.4657 65.9633 77.3041 66.2744 76.8522C66.1283 76.7251 66.0154 76.6646 65.8139 76.6847C65.0385 76.7617 64.4746 77.4763 63.6663 77.5747C63.6408 77.566 63.6151 77.5576 63.5896 77.5486C62.9844 77.3334 62.4559 76.9364 61.9155 76.5984C60.6621 75.8143 59.93 75.7193 58.4943 76.0969C57.829 76.2689 57.1798 76.4969 56.554 76.7783C55.385 77.3057 54.1729 77.9719 52.8574 77.4787C52.4061 77.3095 52.0705 76.9794 51.8772 76.545C51.7798 76.3261 51.7324 76.0917 51.6835 75.8588C51.8604 75.3038 52.0718 74.8881 52.6268 74.6071C53.0424 74.3934 53.53 74.3618 53.9704 74.5201C54.3756 74.6632 54.5999 74.9367 54.8754 75.2425C54.8803 75.9038 54.8721 76.3152 54.3813 76.8111C54.2488 76.9436 54.113 77.0728 53.9741 77.1985ZM62.6638 44.4483C62.8868 44.3431 62.9344 44.3575 63.0309 44.1235C62.9902 43.9869 62.9327 43.8543 62.7862 43.7909C62.7511 43.7756 62.7125 43.7697 62.6757 43.7592C62.5362 43.9014 62.389 44.0078 62.4168 44.2316C62.4264 44.3085 62.447 44.3481 62.4749 44.4161C62.5546 44.4445 62.5795 44.4686 62.6638 44.4483ZM61.9156 49.0111C61.4679 49.1813 60.9818 49.4522 60.6164 49.7592C60.6356 49.8664 60.6106 49.8277 60.6706 49.886C61.1921 49.8499 61.5871 49.6814 61.9363 49.2832C61.9983 49.2128 61.9801 49.1646 61.9848 49.0744L61.9156 49.0111ZM38.0054 75.2468C36.744 74.4159 35.2119 73.3396 33.6169 73.4458C33.2489 73.5234 32.6233 73.6135 32.4122 73.9724C32.3343 74.105 32.321 74.226 32.381 74.3687C32.4851 74.6157 32.8135 74.8636 33.0653 74.9457C33.3536 75.0398 33.6448 74.982 33.904 74.8366C34.2824 74.6245 34.6415 74.057 35.0258 73.9443L35.1022 74.0005C35.114 74.4113 34.8699 74.7874 34.9935 75.1759C35.1181 75.2572 35.2034 75.2625 35.3542 75.2295C35.3665 75.2268 35.3772 75.2197 35.3888 75.2149C36.3658 74.9979 37.0381 75.0443 38.0054 75.2468ZM58.8114 79.9167L58.9055 79.9604L58.9762 79.9099C58.9781 79.6132 58.8559 79.4209 58.6471 79.2135C58.5633 79.1303 58.4865 79.0275 58.3681 79.0061L58.0122 79.0941L57.9675 79.1943C58.1375 79.4946 58.5637 79.6587 58.8114 79.9167ZM52.1373 65.2611C52.0476 65.4195 51.9705 65.6324 52.0066 65.8179C52.0241 65.9082 52.0394 65.9234 52.0808 65.9941C52.2238 66.0092 52.2371 65.9957 52.3653 65.9273C52.4849 65.754 52.6753 65.5481 52.6695 65.3313C52.4897 65.2103 52.3512 65.2542 52.1373 65.2611ZM53.5367 59.3204C53.9436 58.3493 54.091 57.4724 53.8663 56.432C53.8333 56.2791 53.8081 56.031 53.7365 55.8956C53.7195 55.8634 53.6902 55.8391 53.6672 55.8108C53.5317 56.3308 53.3376 56.8806 53.3243 57.4204C53.3088 58.0483 53.4582 58.6648 53.4363 59.2961C53.4692 59.306 53.5028 59.3259 53.5367 59.3204ZM55.7257 56.0247L55.763 56.1721L55.8309 56.1902L55.8478 56.1515L55.7882 56.1054L55.86 56.0879C55.8912 55.3066 55.8213 54.5256 55.8528 53.7459C55.9681 53.5667 56.4457 53.1651 56.4694 53.0266C56.0964 53.123 55.6455 53.1875 55.4452 53.5551C55.1054 54.1784 55.6319 55.3453 55.7257 56.0247ZM67.2493 34.9912C67.1419 35.6041 67.0127 36.1555 66.683 36.6927C65.6538 38.3697 62.3059 40.5022 60.6455 41.657C58.2542 43.2878 55.8524 44.9037 53.4402 46.5044C52.2461 47.2938 50.8527 48.0421 49.7841 48.9807L50.1931 49.419L50.2687 49.3781C51.2613 48.8344 53.0812 47.111 53.9586 46.8675C54.0451 46.9233 54.0868 46.9212 54.1135 47.0253C54.2799 47.6763 52.1996 56.6619 51.6076 57.4886C51.5238 57.6054 51.4392 57.6755 51.3179 57.7514C50.3438 57.6578 49.3017 57.0171 48.3624 56.7216C48.1347 56.9652 47.9108 57.2098 47.6589 57.4299C49.1983 58.2699 50.4589 58.7019 52.1692 59.1464C52.9737 56.3742 53.5411 53.4904 54.1521 50.6701C54.4297 49.389 54.4783 47.8469 55.0953 46.6787C55.7014 46.4721 56.1931 46.3721 56.8078 46.6509C58.048 47.2133 58.7239 48.6943 59.479 49.7363C64.637 46.3576 70.2304 45.0914 76.2305 44.0321C77.7052 43.7718 79.2904 43.3611 80.7805 43.3008C80.589 43.1212 80.4018 42.934 80.1934 42.7736C78.7799 43.0111 77.3439 43.1188 75.926 43.3437C74.1682 43.6225 72.4435 44.0451 70.7241 44.4949C68.1485 45.2553 65.6551 46.0975 63.2211 47.2343C62.708 47.474 60.793 48.5709 60.3969 48.5611C60.037 47.8132 59.8647 47.04 59.328 46.3857C58.8764 45.835 57.7753 45.0817 57.5653 44.4705L57.607 44.3883C57.7837 44.3325 57.9005 44.3268 58.0725 44.407C59.3561 45.0047 60.2849 46.5258 60.7667 47.779C65.6058 45.2219 70.8563 43.5081 76.2868 42.7127C77.303 42.5568 78.376 42.3245 79.4037 42.3412C78.4559 41.7706 77.4724 41.2602 76.5304 40.6812C76.3404 41.1351 76.0806 41.4497 75.7288 41.7922L75.8094 41.7707C76.2981 41.644 77.1537 41.4876 77.6138 41.7325C77.6447 41.7984 77.6758 41.8329 77.6674 41.9063L77.631 41.8361C77.6387 41.93 77.6568 41.9499 77.6055 42.0334L77.5237 41.9559L77.5794 42.0666C77.5184 42.1124 77.4667 42.1739 77.3962 42.2042C77.1277 42.319 76.5342 42.2181 76.2241 42.254C75.1079 42.3831 73.9743 42.5764 72.8776 42.8161C71.0346 43.2026 69.2201 43.7109 67.4463 44.3374C66.5235 44.6779 65.6081 45.0375 64.7005 45.4158C63.8068 45.795 62.3281 46.6293 61.4045 46.7149C60.9891 46.1063 60.7579 45.317 60.2604 44.7704C59.8652 44.3363 59.1886 44.1421 58.8685 43.6304C58.9817 43.3642 59.5523 43.1721 59.8152 43.0662C61.5359 42.3726 64.7531 40.9136 65.9772 39.6178C66.3093 39.2663 66.5316 38.86 66.7197 38.4197C67.1216 37.4791 67.3734 36.485 67.681 35.5127C68.1976 35.7052 69.3251 35.9815 69.5797 36.4725C69.6851 36.6758 69.6091 36.8661 69.5266 37.0627C69.5108 37.1003 69.4947 37.1377 69.478 37.175L69.5855 37.1654C70.9396 37.0568 72.2954 37.3538 73.4756 38.0176C73.7964 38.2003 74.0781 38.4423 74.3967 38.6278C74.5697 38.7287 74.6823 38.7843 74.858 38.6718C74.8251 38.4112 74.7242 38.2808 74.5127 38.1152C74.1141 37.8029 73.6384 37.6906 73.1864 37.4826C72.1881 37.0229 71.2063 36.5388 70.1851 36.1281C69.2115 35.7367 68.2059 35.4229 67.2493 34.9912ZM55.0977 82.3121C54.7905 82.6041 54.6626 82.6503 54.2364 82.6505C55.0318 83.3404 55.8985 84.066 57.0345 83.9736C57.5597 83.931 58.0304 83.7196 58.3721 83.3181C58.77 82.851 58.9436 82.1847 58.8631 81.5835C58.7651 80.8512 58.3062 80.2411 57.7091 79.8205C56.9509 79.2866 56.2594 79.2144 55.3491 79.2463C55.6464 79.9469 55.617 80.571 55.5397 81.3136C55.528 81.4263 55.4755 81.6503 55.497 81.7549C55.5608 82.0658 56.1143 82.5683 56.3906 82.6916C56.6431 82.8041 56.9157 82.802 57.1722 82.7015C57.6577 82.5111 57.8591 82.1638 58.4294 82.2005L58.534 82.2655C58.5447 82.4648 58.4639 82.589 58.3277 82.7393C57.9434 83.1636 57.6195 83.3168 57.047 83.3315C56.4102 83.3479 55.9701 83.1945 55.5033 82.7479C55.3601 82.6108 55.2288 82.4604 55.0977 82.3121ZM36.7996 48.4371L36.7956 48.651C36.9835 48.8183 37.2591 48.8542 37.5034 48.8446C38.4556 48.8067 39.5352 48.1192 40.1492 47.4259C40.7482 46.7495 41.4099 45.7805 41.3911 44.8386C41.3902 44.7994 41.3814 44.7516 41.3756 44.7142L41.2595 44.7064C40.4947 44.8953 39.0206 44.9646 38.4332 45.3858C38.3973 45.4613 38.3477 45.5068 38.3811 45.5911C38.4547 45.7768 38.6554 45.8792 38.8353 45.9418C38.9782 45.9906 39.1214 46.0382 39.2652 46.0843C38.5508 47.1716 37.4988 46.7512 36.7996 48.4371ZM77.8078 53.0508C78.0108 53.2232 78.1609 53.3663 78.4294 53.4293C78.3189 53.0937 77.7501 52.7946 77.5134 52.5113C77.8153 52.366 78.2864 52.1973 78.4912 51.9232L78.5028 52.0077L78.4133 51.8436C78.0636 51.9897 77.7594 52.2111 77.4 52.3335C77.3083 52.0625 77.2427 51.6497 77.0218 51.4692C76.8961 51.7783 77.0336 52.0526 77.0138 52.3809C76.8134 52.4555 76.3008 52.5305 76.19 52.6811L76.2361 52.7881C76.5117 52.82 76.7693 52.5925 77.0182 52.6576C77.1164 52.8111 77.1247 52.8803 77.0828 53.06C77.0284 53.2937 76.9038 53.54 76.8186 53.7663L76.908 53.8249L77.0289 53.7862C77.1357 53.4961 77.1724 53.1124 77.368 52.8717L77.5213 52.8186C77.636 52.8861 77.7153 52.956 77.8078 53.0508ZM48.1136 41.2497C48.2497 40.752 48.4478 40.2867 48.6042 39.7978C47.6384 40.5261 47.076 41.5613 45.9903 42.1872C45.6507 43.2868 45.9656 44.6457 46.5079 45.6387C47.1009 46.7239 48.2692 47.8325 49.3654 48.4188C52.6775 46.3139 55.9691 44.1267 59.2038 41.9074C60.0675 41.3107 60.9265 40.7073 61.7807 40.0975C62.4106 39.6417 63.0155 39.149 63.6995 38.7729C63.3787 38.874 62.9612 39.0615 62.6388 38.886C62.2816 38.6914 62.1769 37.7895 62.0882 37.4106C61.7863 38.0438 60.9941 40.1614 60.3566 40.3846C60.2174 40.4333 60.1047 40.4206 59.9721 40.3607C59.6046 40.1949 59.3213 39.7733 58.9449 39.5676C57.8945 40.4268 56.3813 41.7138 54.8897 41.5281C54.6951 41.504 54.5002 41.4507 54.3105 41.4021C53.8953 41.5049 53.3247 42.2499 52.9659 42.5372C52.7176 42.736 52.4376 42.8902 52.1566 43.0392C52.4711 43.2707 52.815 43.4923 53.0716 43.7868C53.5811 43.7717 54.1496 43.6775 54.5864 43.9808C54.6504 44.1299 54.6808 44.1983 54.6193 44.3558C54.484 44.7019 54.0281 45.1452 53.7242 45.3664C53.2276 45.2965 52.7256 45.2075 52.2239 45.1903C51.7551 44.7556 51.3058 44.3916 50.7324 44.1002C50.7226 44.3806 50.7163 44.6613 50.7136 44.9419C50.1702 45.6364 49.8336 46.2624 49.5253 47.0815C49.015 46.8346 48.4611 46.6088 47.9886 46.2984C47.9761 46.0132 47.9552 45.7261 47.9667 45.4408C47.3156 45.2479 46.5052 44.7367 46.1738 44.1386C46.1085 44.0206 46.1041 43.9362 46.1131 43.805C46.2385 43.5909 46.3875 43.4573 46.6367 43.3974C46.7309 43.3748 46.8273 43.3668 46.9233 43.3543C47.2027 43.3179 47.367 43.2508 47.5387 43.0229C47.907 42.5339 47.9999 41.8336 48.1136 41.2497ZM46.7466 69.1776C46.6802 69.2585 46.4179 69.5325 46.4279 69.6187C46.4421 69.7411 46.514 69.8532 46.5705 69.9611C46.5569 70.2046 46.4285 70.6873 46.5352 70.8885C46.6505 70.8888 46.7229 70.8767 46.8302 70.8347C47.0566 70.6035 47.431 70.2901 47.4174 69.9439C47.4091 69.7317 47.2428 69.5635 47.0826 69.4442C46.965 69.3565 46.8465 69.2862 46.7466 69.1776ZM80.7021 47.5619C80.6331 47.9133 80.635 48.262 80.631 48.6186C80.3633 48.5284 80.0165 48.3733 79.7374 48.4846C79.7152 48.4934 79.6954 48.5069 79.6744 48.5181L79.761 48.4798L79.7803 48.6342C80.0088 48.6813 80.3816 48.6689 80.5273 48.8361C80.4841 49.1833 80.1623 49.4024 80.0943 49.7446L80.1649 49.7897C80.4213 49.5826 80.5244 49.1121 80.7924 48.9917C80.8567 49.0347 80.9247 49.0745 80.9824 49.1261C81.1596 49.3743 81.318 49.6048 81.5639 49.7941L81.6125 49.734C81.4811 49.3595 81.2179 49.0924 80.979 48.783C81.267 48.7172 81.5396 48.6707 81.7921 48.5113L81.7874 48.4343C81.4965 48.3912 81.2041 48.4808 80.9198 48.5407C80.9257 48.2648 80.9897 47.827 80.769 47.6197C80.7475 47.5995 80.7245 47.5812 80.7021 47.5619ZM58.553 75.4477C59.1755 75.3612 59.84 75.156 60.44 75.3797L60.5285 75.311C60.5019 75.1971 60.4661 75.1248 60.404 75.0281C60.3112 74.8833 60.1853 74.4404 60.0769 74.3611C60.0541 74.3746 60.0315 74.3883 60.0086 74.4016C59.4029 74.7521 58.2653 74.6164 58.0427 74.933C58.034 75.1082 58.0602 75.2247 58.1792 75.3569C58.2263 75.4094 58.2857 75.4494 58.3426 75.4905L58.553 75.4477ZM64.2618 74.055C63.9978 74.702 63.6935 75.6481 64.005 76.3328C64.0872 76.5134 64.2014 76.5601 64.3823 76.621C64.5326 76.5682 64.6419 76.5053 64.7741 76.4199L64.8734 76.3367C64.6806 76.0421 64.4832 75.8344 64.2135 75.6064C64.1572 75.0616 64.9871 74.6293 64.4079 74.1564C64.3616 74.1186 64.3136 74.0851 64.2618 74.055ZM76.4203 55.6029C76.2297 55.8237 76.249 56.4986 76.0094 56.516C75.7012 56.5383 75.4375 56.2719 75.1164 56.3306L75.0767 56.4102C75.3029 56.672 75.9012 56.5311 75.9224 56.9275C75.7262 57.2117 75.5409 57.4975 75.3649 57.7941L75.3832 57.863C75.7024 57.5886 75.92 57.2124 76.254 56.9734L76.2991 57.0341C76.4888 57.2951 76.7252 57.9901 77.0195 58.0607C76.9863 57.6677 76.4643 57.219 76.4842 56.8712C76.744 56.7011 77.4568 56.8277 77.5543 56.5555L77.4634 56.6718L77.5549 56.5739C77.2783 56.4493 76.5224 56.6828 76.4723 56.4932C76.3987 56.2152 76.523 55.8939 76.4203 55.6029ZM33.6711 70.9214C33.9173 71.0896 34.2396 71.2669 34.3016 71.5693C34.1462 71.8459 33.7912 71.9324 33.6836 72.2109C34.1226 72.8739 35.2399 73.091 35.9507 73.376C36.3569 73.539 36.75 73.7353 37.1389 73.9346L37.4066 74.0676L37.4702 74.0234C37.0747 73.1444 35.1501 71.3182 34.2423 70.9943C34.0531 70.9268 33.8712 70.9046 33.6711 70.9214ZM53.3478 47.8992C52.4241 48.738 51.6418 49.115 50.7276 49.8202C50.6093 49.9114 50.5277 49.9682 50.4916 50.1124L50.5997 50.2159C51.1819 50.1601 52.0956 48.7952 52.702 49.0186C52.931 49.9336 51.4698 55.6265 51.0496 56.5773C50.8588 56.6781 50.7879 56.6438 50.5778 56.5838C50.1327 56.4564 49.255 55.9224 48.8371 56.0807C48.8892 56.2351 49.0374 56.2787 49.1808 56.3475C49.7891 56.6391 50.4578 56.8439 51.0999 57.0504C51.9628 55.4541 53.055 49.9337 53.3918 47.9416L53.3478 47.8992ZM45.4396 61.964C45.0294 62.6562 44.4799 63.2467 43.9986 63.889C43.9883 64.1043 43.9752 64.3201 43.9723 64.5358C44.3715 64.5399 44.7699 64.5525 45.1671 64.5067C45.6908 64.273 46.1348 64.0536 46.3682 63.4954C46.4759 63.2376 46.5399 62.9424 46.601 62.6702C46.3471 62.4079 46.0181 61.9774 45.6281 61.9626C45.5654 61.9602 45.5024 61.9625 45.4396 61.964ZM46.9001 33.7923C46.3768 33.8849 45.8636 33.8307 45.3425 33.8898C44.63 34.5134 44.1707 35.326 43.5896 36.0579C43.9005 35.9374 44.1877 35.8394 44.5174 35.7778C45.0347 35.6824 45.5476 35.612 46.0711 35.5579C46.6006 34.9197 47.1497 34.3249 47.7579 33.7571C47.4686 33.7477 47.1831 33.7227 46.9001 33.7923ZM79.7283 66.658C79.7212 66.6774 79.7136 66.6967 79.7067 66.7162C79.5586 67.1412 79.529 67.6081 79.4605 68.051C79.3438 68.8068 79.085 69.4614 78.7295 70.1386C78.5636 70.4545 78.361 70.813 78.0248 70.9754C77.9405 71.0162 77.8571 71.0265 77.765 71.0348C77.6612 70.9471 77.6655 70.9308 77.655 70.7996C77.584 69.9118 77.983 69.1492 77.1726 68.4144C76.9213 68.1864 76.6128 68.1048 76.2947 68.0092C76.9857 68.7762 77.4671 69.301 77.3967 70.3973C77.3671 70.8566 77.252 71.2961 77.1294 71.7382C76.818 72.7426 76.4438 73.6977 75.8746 74.5889C77.52 73.4041 79.5192 69.5606 79.8418 67.5592C79.8849 67.2921 79.9615 66.9228 79.7771 66.6977C79.7639 66.6816 79.7445 66.6713 79.7283 66.658ZM78.3941 64.4982L78.3853 64.5873C78.3323 65.1651 78.7998 65.9889 78.5373 66.4742C78.3939 66.5323 78.3137 66.54 78.1671 66.473C77.538 66.1856 77.0132 65.6809 76.3644 65.4214L76.3097 65.4826C76.698 66.368 78.5059 67.01 78.2911 67.799C78.1739 67.8784 78.1503 67.9201 78.0025 67.8883C77.6235 67.8066 77.1974 67.2252 76.8538 66.9973C76.6029 66.8204 76.4209 66.6561 76.0913 66.7086C75.9607 66.7295 75.9272 66.7635 75.8225 66.8445C75.8275 66.982 75.8272 67.0062 75.9395 67.1038C76.0967 67.2403 76.3487 67.3091 76.5439 67.3801C77.8166 67.8431 78.0939 68.1648 78.3043 69.4908C78.8915 68.4221 79.3335 66.0897 78.9807 64.9261C78.924 64.739 78.8368 64.6455 78.6788 64.5349L78.3941 64.4982ZM87.0073 55.2535C85.984 55.8129 85.1662 56.5783 84.8327 57.7167C84.6454 58.3562 84.6433 58.9543 84.7057 59.6121L85.2101 59.0841C85.5032 58.5504 85.6808 57.9646 86.0453 57.4662C86.4888 56.8596 88.0503 56.0434 87.9371 55.2985C87.8332 55.1958 87.6548 55.2126 87.5108 55.2124C87.3449 55.2122 87.1723 55.2367 87.0073 55.2535ZM51.4647 63.058C50.8784 63.1109 50.1433 63.1053 49.719 63.576C49.3184 64.0206 49.0838 65.0138 49.1232 65.5988C49.1429 65.8902 49.328 66.1065 49.5569 66.2778C50.1245 66.7027 51.0281 66.8158 51.1874 67.6291C51.197 67.6786 51.2026 67.7285 51.2087 67.7785C51.3409 67.759 51.3217 67.7588 51.412 67.6798C51.6212 67.5031 51.9409 67.2982 51.9705 67.0141C51.3852 66.4129 49.6709 66.1893 49.7538 65.0496C49.7722 64.7975 49.9387 64.5827 50.1331 64.4304C50.5336 64.1165 51.5755 64.0546 51.6708 63.5223C51.693 63.3981 51.6486 63.2485 51.6225 63.126L51.5161 63.0451L51.4647 63.058ZM49.5079 69.5418C49.0244 69.699 48.5227 69.7625 48.0155 69.7902C47.97 70.1808 47.8498 70.4873 47.684 70.8418C47.9635 71.6013 48.2725 71.8206 48.9813 72.1825C49.4584 72.2018 49.7675 72.0924 50.1832 71.8894L50.6527 71.1949C50.203 70.8847 49.6957 70.5448 49.5937 69.9731C49.5694 69.8367 49.5529 69.6984 49.5379 69.5607L49.5079 69.5418ZM61.0365 72.5999C60.8489 73.2668 60.5305 74.0915 60.8999 74.7472C61.0934 75.0864 61.4227 75.3296 61.8072 75.4175C62.1157 75.4879 62.5193 75.4694 62.784 75.2806C62.8674 75.2213 62.938 75.1469 63.0087 75.0741C63.234 74.8069 63.6033 74.3756 63.5944 74.0142C63.5919 73.9186 63.5842 73.908 63.5609 73.8261C62.7334 73.3959 61.8692 73.0255 61.0365 72.5999ZM62.6663 48.9758C62.5851 49.391 62.3861 49.8753 62.0126 50.1159C61.4363 50.4875 60.738 50.2549 60.1332 50.4765C59.5289 50.6978 59.1279 51.3056 58.5494 51.4713C58.0208 51.6227 57.3979 51.6254 56.8496 51.6686C56.497 51.6964 55.8836 51.6566 55.5986 51.8665C55.8937 52.07 56.2276 52.212 56.5513 52.3654C57.0524 52.5343 57.5009 52.554 58.0261 52.5492L58.1057 52.5062C58.5625 52.2557 58.9556 51.9157 59.3655 51.5992C60.2618 50.9069 61.1829 50.9312 62.2582 50.7676C62.8714 50.3214 63.1287 49.6383 63.5414 49.0309L62.6663 48.9758ZM51.886 50.1178L50.6892 50.8877C50.7029 52.7279 50.2755 53.8503 49.4024 55.4431C49.5548 55.5675 49.7013 55.6243 49.8858 55.6922L50.6287 55.9878C50.9125 54.9958 52.0709 50.9767 51.9445 50.1748L51.886 50.1178ZM51.4714 68.3829C51.0116 68.5434 50.5665 68.7084 50.1278 68.9194C50.1327 69.272 50.1297 69.6223 50.1891 69.9711C50.3605 70.1808 50.5258 70.3925 50.7243 70.5785C51.2676 70.7408 51.723 70.7623 52.2866 70.7359C52.815 70.461 53.193 70.0693 53.3895 69.5046C53.4287 69.3919 53.4526 69.2733 53.4748 69.1564C52.9973 68.9595 51.9448 68.3391 51.4714 68.3829ZM78.7392 62.1286C78.4783 62.1585 78.2381 62.1883 77.9885 62.2757L77.9303 62.3525C78.103 62.6058 78.6669 62.7726 78.9479 62.9083C80.9084 63.8555 80.7341 66.0611 80.3779 67.8428C80.1986 68.7393 79.9111 69.6333 79.5052 70.4561L79.5181 70.5952C79.8667 70.4036 80.7749 68.3984 80.9051 67.9376C81.0951 67.2646 81.1565 64.7047 81.0603 63.9576C81.0169 63.6208 80.9323 63.2893 80.7516 62.9965C80.4789 62.5551 80.032 62.302 79.5258 62.2004C79.2713 62.1493 78.9979 62.1339 78.7392 62.1286ZM84.839 67.928C82.8101 68.9328 82.0039 71.5015 80.6726 73.2038C82.3756 72.071 82.1639 71.3278 84.4449 70.6483C84.7681 70.4814 85.0958 70.3596 85.22 69.9939C85.2166 69.7662 85.1609 69.6429 84.9916 69.4839C84.9281 69.4241 84.8608 69.3684 84.7936 69.3127C84.4818 69.594 83.4098 70.8003 83.0439 70.8083C82.9549 70.6934 82.9483 70.6712 82.9674 70.5188C83.0317 70.0063 83.6633 69.3672 84.0759 69.073C84.3376 68.8865 84.6285 68.7765 84.9551 68.8243C85.3547 68.8831 85.6208 69.2003 85.8589 69.494L86.4187 69.1239C86.1365 68.5963 85.9094 68.1368 85.2797 67.9665C85.1347 67.9274 84.9883 67.9258 84.839 67.928ZM54.0619 69.4529C53.7564 70.1376 53.3928 70.8083 53.6749 71.5721C53.8183 71.9599 54.1251 72.2585 54.505 72.424C54.9042 72.5981 55.4204 72.642 55.8282 72.4713C55.972 72.4111 56.1113 72.3245 56.2458 72.2463C56.671 71.8565 56.864 71.353 57.0973 70.8407C56.2163 70.2701 55.0449 69.8398 54.0619 69.4529ZM52.7954 59.1397C52.6998 59.3677 52.643 59.5866 52.4154 59.7154C52.1029 59.7888 51.7669 59.6277 51.466 59.5394C51.4227 60.1515 51.3048 60.6482 50.8222 61.0791C50.2895 61.5546 49.6027 61.8202 49.1328 62.3744C48.9219 62.6231 47.6045 65.8549 47.5771 66.2359C47.5705 66.3281 47.5861 66.3959 47.6217 66.4804C48.2894 67.1276 49.3058 67.0369 49.8091 67.9606L49.9492 68.1892C50.2503 68.139 50.4472 67.8394 50.6454 67.6204L50.5811 67.5779C49.8774 67.1217 48.8046 66.8642 48.579 65.9448C48.4207 65.2996 48.7235 63.8768 49.0909 63.3339C50.0326 61.943 52.4132 61.8071 52.7475 59.8042C52.7776 59.6239 52.8482 59.3674 52.8113 59.1883C52.8078 59.1716 52.8007 59.156 52.7954 59.1397ZM55.0321 52.2649C54.4476 52.9802 53.9463 53.477 54.0483 54.474C54.1052 55.0301 54.3015 55.5736 54.4221 56.1187C54.804 57.8442 54.4722 59.2949 53.3462 60.6687C52.7693 61.3726 51.9692 62.0704 51.1865 62.5426C51.529 62.4479 51.878 62.3614 52.2155 62.2507C53.4731 61.8019 54.3575 60.8201 54.9204 59.6371C55.6875 58.0249 55.2555 56.5435 54.8724 54.8999C54.7928 54.5586 54.6516 54.127 54.6854 53.7773C54.7352 53.2625 55.3945 52.8873 55.4032 52.4853C55.2817 52.4051 55.1646 52.3267 55.0321 52.2649ZM40.7555 47.7009C39.8625 48.712 38.7861 49.3248 37.4225 49.4136C37.2774 49.4226 37.1322 49.4294 36.9869 49.4338C36.6913 49.7219 36.1038 50.3539 36.0779 50.7729C36.0765 50.7957 36.081 50.8184 36.0828 50.841C36.2331 50.9238 36.3311 50.8992 36.496 50.8547C36.8459 50.7602 37.1968 50.5549 37.5627 50.5551L37.679 50.6484C37.687 50.7942 37.6882 50.8828 37.5828 50.9979C37.3433 51.2595 36.7579 51.4048 36.4236 51.5011C36.2602 51.5163 36.1136 51.4929 35.9954 51.6209C35.8788 51.747 35.8039 51.9498 35.7303 52.1037C35.9302 52.3185 36.1357 52.7093 36.4455 52.7159C37.1906 52.7319 38.2233 51.6641 38.6751 51.1662C39.2596 50.5222 40.8755 48.5953 40.7699 47.7563C40.7676 47.7374 40.7603 47.7194 40.7555 47.7009ZM45.0956 55.9843C44.294 56.1357 43.4906 56.305 42.6833 56.4229C42.671 58.2079 42.7622 60.0172 42.7019 61.7976C42.9659 61.9085 43.3602 61.8554 43.6467 61.8527C44.0327 60.827 44.1399 59.6446 44.4034 58.5769C44.5379 58.0324 45.1591 56.4096 45.0956 55.9843ZM39.6234 55.8872C40.277 57.8088 40.8377 59.8423 41.1009 61.8553L42.1334 61.8612L42.1304 56.3572C41.3034 56.33 40.4301 56.0708 39.6234 55.8872ZM40.0633 50.5107C39.4225 51.2606 38.7781 52.1205 37.9579 52.6893C37.6113 52.9296 37.1581 53.048 36.8383 53.3159L36.8824 53.3933C37.0772 53.4323 37.1564 53.418 37.289 53.5697C37.2814 53.7698 37.1657 53.9146 37.0212 54.0472C36.6956 54.3456 36.3338 54.5869 36.0346 54.9154C36.3294 55.0868 36.6273 55.2438 36.8683 55.4871C36.9985 55.8179 37.0588 56.1738 37.133 56.5199C38.0259 56.0656 38.9392 55.486 39.2568 54.4857C39.3295 54.2563 40.1184 50.7748 40.1195 50.6395C40.1195 50.6372 40.074 50.5225 40.0736 50.5215C40.0714 50.5172 40.0667 50.5143 40.0633 50.5107ZM80.6165 57.0888C80.1245 57.1655 79.5012 57.2011 79.0967 57.5032C79.0689 57.6044 79.0356 57.6241 79.0944 57.7204C79.6128 58.5687 81.6269 58.0524 82.252 60.9295C82.3726 61.4848 82.4661 62.1373 82.3737 62.7032C82.3329 62.9529 82.271 63.1755 82.0602 63.3313C81.9598 63.306 81.9479 63.3242 81.8863 63.2314C81.3663 62.4462 82.1878 60.973 80.9511 59.6152C80.7699 59.4164 80.5125 59.1697 80.2437 59.0961C80.1265 59.064 80.0192 59.0671 79.9104 59.1293C79.7563 59.2173 79.689 59.4034 79.6265 59.5566C79.9879 60.345 81.1761 60.5971 81.5967 61.4347C81.5662 61.6546 81.5772 61.7157 81.425 61.8868C81.2424 61.8951 81.1973 61.8596 81.0623 61.7392C80.7864 61.493 80.49 61.0462 80.085 61.0236C79.9312 61.015 79.7938 61.0908 79.6795 61.1822C79.6418 61.342 79.5982 61.4807 79.6357 61.6451C79.7815 61.7766 80.1076 61.7455 80.3028 61.8054C81.3608 62.1298 81.6224 63.3849 81.6665 64.3361C81.6921 64.888 81.6821 65.4443 81.6812 65.9968C82.3018 64.3751 83.4516 60.1638 82.7281 58.5416C82.4571 57.9341 81.9037 57.3915 81.264 57.1663C81.0636 57.0959 80.827 57.0333 80.6165 57.0888ZM63.0644 84.2514C61.2145 84.523 59.3442 84.6353 57.4747 84.5871C56.5512 84.5582 55.6382 84.4273 54.7127 84.4252C54.7143 84.9454 54.7091 85.4667 54.718 85.9869C57.538 85.9976 60.3732 86.0521 63.1918 85.987C63.1829 85.6134 63.2521 84.5191 63.1196 84.2495L63.0644 84.2514ZM40.1031 55.4082C40.7626 55.5768 41.4523 55.7463 42.1321 55.8059C42.1346 54.4636 42.2406 45.192 42.1114 44.7957C42.1105 44.7932 42.0356 44.687 42.0349 44.6861C42.0309 44.6809 42.0249 44.6776 42.0199 44.6734C41.8349 45.9957 41.4879 47.3093 41.1876 48.611L39.6297 55.3328L40.1031 55.4082ZM78.8319 77.2365C77.1295 77.4852 75.6744 78.8797 74.1346 79.607C72.4978 80.3801 70.8118 81.0866 69.1281 81.7538C67.7801 82.2879 66.456 82.7568 65.1592 83.4149C66.1744 83.1897 67.164 82.9445 68.1425 82.5927L68.2409 82.5653C69.8662 82.1039 71.3052 81.234 72.9901 80.8951C74.9315 80.5047 76.3242 81.6617 78.1162 80.391C77.5688 80.1939 76.7547 80.167 76.3167 79.7931L76.304 79.7066C76.5267 79.5337 77.04 79.5004 77.3156 79.537C77.6907 79.5868 78.0707 79.6605 78.4392 79.7437C78.9392 79.4676 79.5363 78.9654 79.7119 78.4101C79.7828 78.1858 79.7851 77.9399 79.6695 77.7298C79.5311 77.4784 79.2516 77.3243 78.9764 77.2594C78.9208 77.2464 78.8921 77.2444 78.8319 77.2365ZM73.1894 41.8689C70.4697 42.2718 67.9316 43.0133 65.3699 43.9921C64.3407 44.3854 63.2979 44.9635 62.2379 45.2397C61.9191 44.7665 61.6744 44.2736 61.4822 43.738L61.5855 43.6929C62.5345 43.2714 65.5991 41.1279 66.2532 41.0852C66.672 41.5518 66.8287 42.2116 67.2366 42.7C68.7188 42.2252 70.1505 41.769 71.6922 41.5155C71.7957 41.4986 71.8198 41.5232 71.8752 41.4357L71.911 41.3792L71.8846 41.006C71.9975 40.9332 72.0113 40.9375 72.1407 40.9646C72.37 41.0128 72.5615 41.2528 72.7135 41.4133C73.5502 41.1366 74.2483 41.2867 75.0372 41.626C75.423 41.2288 75.7746 40.8832 76.0175 40.3815C75.2112 39.892 73.3868 38.5278 72.7017 38.2613L72.6336 38.3365C72.4246 38.5646 72.2522 38.703 71.9706 38.8436C71.8887 38.8846 71.8079 38.9268 71.7257 38.9672C71.6983 39.1056 71.7115 39.1984 71.7333 39.3344C71.8195 39.8752 71.743 40.4439 71.5698 40.9604C71.0895 41.4568 70.5696 41.7032 69.8645 41.7209C69.2644 41.736 68.6727 41.5857 68.2255 41.1723C67.693 40.6797 67.5219 40.0377 67.4266 39.3529C65.1114 41.1882 62.6668 42.6622 59.8715 43.667C60.7857 44.2103 61.3142 45.194 61.7926 46.0954C64.5339 44.597 67.5946 43.5506 70.6144 42.7496C71.0988 42.6211 74.007 42.065 74.143 41.9477C73.8507 41.8073 73.5047 41.7665 73.1894 41.8689ZM83.2991 57.3032C83.1579 57.3778 83.0443 57.3982 82.9801 57.5481C83.1425 57.8517 83.3475 58.1809 83.4251 58.5176C83.8431 60.3304 83.1503 63.6809 82.5946 65.4463C82.3325 66.2791 81.9837 67.0915 81.6424 67.8951C80.2984 71.0593 78.9985 72.5501 76.6542 75.011C75.206 76.531 73.7 77.9654 72.0147 79.2335C71.2002 79.8465 70.3317 80.3613 69.4955 80.9401C72.7678 79.8461 75.9684 76.2579 78.2129 73.7264C78.639 73.2458 79.3793 72.1635 79.7652 71.8235C79.9067 71.6989 80.0102 71.7118 80.1888 71.7212C80.2606 71.7771 80.3156 71.788 80.3243 71.8862C80.3862 72.573 77.6917 75.2999 77.1386 75.8707C76.198 77.0965 75.0054 77.9888 73.8887 79.0378C77.4425 77.2241 78.9137 74.6396 81.0019 71.478C81.8512 70.1923 82.752 69.0129 83.2279 67.5362C83.7872 65.8011 84.2469 64.0291 84.8317 62.3032C85.1211 61.4495 85.7565 60.5137 85.8188 59.6175L85.7596 59.5573C85.3733 59.696 85.1697 60.0747 85.0035 60.4234C84.0181 62.4912 83.542 67.3561 82.1309 68.813L82.0149 68.8421C81.9016 68.6865 81.9314 68.4266 81.9591 68.2457C82.0695 67.5255 82.4611 66.7542 82.6871 66.0489C83.3843 63.8726 84.0144 61.6015 84.0824 59.3095C84.0971 58.8129 84.1603 58.1116 83.8691 57.6844C83.7325 57.4838 83.5192 57.3891 83.2991 57.3032ZM75.0874 59.6134C74.4345 59.7895 74.0458 60.4036 73.7275 60.9568C73.1243 62.0058 72.4548 63.8264 71.1682 64.1751C70.5073 64.3543 69.7754 64.1206 69.1443 63.9285C67.8363 64.2138 66.8361 65.0994 65.7068 65.7522C66.3857 65.9397 67.0504 66.1725 67.7184 66.3939C68.6284 66.0959 69.7596 66.224 70.7158 66.2328C72.4004 66.2298 74.0895 66.1219 75.7749 66.0773C75.6919 65.7694 75.5428 65.3577 75.7577 65.0675C75.8652 64.9226 75.9982 64.8571 76.1757 64.8427C76.7033 64.7997 77.2859 65.1291 77.7569 65.3405L77.7892 64.3304L77.8467 64.2598C77.9846 64.0919 78.1923 63.8203 78.4272 63.803C78.752 63.7788 79.0424 64.1036 79.3479 64.0447C79.106 63.4264 77.6907 63.2452 77.3511 62.7115C77.2755 62.5928 77.3015 62.4158 77.3126 62.2869C77.3659 61.6679 76.7295 60.9856 76.3441 60.5418C75.9817 60.1247 75.6264 59.7908 75.0874 59.6134ZM34.8503 56.9166C34.4619 57.1663 34.1435 57.5002 33.8297 57.8342C33.8207 58.9457 33.7715 60.0749 33.8177 61.1847C33.8305 61.4933 33.9852 62.3062 33.9201 62.5503C33.904 62.6103 33.8665 62.6627 33.8397 62.719L33.6803 62.8237C33.4925 62.7754 33.4557 62.71 33.356 62.548C32.7329 61.534 32.8192 60.1265 31.5924 59.5417L31.3813 59.4394C31.9463 61.2822 32.8032 62.9595 33.6343 64.6958L35.9952 69.7009C36.4897 70.7496 37.0729 72.3678 37.6867 73.2599C38.3264 74.1895 39.2238 75.0825 40.0011 75.9029C40.4508 76.3775 40.9586 76.8443 41.2933 77.4086C41.3938 77.578 41.4969 77.745 41.4547 77.9442C41.25 77.9848 41.1045 77.9004 40.9326 77.7875C40.4061 77.4417 40.1098 77.1023 39.4163 77.2177C38.7782 77.3239 38.0252 77.8102 37.6615 78.3453C37.5633 78.4899 37.5382 78.5773 37.5481 78.7485L37.6217 78.8031C37.9875 78.6849 38.2737 78.3053 38.6758 78.1604C39.9567 77.699 41.5432 78.0639 42.8255 78.3553L42.7691 78.2885C42.0784 77.4759 41.1546 76.8374 40.5561 75.9547C39.1697 73.91 37.75 68.2625 37.8159 65.7537C38.2575 65.0767 38.8599 64.4537 39.3848 63.8347C38.7787 63.8148 38.0988 63.7938 37.6114 64.2183C37.3845 64.4159 37.2735 64.7065 37.2787 65.0024C37.282 65.188 37.3659 65.3798 37.4352 65.5499C37.4337 65.5696 37.4324 65.5892 37.4305 65.609C37.4153 65.7697 37.4021 65.9156 37.2621 66.0246C37.2082 66.0666 37.1521 66.0866 37.0906 66.1128C36.9619 66.0626 36.9374 66.0598 36.885 65.9231C36.6827 65.3963 36.7449 64.2586 36.9954 63.7535C37.2818 63.176 37.7823 62.7597 38.3152 62.4104C38.3955 62.2439 38.3864 62.1482 38.3632 61.9732L38.2947 61.9416C37.9169 62.2733 37.5182 62.8259 36.9932 62.8214L36.8755 62.7307C36.8811 62.1494 37.9513 61.6643 37.8245 61.1438C37.5014 61.2045 37.2255 61.5519 37.0328 61.7978C36.8741 61.8502 36.8476 61.8524 36.6842 61.818C36.61 61.6866 36.6167 61.6125 36.6598 61.4711C36.9902 60.39 38.354 59.4335 38.5328 58.434L38.4813 58.3731C37.8033 58.7177 36.9087 60.1392 36.6681 60.8705C36.5783 61.1433 36.457 61.4492 36.4236 61.7351C36.3642 62.2436 36.5671 63.166 36.2657 63.5828C36.1127 63.551 36.1125 63.5181 36.0311 63.3917C35.612 62.7415 35.7833 61.8101 35.9516 61.0966C36.2977 59.6295 37.3735 58.6005 38.3062 57.4876C37.7742 57.2504 37.1508 57.0149 36.5677 57.2233C36.1826 57.361 35.9655 57.6928 35.8128 58.0497C35.3742 59.0752 35.3598 60.1118 35.3735 61.2032C35.4122 64.27 35.8658 66.1529 37.0623 68.9723C37.5146 70.0381 38.3675 71.4378 38.5041 72.5526L38.4802 72.4915L38.4742 72.6878C38.0666 72.554 37.7132 71.8384 37.5285 71.4776C35.7615 68.0263 34.8399 65.1443 34.7966 61.263C34.7851 60.2328 34.7816 59.2243 35.1237 58.2357C35.244 57.8882 35.39 57.5467 35.5302 57.2064C35.3234 57.1004 35.0833 56.9405 34.8503 56.9166ZM40.6377 63.6516C39.9631 64.0878 38.6122 65.3425 38.4271 66.1242C38.1508 67.2903 39.2908 71.5886 39.9778 72.5847C40.669 73.587 41.6456 74.2009 42.786 74.5993C42.8652 74.3444 42.9479 74.154 43.178 73.9981C43.514 73.7704 44.0085 74.0019 44.375 73.6433C44.011 73.4979 43.4232 73.6104 43.0717 73.7558C42.8802 73.835 42.8226 73.904 42.6141 73.8343C42.5535 73.7042 42.4876 73.5747 42.5446 73.4275C42.6009 73.2818 42.6866 73.1907 42.8372 73.1447C43.6727 72.8893 44.5349 73.1053 45.4011 72.805C45.4876 72.4935 45.5963 72.1839 45.4373 71.8742C45.3382 71.681 45.1353 71.5582 44.9292 71.5023C44.0516 71.2645 42.5637 71.641 41.8211 71.1436L41.7921 71.0346C41.9311 70.857 42.1402 70.772 42.3645 70.7422C42.6244 70.7076 42.9272 70.8387 43.185 70.8801C43.7794 70.9755 45.4627 71.0533 45.8806 70.5581C45.982 70.4377 46.0072 70.2695 45.9873 70.1177C45.9736 70.0124 45.9297 69.9141 45.8808 69.8208C45.8684 69.8108 45.8566 69.8004 45.8438 69.7908C45.0092 69.1671 41.5863 69.7502 40.8434 69.297C40.8208 69.1403 40.8395 69.0725 40.9046 68.9286C40.9504 68.8951 40.9902 68.8519 41.0419 68.8283C41.0521 68.8236 44.09 68.9207 44.292 68.9321C44.8198 68.9619 45.3465 69.0623 45.8742 69.0651L46.4313 68.7389C46.4266 68.421 46.474 67.95 46.2109 67.7151C45.1898 66.8034 40.5753 67.8511 40.0929 67.1177L40.1079 66.998C40.6489 66.6637 44.8262 66.8084 45.7443 66.7994C45.8531 66.3948 45.9825 66.0032 45.7484 65.6124C45.5866 65.3423 45.2854 65.2606 44.9923 65.1993C44.0995 65.0123 42.2865 65.0184 41.3511 65.122C40.8743 65.1748 40.1122 65.666 39.6747 65.4765C39.6438 65.3251 39.6692 65.2426 39.7499 65.1082C39.9392 64.793 40.5272 64.7324 40.8649 64.6499C40.8499 64.3795 40.8848 63.8777 40.7341 63.6692L40.6377 63.6516Z" fill="#F3F6F8"/>
<path d="M69.6402 47.3267C69.8389 47.3155 70.0424 47.3011 70.2413 47.3083C70.6026 47.3213 71.7897 47.6878 72.0026 48.0103C72.0942 48.1488 72.073 48.2046 72.0507 48.3586C71.8459 48.4963 71.5897 48.434 71.3495 48.4078C71.2635 48.8109 70.9708 49.3936 70.7693 49.7729C70.5953 50.1006 70.3462 50.3696 69.9804 50.4829C69.3751 50.6703 67.2176 50.1469 66.6783 49.8264C66.5264 49.7362 66.4927 49.6864 66.4585 49.5186L66.6053 49.3356C67.4601 49.1224 68.2076 48.7603 69.0343 48.4927C69.4467 48.3592 69.8903 48.3066 70.2916 48.1425C70.3723 48.1094 70.4218 48.0699 70.4781 48.0052L70.4147 47.9225C69.4741 47.7112 68.8147 48.4285 67.9618 48.6339C67.7139 48.6935 67.4853 48.7399 67.2567 48.6024L67.2392 48.4873C67.6884 47.892 68.9436 47.5283 69.6402 47.3267ZM68.439 49.7411C68.663 49.79 68.8976 49.8284 69.1126 49.9086L69.3183 49.7917L69.3246 49.837C69.384 49.6093 69.541 49.2367 69.4416 49.0294L69.3695 49.0125C69.0095 49.1475 68.2849 49.3278 68.0947 49.6542C68.2157 49.7408 68.2949 49.7353 68.439 49.7411Z" fill="#F3F6F8"/>
<path d="M70.7555 52.9342C70.9229 52.9298 71.0084 52.9174 71.1537 53.0126C71.2312 53.4572 70.62 53.7723 70.4665 54.1886C70.6183 54.441 71.0037 54.3538 71.1985 54.6139C71.222 54.7774 71.2014 54.8436 71.1293 54.9917C71.0557 55.0066 71.0084 55.0184 70.937 55.0259C70.6825 55.0529 70.3266 55.0176 70.1308 54.8362C69.843 54.5699 69.8738 54.1426 69.8628 53.7856C70.107 53.4587 70.4211 53.169 70.7555 52.9342Z" fill="#F3F6F8"/>
<path d="M72.6703 38.9189C73.0083 38.9664 73.4854 39.1528 73.7535 39.3631C73.9191 39.4929 74.0115 39.6212 74.0386 39.8308C73.9684 39.9992 73.9611 40.0075 73.805 40.1048L73.6317 40.0634C73.4529 39.9423 73.0509 39.6094 72.8435 39.5931C72.6063 39.5744 72.4923 39.7414 72.2145 39.6578C72.1766 39.5895 72.1292 39.5495 72.151 39.4685C72.2192 39.2159 72.4625 39.0545 72.6703 38.9189Z" fill="#F3F6F8"/>
<path d="M68.9316 73.9438L68.9998 74.031C69.0426 74.2903 69.005 74.4919 68.9545 74.7459C69.0773 74.9499 69.3097 75.2594 69.3326 75.4956C69.3599 75.776 69.0594 76.025 68.8977 76.2412C69.0632 76.2662 69.2861 76.2594 69.4352 76.3327C69.5564 76.3924 69.5592 76.4488 69.6029 76.5661C69.4197 76.9538 69.1446 76.7408 68.8225 76.8363C68.6068 76.9004 68.6528 77.1893 68.4588 77.2889C68.264 77.2413 68.2184 77.1681 68.0786 77.0305L68.059 76.8284C68.1294 76.5901 68.3105 76.4667 68.4928 76.3088C68.2622 76.3005 67.9103 76.3104 67.7148 76.1813C67.6362 76.1293 67.6579 76.0807 67.6499 75.9971C67.9099 75.5923 68.2175 75.7741 68.6075 75.6381C68.7002 75.115 68.1639 75.146 68.0865 74.7092C68.2434 74.3486 68.6056 74.1389 68.9316 73.9438Z" fill="#F3F6F8"/>
<path d="M68.7966 72.7238C68.9763 72.7169 69.1553 72.7138 69.3349 72.7265C69.6641 72.7497 70.0907 72.7433 70.3185 73.0023L70.2752 73.1424C70.1535 73.2579 70.0723 73.3504 69.8978 73.3791C69.7282 73.3524 69.4214 73.2953 69.2675 73.3631C69.1904 73.3971 69.1735 73.5698 69.152 73.6484C69.0303 73.7661 68.9971 73.7766 68.8311 73.8205L68.7182 73.7267C68.6145 73.3104 68.62 73.1225 68.7966 72.7238Z" fill="#F3F6F8"/>
<path d="M56.4578 80.0413C56.7228 80.0738 56.9683 80.1132 57.205 80.2438C57.6492 80.4888 57.7741 80.9314 57.911 81.379C57.8819 81.4472 57.852 81.5149 57.8213 81.5823C57.6859 81.8784 57.5972 82.0205 57.2785 82.1394C57.2661 82.1241 57.2526 82.1098 57.2414 82.0937C57.1072 81.8999 57.1718 81.749 57.2114 81.5423C57.2529 81.3252 57.2653 81.1475 57.125 80.9627C56.908 80.6769 56.3665 80.6463 56.0338 80.5889C55.9916 80.4591 56.001 80.4245 56.0276 80.2888C56.1558 80.1306 56.2706 80.0992 56.4578 80.0413Z" fill="#F3F6F8"/>
<path d="M61.1849 80.9465C61.3822 80.927 61.5328 80.9289 61.7048 81.0383L61.7307 81.1598C61.6194 81.43 61.3124 81.6296 61.0985 81.8278C61.0491 82.0202 61.0384 82.1401 61.0749 82.3358C61.4393 82.6305 61.861 82.0165 62.2717 82.0923C62.3579 82.2729 62.3101 82.3908 62.2834 82.5859C62.0225 82.8301 61.7797 82.9978 61.4112 83.0156C61.1365 83.029 60.9106 82.9448 60.7165 82.7513C60.3585 82.3948 60.4029 82.0595 60.4129 81.5934C60.6322 81.3129 60.886 81.1319 61.1849 80.9465Z" fill="#F3F6F8"/>
<path d="M72.3795 71.1567C72.4642 71.1644 72.5553 71.1686 72.636 71.1987C72.7976 71.2589 72.9672 71.3938 73.0203 71.5587C73.082 71.7499 72.9775 71.8812 72.891 72.0403C72.7098 72.0518 72.5459 72.0635 72.3808 71.9745C72.2509 71.9044 72.1786 71.7821 72.161 71.6402C72.1379 71.454 72.2641 71.2868 72.3795 71.1567Z" fill="#F3F6F8"/>
<path d="M65.4068 73.221C65.3049 73.0156 65.0286 72.9915 64.8792 72.8103C64.8208 72.7394 64.847 72.684 64.852 72.599C65.0834 72.4183 65.4068 72.472 65.6854 72.5012C66.3967 72.576 67.03 72.6442 67.5074 73.2221L67.575 73.3558C67.5923 73.4429 67.6145 73.5384 67.6124 73.6271C67.6089 73.7765 67.584 73.8722 67.4766 73.9738C67.0894 73.9352 66.7627 73.4043 66.4322 73.1864C66.2384 73.1644 66.1833 73.1514 65.9975 73.2263C65.9545 73.2529 65.9068 73.2856 65.8577 73.2993C65.6596 73.3541 65.5781 73.2972 65.4068 73.221Z" fill="#F3F6F8"/>
<path d="M66.4038 74.3769C66.5553 74.3495 66.6883 74.3234 66.8262 74.2526C66.9137 74.2077 66.9678 74.1842 67.0694 74.1797C67.0807 74.1991 67.0916 74.2184 67.1032 74.2375C67.3991 74.7245 68.191 74.7769 68.0255 75.3034C67.967 75.4896 67.7909 75.7104 67.6025 75.7799C67.5866 75.7859 67.5695 75.7879 67.553 75.7917C67.3687 75.5592 67.2328 75.2957 67.0487 75.0655C66.8551 74.8235 66.6076 74.6148 66.4038 74.3769Z" fill="#F3F6F8"/>
<path d="M64.3171 94.6549C65.95 94.5939 67.6054 94.6439 69.2405 94.6429C72.1321 94.641 75.818 94.3343 78.5212 95.3713C80.3373 96.0682 81.8946 97.3186 82.6753 99.1118C83.434 100.854 83.4181 103.296 82.6947 105.045C82.1263 106.419 80.9122 107.693 79.5227 108.276L82.393 112.404C82.8347 113.052 83.3184 113.685 83.7037 114.366L82.2233 114.378L76.3796 114.357C75.0881 112.853 74.0376 111.044 72.8895 109.423L71.1569 109.421L71.1635 114.385C68.9103 114.253 66.5852 114.365 64.3244 114.366C64.2381 107.799 64.345 101.223 64.3171 94.6549ZM71.1681 104.387C72.6608 104.404 74.3853 104.668 75.6405 103.718C76.0681 103.27 76.3161 102.795 76.3094 102.161C76.303 101.557 76.1002 100.909 75.639 100.494C74.6254 99.5819 72.4181 99.7868 71.1523 99.8159C71.1555 101.337 71.1198 102.868 71.1681 104.387Z" fill="#F3F6F8"/>
<path d="M19.7222 94.6169C23.2053 94.7378 26.7249 94.6318 30.2128 94.6326L30.2041 102.265C30.2028 103.645 30.0727 105.152 30.2967 106.51C30.4176 107.244 30.6647 108.044 31.2009 108.59C31.7823 109.181 32.5805 109.319 33.3796 109.322C34.0835 109.326 34.7182 109.078 35.2158 108.579C35.6982 108.095 35.9113 107.515 36.0419 106.862C36.3828 105.159 36.2519 103.326 36.252 101.592L36.2366 94.6316L42.9413 94.6408L42.9476 100.094L42.9565 104.119C42.9604 107.064 42.8858 109.826 40.7036 112.116C39.0886 113.811 36.6611 114.731 34.3235 114.788C31.2427 114.864 28.2018 114.622 25.8606 112.389C23.4221 110.063 23.3621 107.259 23.3674 104.161C23.38 102.718 23.376 101.275 23.3555 99.8318C22.2123 98.0508 20.8347 96.4149 19.7222 94.6169Z" fill="#F3F6F8"/>
<path d="M45.9697 94.6316C47.8378 94.6749 49.7166 94.6368 51.586 94.6367L62.3078 94.6364C62.2456 96.3666 62.291 98.1101 62.2879 99.8422C61.2053 99.7424 60.0542 99.8106 58.9654 99.8097C56.9207 99.8027 54.876 99.8065 52.8315 99.8209L52.8419 102.965C55.6069 102.996 58.3853 103.017 61.1495 102.955L61.1407 104.806L61.1394 108.173C58.3737 108.115 55.598 108.156 52.8315 108.162C52.8553 110.236 52.8343 112.313 52.8346 114.388C50.5564 114.368 48.2781 114.359 45.9997 114.361C45.9329 107.788 46.1165 101.202 45.9697 94.6316Z" fill="#F3F6F8"/>
<path d="M83.7578 94.6428C88.7715 94.6206 93.8073 94.7529 98.8169 94.6216L98.8182 106.859C98.7984 108.927 98.2714 111.366 96.7063 112.86C95.2334 114.266 92.8993 114.4 90.9576 114.384C89.9191 114.387 88.8781 114.405 87.8402 114.364L85.6799 111.241C85.164 110.51 84.6119 109.802 84.1491 109.036C85.5342 109.011 86.9222 109.035 88.3076 109.038C89.0444 109.04 89.885 109.117 90.6034 108.964C90.8894 108.903 91.1342 108.762 91.3419 108.56C91.7237 108.188 91.918 107.666 92.0195 107.156C92.2099 106.198 92.1294 105.14 92.1264 104.166L92.1094 99.8096C90.5255 99.8163 88.9415 99.8144 87.3578 99.8044C86.827 99.1878 86.388 98.499 85.9165 97.8385C85.175 96.7998 84.3737 95.7583 83.7578 94.6428Z" fill="#F3F6F8"/>
</svg>
