<svg width="176" height="48" viewBox="0 0 176 48" fill="none" xmlns="http://www.w3.org/2000/svg">
<g clip-path="url(#clip0_434_1819)">
<path d="M157.351 0.464591C157.418 0.460619 157.485 0.457336 157.552 0.454747C162.008 0.279323 166.548 1.60933 169.851 4.63347C173.271 7.76561 174.793 12.1054 174.962 16.6307C175.067 19.4363 174.983 22.2724 174.985 25.081C174.988 31.2213 175.432 37.7915 170.855 42.6389C167.919 45.7486 163.569 47.0583 159.364 47.201C153.32 47.4065 147.215 45.4794 144.04 40.0755C143.672 39.4498 142.64 36.858 142.389 36.6324C142.383 36.6268 142.377 36.6214 142.371 36.6161C144.444 36.6783 146.527 36.6004 148.602 36.6367C148.892 36.8217 149.09 37.3346 149.277 37.6246C149.629 38.1717 150.381 38.9887 150.63 39.4617C150.931 39.5852 151.225 39.8622 151.503 40.0421C152.395 40.6186 153.227 41.0437 154.256 41.3317C157.389 42.2082 161.489 42.1675 164.388 40.5655C166.476 39.4122 167.805 37.4762 168.441 35.2323C168.656 34.4617 168.807 33.6751 168.892 32.8803C169 31.9206 169.234 27.7163 168.827 27.0025C168.828 27.0181 168.83 27.0338 168.831 27.0497C168.866 27.6163 167.906 28.7174 167.535 29.1343C165.202 31.7481 161.87 33.1791 158.375 33.3934C154.096 33.6557 149.804 32.4136 146.566 29.5858C143.342 26.7698 141.682 22.7033 141.424 18.5165C141.142 13.9134 142.335 9.3031 145.485 5.80203C148.567 2.3755 152.775 0.731325 157.351 0.464591ZM159.755 27.665C165.78 26.8682 170.009 21.4007 169.197 15.4558C168.386 9.51082 162.842 5.342 156.818 6.14677C150.8 6.95075 146.58 12.4147 147.391 18.354C148.201 24.2931 153.736 28.4608 159.755 27.665Z" fill="#F3F6F8"/>
<path d="M95.2447 0.295191C98.1789 0.0586014 101.124 0.378107 103.864 1.47216C107.772 3.01816 110.886 6.04882 112.506 9.88296C112.926 10.8667 113.255 11.8862 113.487 12.9288C113.76 14.1528 114.291 18.2623 113.815 19.4218C113.024 19.2629 112.019 19.364 111.203 19.3651L105.931 19.3731C99.4343 19.3764 92.9292 19.2951 86.434 19.3976C86.5729 19.5398 87.2253 22.0061 87.4725 22.565C87.9442 23.6357 88.6232 24.6055 89.4708 25.42C91.5531 27.4574 94.4237 28.3012 97.3052 28.2831C99.7034 28.2679 102.364 27.6879 104.206 26.0779C104.861 25.505 105.382 24.8161 105.994 24.203C108.153 24.0705 110.339 24.2741 112.504 24.1499C112.511 24.1837 112.512 24.1817 112.515 24.2121C112.609 24.9655 110.979 27.2647 110.516 27.8633C107.9 31.241 103.978 33.2777 99.7372 33.834C95.0854 34.444 90.2392 33.412 86.4824 30.5706C83.0054 27.9409 80.8378 23.9459 80.275 19.6809C79.6578 15.0035 80.6903 10.1307 83.6403 6.36337C86.5362 2.66541 90.6363 0.874835 95.2447 0.295191ZM86.6147 13.8341L97.1532 13.8334C100.581 13.8329 104.02 13.7759 107.447 13.8345C107.62 12.8067 106.485 10.9009 105.887 10.0746C104.305 7.88528 101.889 6.56315 99.2264 6.12528C98.4596 5.99922 97.6942 5.96234 96.9183 5.95077C93.8752 6.13873 91.1146 6.9367 89.0367 9.26743C88.1421 10.2711 87.5882 11.3368 87.1096 12.5793C86.9619 12.9629 86.8505 13.5024 86.6147 13.8341Z" fill="#F3F6F8"/>
<path d="M66.2435 0.211064C69.8043 0.0896179 73.4478 0.918765 76.4578 2.83584C77.4047 3.43902 80.2218 5.60121 80.453 6.65781C80.4766 6.97294 79.1001 9.79047 78.8972 10.3826C78.3762 11.9046 78.0633 13.4462 77.9096 15.0444C77.84 15.7705 77.7866 16.5409 77.8171 17.27C77.8409 17.8431 77.9532 18.4584 77.9012 19.0286C77.8913 19.1371 77.8409 19.2428 77.7832 19.3341C70.5876 19.1979 63.3661 19.2972 56.1682 19.3197C56.4986 19.6685 57.1356 22.133 57.5277 22.891C58.705 25.1669 60.7383 26.7896 63.1923 27.5744C66.0393 28.4849 69.7137 28.3618 72.3987 27.0004C73.3543 26.516 75.364 25.0595 75.6867 24.0657L78.2487 24.0568C78.3744 24.0501 78.5069 24.0384 78.6326 24.0463C78.7842 24.0557 78.9113 24.059 79.0139 24.1769C79.2247 24.4197 80.4705 27.1492 80.4485 27.381C80.4508 27.7697 79.8122 28.4115 79.554 28.6957C76.6634 31.8751 72.4042 33.5178 68.1486 33.7462C63.4482 33.9986 58.7992 32.7386 55.2575 29.5918C51.9836 26.6827 50.1821 22.4989 49.9567 18.1908C49.7119 13.5081 51.0076 8.94012 54.2345 5.41464C57.3294 2.03346 61.7066 0.439953 66.2435 0.211064ZM56.4332 13.7511L67.7272 13.7597C70.921 13.76 74.1284 13.6956 77.3205 13.7629C77.4633 13.0729 76.3282 10.9887 75.9106 10.3652C74.4104 8.12479 72.0751 6.6982 69.4271 6.16526C68.3587 5.95022 67.2093 5.85655 66.1212 5.95076C63.156 6.27815 60.5275 7.23508 58.6131 9.59539C58.1309 10.1899 57.6979 10.86 57.3586 11.5436C57.0518 12.1619 56.9347 13.3136 56.4332 13.7511Z" fill="#F3F6F8"/>
<path d="M125.264 0.295291C127.884 0.111473 130.435 0.289151 132.897 1.25335C135.352 2.2148 137.555 3.99054 138.614 6.42264C138.996 7.30009 139.692 9.14344 139.319 10.0703C137.559 9.89605 135.134 10.0186 133.333 10.0694C133.362 9.99876 133.38 9.93024 133.383 9.85336C133.407 9.01607 132.724 7.95189 132.135 7.39595C130.743 6.08165 128.691 5.76894 126.84 5.81223C125.057 5.85394 123.131 6.29055 121.862 7.61564C121.17 8.33735 120.753 9.27904 120.791 10.2812C120.834 11.4187 121.434 12.3208 122.438 12.8602C123.677 13.5255 125.23 13.7092 126.606 13.8999C130.353 14.419 135.067 14.7196 137.97 17.3717C139.529 18.796 140.169 20.7222 140.244 22.7763C140.343 25.4648 139.505 28.0363 137.628 30.0186C135.145 32.6425 131.393 33.649 127.863 33.7705C126.282 33.8759 124.565 33.6982 123.025 33.3395C119.19 32.4467 115.736 30.1267 114.581 26.2572C114.412 25.6915 114.27 24.0857 114.045 23.7535C114.037 23.7411 114.028 23.7291 114.019 23.717C116.054 23.7629 118.109 23.6163 120.14 23.7405C120.573 24.9927 120.825 26.0018 121.971 26.8475C123.91 28.2769 126.914 28.3979 129.215 28.0658C130.772 27.841 132.426 27.2323 133.391 25.9421C133.998 25.1292 134.217 24.1184 134.06 23.1242C133.634 20.4259 129.463 20.1527 127.305 19.8542C125.977 19.6705 124.645 19.5039 123.329 19.2448C121.339 18.8532 119.264 18.2629 117.608 17.0611C115.999 15.8928 115.075 14.2299 114.782 12.2938C114.384 9.66307 114.998 6.80007 116.614 4.65228C118.742 1.82362 121.872 0.794608 125.264 0.295291Z" fill="#F3F6F8"/>
<path d="M21.1306 1.09414L27.2545 1.09326L27.2547 13.8622C27.2547 16.5454 27.0037 19.7393 27.5744 22.3424C27.8821 23.7462 28.5255 25.1398 29.5675 26.162C30.9695 27.5377 32.8997 28.0956 34.8409 28.0801C36.7847 28.0647 38.6803 27.4695 40.0654 26.0756C41.0852 25.0497 41.6775 23.6731 41.9666 22.2811C42.5135 19.6473 42.2555 16.0215 42.2535 13.2861C42.2505 9.30246 42.3054 5.31188 42.2485 1.32919C42.2471 1.25082 42.2455 1.17245 42.2432 1.09411L48.1969 1.09366C48.2981 1.24916 48.3294 1.38536 48.3397 1.56737C48.503 4.46214 48.3508 7.64788 48.3478 10.5705C48.3446 13.9587 48.4781 17.3942 48.331 20.7774C48.2834 21.8527 48.1459 22.9221 47.9201 23.9752C47.2191 27.1587 45.5596 30.0439 42.7404 31.8306C39.7189 33.7454 35.6131 34.2137 32.1418 33.4668C29.1618 32.8257 26.4673 31.162 24.8052 28.6033C24.5708 28.2426 24.3355 27.8754 24.1453 27.4898C22.4743 30.3815 20.0914 32.4211 16.7964 33.3086C13.3695 34.2316 9.19354 33.9013 6.08673 32.1461C3.27575 30.5581 1.47406 27.8933 0.641722 24.8449C0.349621 23.7751 0.310199 22.6263 0.000488281 21.5789V1.10978L6.12716 1.10351C6.01497 5.22379 6.09626 9.36498 6.0976 13.4878C6.09846 16.1222 5.85208 19.5879 6.34399 22.1234C6.62119 23.5522 7.20831 24.9783 8.23489 26.0454C9.59918 27.4634 11.4971 28.0389 13.4375 28.0783C15.4317 28.1188 17.2942 27.5361 18.7495 26.1586C20.6364 24.3726 21.0924 21.8611 21.1427 19.3811C21.2102 16.0585 21.1424 12.7222 21.1418 9.39845C21.1414 6.63787 21.2232 3.85204 21.1306 1.09414Z" fill="#F3F6F8"/>
</g>
<defs>
<clipPath id="clip0_434_1819">
<rect width="175.188" height="47.4381" fill="white"/>
</clipPath>
</defs>
</svg>
