<svg width="180" height="96" viewBox="0 0 180 96" fill="none" xmlns="http://www.w3.org/2000/svg">
<path d="M41.7555 15.2942C42.592 15.2419 43.5122 15.2653 44.2797 15.6392C45.6052 16.2849 46.8704 17.2749 48.1005 18.0902L55.573 23.048C59.0715 25.3445 62.5562 27.6625 66.027 30.0014C67.8268 31.197 69.7884 32.3092 71.4743 33.652C72.1153 34.1625 72.5895 34.5303 72.6613 35.384C72.6988 35.8336 72.5089 36.2599 72.2061 36.5836C71.8614 36.9523 71.3158 37.1653 70.8311 37.2619C69.0058 37.6257 65.562 37.3087 63.5625 37.3511C64.0294 38.1987 64.3396 39.2358 64.6434 40.1538C66.8426 46.8047 66.1301 52.8813 63.0209 59.0652C64.9385 59.0994 70.2288 58.7295 71.7152 59.4358C72.115 59.6256 72.4037 59.8974 72.5394 60.3282C72.7037 60.8493 72.6674 61.4608 72.3972 61.9393C72.131 62.4111 71.4536 62.7989 71.0166 63.1045C66.4656 66.2894 61.7096 69.2029 57.0874 72.2866C52.9666 75.0357 48.8815 78.0628 44.6047 80.5543C44.0723 80.8643 43.5599 81.0304 42.9616 81.1698C42.1387 81.2563 41.3219 81.0707 40.5904 80.6922C38.4853 79.6034 36.4862 78.0674 34.5073 76.7493L23.6434 69.5196L16.5558 64.8331C15.3162 64.0127 13.9403 63.2242 12.8148 62.2575C12.4849 61.9741 12.3809 61.655 12.3464 61.2361C12.3116 60.8114 12.3092 60.1525 12.6181 59.8238C12.9862 59.4321 13.5762 59.2548 14.092 59.1717C14.9946 59.0261 15.9742 59.1089 16.8901 59.1065C18.5987 59.0923 20.3073 59.0902 22.016 59.0997C21.3509 58.0136 20.8084 56.8066 20.3864 55.607C18.2322 49.4803 18.7261 43.104 21.5097 37.2881C19.4789 37.3025 16.1801 37.5552 14.2806 37.2705C13.63 37.173 12.9539 36.9077 12.5751 36.338C12.1698 35.7284 12.3021 35.1249 12.443 34.4629C12.4581 34.4484 12.4729 34.4337 12.4883 34.4195C13.5556 33.4335 14.8992 32.6868 16.1111 31.8845L21.7039 28.1466L33.1 20.5636C35.338 19.075 37.559 17.4968 39.8644 16.1181C40.4784 15.7506 41.0637 15.4896 41.7555 15.2942ZM34.4683 41.4255C37.944 38.7114 41.5616 37.6749 45.9585 38.2079C49.87 38.6819 53.8231 41.0116 56.2313 44.1165C56.6821 44.6978 57.1998 45.3349 57.526 45.9965C58.0113 46.9801 58.8967 50.47 59.5193 50.9239C59.6803 50.9079 59.716 50.9301 59.815 50.7978C60.4364 49.9684 60.0302 45.875 59.8212 44.7643C58.9795 40.2877 56.1833 36.2537 52.4327 33.7114C49.0868 31.4435 44.7456 30.2473 40.7027 30.6834C35.6974 31.4401 31.4883 33.4547 28.4132 37.605C25.5576 41.4042 24.3718 46.2021 25.1286 50.8938C25.7201 54.7468 27.9054 59.172 31.1368 61.4848C31.392 61.6676 31.6071 61.791 31.9293 61.8027C32.0835 61.6531 32.1456 61.6245 32.1336 61.3915C32.0881 60.5027 30.991 59.2283 30.649 58.3469C28.7311 53.3989 29.3482 47.49 32.7008 43.308C33.2416 42.6331 33.8457 42.0241 34.4683 41.4255ZM32.5454 53.8067C33.353 52.8391 34.0389 51.7598 34.8883 50.8325C36.6007 48.9633 39.264 47.7049 41.7851 47.486C44.5982 47.2269 47.3997 48.0929 49.5755 49.8948C50.1113 50.3466 50.5852 50.8547 51.057 51.3717C52.6404 53.3958 53.7911 56.0209 53.4704 58.6565C53.3744 59.4472 52.7878 61.1056 52.9965 61.831C53.3061 61.8131 53.435 61.7181 53.6412 61.4909C55.5585 59.381 56.4482 55.9542 56.2414 53.1702C56.0122 50.0786 54.4509 47.2115 52.1055 45.2031C49.7315 43.1821 46.6645 42.1632 43.5531 42.3623C40.2318 42.7587 37.287 44.0546 35.1807 46.741C33.5912 48.7663 32.6704 51.2354 32.5454 53.8067ZM35.8728 62.0741C36.5379 59.8959 37.4014 57.8675 39.528 56.7282C40.6156 56.1453 41.9285 55.9175 43.1546 56.036C45.0811 56.3579 46.6039 57.0381 47.7721 58.675C48.4731 59.658 48.9455 60.8133 49.285 61.9661C50.1095 60.0645 50.1396 58.2746 49.3776 56.3235C48.6639 54.4963 47.3375 52.9807 45.5147 52.2094C44.3748 51.7296 43.1379 51.525 41.9042 51.6118C39.8044 51.8851 38.0816 52.7212 36.761 54.4302C35.486 56.0806 35.013 58.1537 35.2866 60.2067C35.3758 60.877 35.6014 61.4589 35.8728 62.0741Z" fill="#F3F6F8"/>
<path d="M147.904 43.9473C152.22 43.615 155.987 46.8442 156.319 51.1595C156.65 55.4748 153.421 59.2414 149.105 59.5722C144.791 59.9031 141.025 56.6741 140.694 52.3601C140.362 48.046 143.59 44.2797 147.904 43.9473ZM149.416 56.0088C150.473 55.7564 151.358 55.1437 151.929 54.209C152.571 53.1571 152.729 51.84 152.439 50.6502C152.171 49.5494 151.521 48.5538 150.539 47.9672C149.572 47.3905 148.457 47.3342 147.372 47.5419C146.172 48.0641 145.274 48.7107 144.768 49.9639C144.295 51.1358 144.33 52.5459 144.829 53.7025C145.235 54.6436 146.011 55.5188 146.981 55.8931C147.673 56.1599 148.71 56.263 149.416 56.0088Z" fill="#F3F6F8"/>
<path d="M102.008 37.4985C103.277 37.5185 104.547 37.5142 105.816 37.4856C105.88 37.5958 105.938 37.713 105.969 37.8374C106.144 38.5473 106.15 40.7075 105.789 41.291C105.8 41.311 105.809 41.3313 105.82 41.351C106.071 41.8274 106.031 42.4327 106.042 42.9602C106.074 44.595 106.027 46.2344 106.024 47.8695C106.018 51.0935 106.303 54.5037 103.85 57.0159C102.19 58.7162 99.8579 59.4619 97.5279 59.4868C95.164 59.5117 92.7756 58.8039 91.0669 57.1076C90.1532 56.2003 89.4925 55.0989 89.1625 53.8513C88.5261 51.4462 88.7628 48.6345 88.7628 46.1565L88.7696 37.4988C90.1175 37.5133 91.4658 37.5127 92.8134 37.4967C92.8088 37.6244 92.8051 37.7521 92.8023 37.8801C92.7445 40.8244 92.7568 43.7736 92.7448 46.7188C92.7377 48.4628 92.5654 50.3712 92.8648 52.0897C93.0156 52.9538 93.3006 53.6897 93.9201 54.3215C94.8612 55.2808 96.2039 55.6058 97.5116 55.5944C98.718 55.5839 99.8936 55.3485 100.764 54.4529C101.406 53.7922 101.766 52.9086 101.925 52.0115C102.234 50.2761 102.042 48.3505 102.031 46.5852L102.008 37.4985Z" fill="#F3F6F8"/>
<path d="M116.835 44.0557C117.932 44.0046 119.067 44.0569 120.096 44.4742C121.314 44.9679 122.207 45.9465 122.699 47.1545C122.971 47.8229 123.115 48.5387 123.188 49.2549C123.32 50.5376 123.536 58.1662 123.148 59.0679C121.889 59.1793 120.564 59.1174 119.296 59.122C119.324 59.0525 119.332 59.0365 119.356 58.9565C119.599 58.1668 119.523 51.6861 119.368 50.4348C119.298 49.8753 119.155 49.3143 118.882 48.8179C118.545 48.2045 118.025 47.7103 117.342 47.5164C116.264 47.2099 115.075 47.6124 114.141 48.142C114.102 48.2574 114.127 48.2094 114.052 48.3159C113.734 48.7634 113.356 49.2626 113.175 49.7824C112.488 51.7492 113.576 57.94 112.882 59.1226C111.589 59.0839 110.307 59.0996 109.014 59.1353C109.093 59.0011 109.148 58.8808 109.178 58.7272C109.418 57.506 109.208 55.0474 109.208 53.6791C109.207 51.0251 109.403 47.5515 109.182 45.0076C109.165 44.7995 109.092 44.6318 108.979 44.4573C110.192 44.4078 111.417 44.4361 112.632 44.4327C112.646 44.4539 112.66 44.4749 112.673 44.497C112.955 45.0085 112.936 45.6809 112.783 46.2278C113.13 46.0413 113.438 45.6966 113.73 45.4332C114.735 44.5278 115.557 44.2887 116.835 44.0557Z" fill="#F3F6F8"/>
<path d="M137.397 37.2037C138.355 37.128 139.34 37.1652 140.302 37.1594C140.347 37.2274 140.393 37.3016 140.421 37.3782C140.628 37.9482 140.621 39.9079 140.355 40.4551C139.481 40.564 138.739 40.504 137.87 40.7884C137.64 40.8635 137.249 40.9931 137.117 41.2156C136.84 41.6787 137.323 43.5569 136.857 44.4214C136.846 44.443 136.833 44.4633 136.82 44.4839C138.016 44.4436 139.257 44.334 140.448 44.4202C140.565 45.1908 140.782 46.925 140.407 47.5993C139.224 47.6864 137.991 47.622 136.802 47.6205C136.842 47.6781 136.86 47.7011 136.893 47.7685C137.116 48.2142 137.145 57.9357 136.919 58.6029C137.003 58.7254 137.018 58.8295 137.044 58.9741C136.413 59.3988 133.892 59.1372 133.056 59.1511C133.103 59.0753 133.113 59.0652 133.146 58.9907C133.39 58.4346 133.339 48.1643 133.11 47.595C132.411 47.6313 131.711 47.6574 131.011 47.6728C131.029 47.634 131.049 47.5956 131.066 47.5559C131.328 46.9502 131.229 45.0585 130.988 44.4273C131.688 44.4094 132.394 44.4565 133.093 44.4833C133.702 43.3467 132.963 40.8407 134.097 39.0856C134.813 37.9792 136.164 37.4542 137.397 37.2037Z" fill="#F3F6F8"/>
<path d="M165.435 44.2965C166.07 44.2648 166.716 44.3076 167.351 44.3255C167.361 44.3412 167.37 44.3565 167.379 44.3728C167.393 44.3996 167.405 44.427 167.419 44.4541C167.469 44.552 167.521 44.6514 167.546 44.7591C167.705 45.4321 167.807 47.3624 167.449 47.9483C166.256 48.0173 165.135 47.9 164.014 48.4453C161.852 49.4972 162.095 51.7958 162.121 53.8239L162.149 57.192C162.151 57.7459 162.235 58.4279 162.058 58.9572C161.142 59.2397 159.761 59.0739 158.787 59.0966L158.539 59.0834C157.979 58.2571 158.808 45.5743 158.135 44.4599C159.357 44.4633 160.58 44.4492 161.801 44.4178C162.072 44.8016 162.018 45.3841 162.03 45.8396C162.293 46.0335 162.859 45.3078 163.104 45.1158C163.785 44.5812 164.596 44.3981 165.435 44.2965Z" fill="#F3F6F8"/>
<path d="M126.065 44.4165C127.232 44.4396 128.422 44.5199 129.581 44.3691C129.59 44.3885 129.599 44.4082 129.609 44.4276C129.62 44.4495 129.632 44.4707 129.642 44.4929C129.872 45.0028 129.919 58.2325 129.648 58.9634C129.644 58.9692 129.642 58.9772 129.636 58.9815C129.237 59.252 126.478 59.1274 125.772 59.1314C126.382 58.062 125.415 45.8036 126.065 44.4165Z" fill="#F3F6F8"/>
<path d="M127.066 37.305C127.796 37.0652 128.598 37.2062 129.202 37.6801C129.807 38.1543 130.135 38.8991 130.076 39.6651C130.004 40.6062 129.364 41.4073 128.463 41.6861C127.257 42.0588 125.976 41.3901 125.593 40.1877C125.21 38.9853 125.867 37.6986 127.066 37.305Z" fill="#F3F6F8"/>
</svg>
