<svg width="178" height="73" viewBox="0 0 178 73" fill="none" xmlns="http://www.w3.org/2000/svg">
<path d="M127.418 5.3443C134.746 5.2343 140.781 11.0733 140.911 18.3988C141.041 25.7243 135.216 31.7734 127.888 31.9229C120.532 32.073 114.453 26.2231 114.323 18.8696C114.193 11.5162 120.061 5.45472 127.418 5.3443ZM128.667 26.974C133.302 26.3925 136.572 22.143 135.945 17.5159C135.318 12.8889 131.035 9.66176 126.413 10.3335C121.854 10.996 118.679 15.2058 119.298 19.7697C119.916 24.3334 124.096 27.5476 128.667 26.974Z" fill="#F3F6F8"/>
<path d="M44.2884 5.5826C44.3331 5.57188 44.3365 5.57001 44.3896 5.5635C47.7928 5.14665 51.4343 6.44745 54.095 8.51755C56.7904 10.6146 58.4509 13.5894 58.8608 16.9761C59.2847 20.4781 58.3747 23.8062 56.2016 26.5793C57.2532 27.4839 58.2365 28.4707 59.2329 29.4351C58.191 30.3761 57.2492 31.4203 56.2495 32.4051C55.4654 31.7657 54.7566 30.9459 54.0453 30.2236C52.6341 28.7748 51.2124 27.3358 49.7807 25.907C51.1271 25.06 52.2412 23.8911 53.0224 22.5058C54.1173 20.5866 54.434 18.4855 53.8391 16.3457C53.2213 14.2032 51.7881 12.388 49.847 11.2896C47.7126 10.0847 45.3451 9.91831 43.0029 10.5637C42.3332 10.8194 41.6816 11.1233 41.0806 11.5164C39.1509 12.7728 37.7984 14.743 37.3197 16.9948C36.8811 19.1564 37.3915 21.4757 38.6045 23.306C39.6293 24.8525 41.3066 26.15 43.0928 26.677C43.8765 26.9081 44.7022 27.01 45.5024 27.1743C46.8296 28.4927 48.1334 29.8342 49.4135 31.1983C48.7415 31.3928 48.0554 31.5348 47.3613 31.6229C43.7095 32.0829 40.1916 31.0938 37.2913 28.8307C34.5692 26.696 32.8054 23.569 32.3867 20.1358C31.9957 16.6912 32.9887 13.2323 35.1476 10.5192C37.382 7.68153 40.7357 5.99833 44.2884 5.5826Z" fill="#F3F6F8"/>
<path d="M75.0753 5.76505C76.5533 5.60923 78.4447 5.61569 79.9262 5.76742C80.2389 6.33748 80.0711 7.69514 80.0708 8.37508L80.0675 16.4059C80.0711 17.977 79.9852 19.6127 80.1922 21.1702C80.2975 21.9622 80.512 22.7361 80.8832 23.4462C81.5935 24.8062 82.814 25.8295 84.2776 26.2915C85.8266 26.7713 87.7878 26.6559 89.2274 25.8893C90.6815 25.115 91.5483 23.8176 92.0124 22.2632C92.2106 21.5992 92.3107 20.9162 92.3463 20.225C92.4745 17.7242 92.3591 15.1677 92.3602 12.6613C92.3612 10.5259 92.4986 8.28966 92.3381 6.16607C92.3276 6.02719 92.2813 5.91094 92.2163 5.78988C93.8092 5.67291 95.6892 5.57508 97.2666 5.79911C97.3209 5.88339 97.3671 5.97252 97.3849 6.07212C97.4988 6.7039 97.5383 10.3707 97.274 10.7943C97.2812 10.8088 97.2882 10.8233 97.2957 10.8377C97.6656 11.5481 97.4064 19.4585 97.2918 20.8068C97.2162 21.6644 97.0738 22.5148 96.8658 23.3504C96.1638 26.1307 94.3732 28.5123 91.8968 29.9596C89.3458 31.4632 85.9638 31.7158 83.1278 30.9848C80.4446 30.3069 78.1387 28.5953 76.7137 26.2236C75.9196 24.8751 75.4451 23.361 75.2048 21.8198C74.9564 20.2264 74.7709 6.93391 75.0753 5.76505Z" fill="#F3F6F8"/>
<path d="M2.86812 5.76529C5.74373 5.63451 8.66144 5.72346 11.5406 5.72451C14.1764 5.72546 16.852 5.63024 19.4829 5.77071L19.4506 9.88672L7.71068 9.94814C7.67571 11.8897 7.76662 13.8484 7.66457 15.7858L14.9372 15.779C16.4074 15.7801 17.8911 15.7419 19.3585 15.8288L19.3463 19.8047C18.002 19.8974 16.6144 19.8394 15.266 19.8384L8.04483 19.8303C7.89318 19.8313 7.86561 19.82 7.73778 19.9111C7.63635 22.1647 7.73318 24.4436 7.71796 26.7016L19.4504 26.7101C19.4883 28.118 19.4722 29.5463 19.4193 30.9534C13.8453 31.03 8.26056 30.9716 2.68569 30.9574C2.61008 25.1445 2.68639 19.3196 2.68524 13.5053L2.68417 8.31224C2.68368 7.52397 2.59095 6.63761 2.71717 5.86487L2.86812 5.76529Z" fill="#F3F6F8"/>
<path d="M164.974 5.33217C167.281 5.08875 169.8 5.38171 171.909 6.35956C172.504 6.63522 174.336 7.58045 174.56 8.18536C174.503 8.62188 172.406 10.5551 171.936 11.0073C171.831 11.1074 171.373 11.5705 171.24 11.591C170.97 11.6323 169.793 10.5858 169.442 10.4156C168.656 10.0356 167.616 9.8779 166.75 9.86313C165.71 9.84537 164.576 10.0455 163.807 10.8063C163.33 11.2781 163.106 11.9403 163.115 12.6041C163.155 15.0476 168.291 16.3414 170.162 17.2125C171.213 17.7015 172.263 18.3301 173.094 19.1462C174.409 20.4371 175.116 22.2926 175.123 24.1229C175.129 25.9741 174.388 27.7496 173.07 29.0489C171.263 30.8602 168.846 31.4188 166.373 31.4284C163.837 31.3798 161.54 30.8948 159.347 29.5745C158.573 29.1088 157.806 28.4811 156.967 28.1419L156.936 28.1291C157.347 27.869 160.193 25.0414 160.538 24.5414C161.121 24.7894 161.691 25.2419 162.245 25.5678C163.779 26.4713 165.78 27.0535 167.565 26.7012C168.368 26.5427 169.204 26.1096 169.662 25.4109C169.988 24.9147 170.155 24.1867 170.023 23.6022C169.579 21.6303 165.747 20.6823 164.065 20.0025C163.201 19.6537 162.346 19.255 161.567 18.7427C159.801 17.5813 158.594 15.9758 158.167 13.8907C157.818 12.1193 158.178 10.2817 159.17 8.77276C160.545 6.69398 162.619 5.80971 164.974 5.33217Z" fill="#F3F6F8"/>
<path d="M74.2149 33.5101L90.9594 33.4992L96.4231 33.4946C97.5655 33.4948 98.7315 33.4534 99.8688 33.5598C99.9148 33.6261 99.9541 33.6979 99.9703 33.7778C100.089 34.3619 100.088 37.8527 99.8481 38.2285C99.4656 38.26 99.0643 38.2428 98.6796 38.2482L82.3569 38.2487C79.2474 38.2485 76.1307 38.2914 73.0221 38.2243C73.0549 38.1638 73.0892 38.0957 73.1038 38.0282C73.2288 37.4475 73.1976 33.8904 73.0117 33.5535L74.2149 33.5101Z" fill="#F3F6F8"/>
<path d="M86.3427 39.7467C88.3641 39.607 90.1169 41.1298 90.2602 43.1502C90.4034 45.1706 88.883 46.9255 86.8621 47.0721C84.8363 47.2192 83.0758 45.6948 82.9322 43.6695C82.7885 41.6441 84.3165 39.8868 86.3427 39.7467Z" fill="#F3F6F8"/>
<path d="M46.143 62.1041C46.9561 62.0393 47.8115 62.2075 48.4822 62.6883C49.1103 63.1387 49.514 63.7938 49.6278 64.5584C49.7382 65.3003 49.5698 66.0799 49.1111 66.6799C48.5532 67.4095 47.8215 67.6778 46.9426 67.8013C46.0854 67.8186 45.3807 67.7947 44.6476 67.2804C44.0224 66.843 43.601 66.1712 43.4794 65.418C43.3606 64.6867 43.5204 63.9102 43.9565 63.3066C44.4962 62.5597 45.2703 62.2445 46.143 62.1041ZM46.7926 66.9315C47.8777 66.7997 48.6514 65.8147 48.522 64.7298C48.3927 63.6448 47.4093 62.8691 46.3236 62.9959C45.2344 63.1229 44.4552 64.1101 44.585 65.1986C44.7147 66.2872 45.7039 67.0638 46.7926 66.9315Z" fill="#F3F6F8"/>
<path d="M87.6862 62.1215C88.5223 62.0744 89.3963 62.3023 90.0385 62.8535C90.6156 63.3489 90.9384 64.0551 90.9818 64.8103C91.0253 65.567 90.785 66.3159 90.2704 66.8779C89.6275 67.5797 88.8374 67.7666 87.9245 67.7979C87.1685 67.8115 86.4882 67.6909 85.8713 67.2157C85.2634 66.7473 84.8904 66.0432 84.8086 65.2837C84.7182 64.515 84.9433 63.7425 85.4326 63.1427C86.0323 62.4209 86.7857 62.195 87.6862 62.1215ZM88.1652 66.9443C89.2524 66.7957 90.0159 65.7976 89.8742 64.7099C89.7325 63.6221 88.7389 62.8527 87.6498 62.9874C86.551 63.1234 85.7729 64.1275 85.9158 65.2251C86.0588 66.3226 87.0682 67.0941 88.1652 66.9443Z" fill="#F3F6F8"/>
<path d="M134.326 59.9541C134.926 59.8917 136.03 59.7628 136.592 59.9208C136.844 59.9912 136.993 60.1368 137.112 60.3618C136.997 61.1847 133.768 60.4496 132.548 61.8008C131.932 62.4839 131.841 63.6274 131.903 64.5093C131.954 65.2245 132.227 65.815 132.779 66.2823C133.726 67.0853 134.95 67.0168 136.106 66.9179C136.146 66.8589 136.182 66.7989 136.208 66.7326C136.401 66.2553 136.404 65.0066 136.202 64.5477C135.79 64.5397 134.708 64.6198 134.404 64.3456C134.264 64.2201 134.287 64.1615 134.28 63.9832C134.414 63.7473 134.467 63.7499 134.711 63.6628C135.62 63.6463 136.529 63.6476 137.437 63.6665C137.466 63.7118 137.49 63.7485 137.503 63.8014C137.616 64.2665 137.613 67.0216 137.393 67.3668C137.254 67.5859 136.985 67.6749 136.745 67.7295C135.445 68.025 133.474 67.905 132.321 67.1665C131.522 66.6458 130.966 65.8252 130.78 64.89C130.553 63.8063 130.768 62.556 131.385 61.6314C132.067 60.6109 133.168 60.1839 134.326 59.9541Z" fill="#F3F6F8"/>
<path d="M115.071 60.0408C116.071 59.8863 117.59 59.989 118.641 59.9637C119.14 59.9516 119.775 59.8992 120.161 60.2668C120.243 60.4784 120.246 60.5137 120.204 60.7367C119.819 61.1083 116.75 60.9504 116.038 60.9516C116.098 61.0485 116.145 61.1454 116.169 61.258C116.28 61.7712 116.305 62.8827 116.011 63.3204C117.037 63.3136 118.414 63.078 119.397 63.3158C119.629 63.372 119.709 63.4152 119.836 63.6145C119.832 63.8702 119.789 64.0227 119.669 64.2482C118.842 64.3243 116.657 64.0365 116.089 64.4622C116.095 64.4748 116.102 64.4871 116.108 64.5C116.338 65.0103 116.26 66.2432 116.061 66.7502C116.925 66.7581 119.506 66.5628 120.161 66.8158C120.305 66.8719 120.336 67.0122 120.399 67.1429C120.383 67.3317 120.385 67.4138 120.235 67.5438C119.729 67.9803 115.81 67.7489 114.868 67.7034C115.23 67.0967 114.726 61.4162 115.071 60.0408Z" fill="#F3F6F8"/>
<path d="M103.857 62.1214C103.923 62.1127 103.989 62.1057 104.055 62.1003C105.05 62.0186 106.336 62.1027 107.122 62.7963C107.507 63.1364 107.596 63.9998 107.627 64.4945C107.663 65.052 107.83 67.3555 107.528 67.7007C106.937 67.8393 106.906 67.5065 106.453 67.4109C105.979 67.3111 105.239 67.7778 104.728 67.8132C104.243 67.8467 103.765 67.7177 103.304 67.5839C103.152 67.4374 102.974 67.2817 102.854 67.1088C102.592 66.7309 102.493 66.1013 102.597 65.6563C103.098 63.512 105.898 64.6262 106.502 64.256C106.502 64.1096 106.509 63.9478 106.463 63.8071C106.081 62.6213 104.05 63.3258 103.214 62.9209C103.105 62.7368 103.123 62.7279 103.168 62.5159C103.344 62.2778 103.588 62.2156 103.857 62.1214ZM105.491 66.7392C105.857 66.6082 106.397 66.3261 106.594 65.9772C106.618 65.7815 106.632 65.7085 106.508 65.5447C106.325 65.3028 105.872 65.1634 105.586 65.1314C105.196 65.0878 104.799 65.1219 104.41 65.156C104.11 65.3211 103.858 65.4627 103.755 65.808C103.69 66.028 103.713 66.2571 103.829 66.4561C103.964 66.6885 104.2 66.8691 104.462 66.9326C104.739 66.9996 105.203 66.9341 105.443 66.7757C105.46 66.7647 105.475 66.7513 105.491 66.7392Z" fill="#F3F6F8"/>
<path d="M124.581 59.9538C124.617 59.949 124.653 59.9447 124.689 59.941C125.384 59.8752 126.898 59.7018 127.452 60.157C127.545 60.3613 127.572 60.4158 127.541 60.6471C127.188 61.0433 125.697 60.7897 125.129 60.8505C124.714 60.8949 124.195 60.9911 123.926 61.3404C123.747 61.5726 123.686 61.8933 123.728 62.1805C123.918 63.4905 126.695 63.6471 127.683 64.4312C127.977 64.6645 128.227 64.9674 128.264 65.3537C128.321 65.937 127.901 66.6191 127.528 67.048C126.908 67.7594 125.912 67.7329 125.046 67.7824C124.304 67.7975 123.391 67.9091 122.712 67.5682C122.543 67.4832 122.414 67.3729 122.353 67.1882C122.331 67.1219 122.412 67.0197 122.445 66.9576C122.962 66.6319 124.965 67.119 125.994 66.8303C126.436 66.7062 126.725 66.4599 126.944 66.057C127.064 65.8363 127.114 65.6048 127.031 65.3617C126.729 64.4825 124.546 64.2201 123.762 63.8629C123.256 63.6332 122.769 63.2803 122.577 62.7391C122.417 62.2892 122.483 61.7424 122.688 61.3173C123.057 60.5508 123.827 60.2162 124.581 59.9538Z" fill="#F3F6F8"/>
<path d="M38.8996 59.9352C39.5386 59.8853 40.2859 59.8163 40.9109 59.9764C41.1629 60.041 41.3309 60.1179 41.47 60.3458C41.4797 60.5604 41.495 60.5758 41.3633 60.7415C40.9259 60.8673 40.4407 60.7944 39.9882 60.7925C38.979 60.7884 37.9166 61.008 37.191 61.7473C36.5783 62.3715 36.3806 63.2436 36.3999 64.0941C36.4165 64.8242 36.6594 65.5108 37.2032 66.0158C38.258 66.9952 39.7874 66.9856 41.1325 66.9523C41.2745 66.9391 41.3979 66.9902 41.5305 67.0337C41.6348 67.2002 41.6791 67.2449 41.6685 67.4478C41.5182 67.6594 41.2489 67.7123 41.0074 67.753C39.6906 67.9755 37.7635 67.8554 36.6436 67.0407C35.8477 66.4617 35.3916 65.5848 35.2446 64.6229C35.0769 63.5259 35.2855 62.3496 35.9569 61.4487C36.6924 60.4617 37.7231 60.103 38.8996 59.9352Z" fill="#F3F6F8"/>
<path d="M54.1822 62.1069C54.297 62.095 54.4124 62.088 54.5279 62.0858C55.3081 62.0727 56.1561 62.2051 56.7275 62.7833C57.7429 63.811 57.4201 66.3171 57.4138 67.6873C56.9876 67.733 56.5525 67.7259 56.1242 67.7346C56.1826 66.7172 56.3717 64.5944 56.0427 63.6866C55.9277 63.3698 55.7434 63.2689 55.4475 63.1363C54.9317 63.0449 54.1909 62.9696 53.7371 63.2843C52.7312 63.9817 53.4449 66.3555 53.2432 67.422C53.1331 67.5798 53.0954 67.6569 52.9017 67.7155C52.6548 67.7901 52.4067 67.7384 52.1834 67.6259C52.0769 67.5164 52.0148 67.4152 51.9878 67.2655C51.9251 66.9179 52.0246 66.5145 52.0416 66.1625C52.0905 65.1543 51.8953 63.8556 52.5059 62.9844C52.9118 62.4052 53.5228 62.225 54.1822 62.1069Z" fill="#F3F6F8"/>
<path d="M67.2282 62.1851C67.4172 62.1776 67.6055 62.1889 67.7941 62.1978C68.692 62.8338 67.7454 65.3027 68.2809 66.3529C68.4235 66.6325 68.7217 66.8251 69.014 66.9173C69.476 67.063 70.0589 67.0456 70.4877 66.8055C71.5952 66.1853 70.7732 63.8136 71.0759 62.7282C71.1489 62.4659 71.245 62.3485 71.4806 62.2157C71.7459 62.1702 71.9222 62.2143 72.1752 62.2984C72.3244 62.5128 72.2646 62.9251 72.2621 63.1835C72.27 64.0214 72.3311 64.9072 72.2319 65.7393C72.156 66.3758 71.94 66.996 71.4104 67.3957C70.7138 67.9213 69.5558 67.9306 68.7219 67.8022C68.188 67.7201 67.6857 67.4977 67.3649 67.0472C66.8917 66.3828 66.7429 63.4128 66.9036 62.5929C66.9484 62.3645 67.0499 62.3062 67.2282 62.1851Z" fill="#F3F6F8"/>
<path d="M62.4519 62.0137C63.0287 61.9786 63.8017 61.9113 64.3483 62.1106C64.5877 62.1978 64.655 62.3038 64.7643 62.5254C64.512 63.221 62.4482 62.6443 61.7569 63.1922C61.5616 63.347 61.4496 63.5262 61.4171 63.7721C61.5536 64.4336 64.0449 64.6993 64.7108 65.1859C64.9476 65.3589 65.1305 65.5886 65.1716 65.8858C65.2259 66.2774 65.034 66.754 64.8014 67.0613C64.3815 67.616 63.7651 67.7061 63.1244 67.8036C62.3374 67.824 61.3046 67.9643 60.5756 67.6369C60.4164 67.4429 60.4334 67.4102 60.4442 67.1716C60.9796 66.637 62.9245 67.4462 63.7664 66.7454C63.879 66.5394 63.952 66.2979 63.8913 66.0624C63.7004 65.3218 61.7002 65.2209 61.0426 64.8376C60.7082 64.6426 60.4269 64.3173 60.3406 63.9325C60.2715 63.6246 60.3661 63.3185 60.5421 63.0638C61.0035 62.3955 61.6923 62.148 62.4519 62.0137Z" fill="#F3F6F8"/>
<path d="M79.9108 60.6473C80.1024 60.6241 80.3098 60.5893 80.5029 60.5939C80.7377 60.5995 80.8264 60.7242 80.9688 60.8836C81.1234 61.2626 80.9631 61.8573 80.8322 62.2278C81.1997 62.2112 81.7067 62.1347 82.0536 62.2643C82.2622 62.3421 82.4488 62.4352 82.5437 62.646L82.4642 62.8207C81.9398 63.2179 81.4382 63.1371 80.809 63.1279C81.35 63.8858 80.5283 65.9326 81.1135 66.7154C81.3757 67.0661 82.0457 66.9382 82.4401 67.0105C82.652 67.0494 82.7533 67.0853 82.8756 67.2596C82.8027 67.4541 82.7457 67.4968 82.5912 67.6256C82.4825 67.7254 82.3598 67.7444 82.2178 67.7693C81.6552 67.8682 80.8342 67.8406 80.3652 67.491C79.2549 66.6638 79.8376 64.3654 79.6448 63.1606C79.5024 63.1001 79.212 63.1297 79.047 63.1151C78.8016 63.0935 78.6966 63.0642 78.5405 62.8762C78.5232 62.6587 78.5187 62.5395 78.6328 62.3447C78.899 62.1594 79.3063 62.2079 79.62 62.2048C79.7861 61.6843 79.5258 61.0749 79.9108 60.6473Z" fill="#F3F6F8"/>
<path d="M75.2486 59.9516C75.4206 59.9217 75.6004 59.8955 75.7749 59.8846C76.0226 59.8688 76.194 59.8889 76.382 60.0482C76.5479 61.2861 76.4254 62.6665 76.4214 63.9189C76.4179 64.9854 76.5019 66.1319 76.4011 67.1905C76.3767 67.4456 76.3783 67.506 76.178 67.6718C76.0572 67.6968 75.9287 67.7275 75.8053 67.732C75.5704 67.7403 75.4689 67.7067 75.3005 67.5488C75.1888 66.8249 75.2403 66.0331 75.2374 65.2998C75.2304 63.5201 75.3011 61.7294 75.2486 59.9516Z" fill="#F3F6F8"/>
<path d="M95.8683 62.1216C96.2028 62.0791 96.5181 62.0744 96.8467 62.1529L96.9772 62.4142C96.6788 62.9559 95.7576 63.146 95.2476 63.4229C95.0003 63.5572 94.7654 63.759 94.5349 63.9232C94.5534 63.9683 94.5706 64.0139 94.5844 64.0607C94.7345 64.5647 94.6856 67.3317 94.4609 67.7482C94.15 67.7808 93.8128 67.7439 93.4996 67.7342C93.3549 66.7441 93.3666 63.1203 93.6253 62.1792C93.7666 62.1156 93.8246 62.076 93.9836 62.1084C94.278 62.1684 94.4757 62.5126 94.6374 62.7423C94.7633 62.7855 95.6036 62.2073 95.8683 62.1216Z" fill="#F3F6F8"/>
<path d="M98.5319 62.2081C98.725 62.1895 98.9544 62.153 99.1474 62.1767C99.2564 62.1901 99.3925 62.2108 99.4581 62.3037C99.7018 62.6485 99.6246 66.9301 99.5051 67.5264L99.2676 67.6704C99.1577 67.7036 98.9914 67.7226 98.8761 67.7122C98.6505 67.6921 98.5666 67.6148 98.4367 67.4411C98.3513 66.6866 98.2754 62.7068 98.5319 62.2081Z" fill="#F3F6F8"/>
<path d="M98.4139 59.9539C98.5011 59.9447 98.5884 59.936 98.6757 59.9282C99.1127 59.8889 99.295 59.8928 99.647 60.1866C99.7456 60.4006 99.7702 60.4488 99.731 60.6915C99.5428 60.9136 99.4994 60.9133 99.2144 60.9696C99.0218 60.994 98.7583 61.0376 98.5737 60.9571C98.3654 60.8662 98.3123 60.7442 98.2305 60.5482C98.2555 60.3167 98.27 60.1459 98.4139 59.9539Z" fill="#F3F6F8"/>
</svg>
