<svg width="80" height="19" viewBox="0 0 80 19" fill="none" xmlns="http://www.w3.org/2000/svg">
<path d="M12.1694 11.1238C11.8872 10.5524 11.4995 10.0718 11.0028 9.68209C10.6876 9.43603 10.3362 9.22629 9.94838 9.0562C10.2487 8.86463 10.5226 8.64335 10.7668 8.38903C11.1727 7.96627 11.478 7.48571 11.6859 6.94735C11.8922 6.40899 11.9961 5.83265 11.9961 5.21997C11.9961 4.29188 11.7552 3.45957 11.275 2.72139C10.7949 1.98486 10.0738 1.39531 9.11508 0.95603C8.15473 0.516755 6.97822 0.297119 5.58884 0.297119H2.03127C0.909207 0.297119 0 1.20705 0 2.33V17.338C0 17.8929 0.450468 18.3437 1.0049 18.3437H6.18452C7.49304 18.3437 8.63161 18.1191 9.60021 17.6733C10.5688 17.2257 11.3097 16.6048 11.8229 15.8088C12.3361 15.0128 12.5935 14.1178 12.5935 13.1236C12.5935 12.3623 12.4532 11.6952 12.171 11.1221L12.1694 11.1238ZM7.06568 3.62966C7.4716 3.81297 7.77357 4.07389 7.97158 4.41243C8.16959 4.75262 8.27023 5.14566 8.27023 5.59319C8.27023 6.04073 8.16298 6.41724 7.94682 6.72441C7.73066 7.03157 7.42044 7.26773 7.01452 7.43287C6.6086 7.59801 6.13337 7.68223 5.58719 7.68223H3.64999V3.35719H5.58719C6.16637 3.35719 6.65976 3.44801 7.06568 3.63132V3.62966ZM8.54415 14.1937C8.32799 14.5422 8.01777 14.8114 7.61185 15.0013C7.20593 15.1912 6.7307 15.287 6.18452 15.287H3.65164V10.663H6.18452C6.7307 10.663 7.20758 10.7588 7.61185 10.9487C8.01777 11.1403 8.32799 11.4078 8.54415 11.7563C8.75867 12.1047 8.86757 12.511 8.86757 12.975C8.86757 13.439 8.76032 13.8453 8.54415 14.1937Z" fill="#29AA41"/>
<path d="M28.6254 17.8301L23.9474 11.1238C24.2725 11.0181 24.591 10.8909 24.8995 10.739C25.9011 10.2419 26.6965 9.55822 27.2839 8.68793C27.8713 7.81764 28.1651 6.8367 28.1651 5.74182C28.1651 4.64693 27.9208 3.76507 27.4324 2.94597C26.944 2.12522 26.1981 1.47952 25.1965 1.00722C24.1949 0.534915 22.9491 0.298767 21.4591 0.298767H17.1144C16.263 0.298767 15.5732 0.989061 15.5732 1.84119V17.2736C15.5732 17.8665 16.0534 18.3454 16.6441 18.3454H18.8965C19.078 18.3454 19.2232 18.1984 19.2232 18.0184V11.4854H20.1159L23.9738 17.3066C24.4045 17.9556 25.1305 18.3454 25.9094 18.3454H28.3565C28.6205 18.3454 28.7756 18.0481 28.6254 17.8301ZM19.2232 3.43149H21.4591C22.0548 3.43149 22.5762 3.52728 23.0234 3.71719C23.4706 3.9071 23.8187 4.18949 24.0662 4.56271C24.3154 4.93593 24.4392 5.3785 24.4392 5.89209C24.4392 6.40568 24.3022 6.84991 24.0299 7.22148C23.756 7.5947 23.3847 7.87709 22.9128 8.067C22.4409 8.25856 21.9063 8.3527 21.3106 8.3527H19.2249V3.43149H19.2232Z" fill="#29AA41"/>
<path d="M51.0908 18.2828C50.3284 18.0433 49.6535 17.7196 49.0661 17.3134L48.4952 16.917C48.02 16.5884 47.7378 16.0484 47.7378 15.4704V12.7472C47.7378 12.4137 48.1602 12.2617 48.3665 12.5259C48.6569 12.8992 48.9654 13.2427 49.2905 13.5597C49.8614 14.1146 50.4868 14.5539 51.165 14.8776C51.8432 15.2012 52.5395 15.3614 53.2507 15.3614C53.7474 15.3614 54.2028 15.2789 54.617 15.1121C55.0312 14.9469 55.3529 14.7058 55.5856 14.392C55.8166 14.0766 55.9338 13.7051 55.9338 13.274C55.9338 12.7274 55.7176 12.2964 55.2886 11.981C54.8579 11.6656 54.1616 11.3023 53.2029 10.8877C52.8712 10.7391 52.5412 10.5888 52.2095 10.4402C51.1832 9.94314 50.3466 9.44607 49.7014 8.94899C49.0562 8.45192 48.5678 7.90035 48.2361 7.29593C47.9045 6.69151 47.7394 5.99957 47.7394 5.22011C47.7394 4.22596 47.9886 3.33585 48.4853 2.54813C48.9819 1.76205 49.6816 1.13948 50.5842 0.683686C51.4868 0.227897 52.5247 0 53.7012 0C54.7771 0 55.8001 0.186612 56.7687 0.559831C56.7786 0.563133 56.7885 0.568089 56.7984 0.571392C58.0772 1.06847 58.9419 2.27399 59.0442 3.64301L59.1514 5.08469C59.1745 5.3935 58.8132 5.57351 58.5805 5.37039C57.9007 4.77919 57.2027 4.31183 56.4849 3.96504C55.5411 3.50925 54.6137 3.28135 53.7028 3.28135C53.2062 3.28135 52.7788 3.34741 52.424 3.47952C52.0676 3.61329 51.7953 3.79825 51.6039 4.03935C51.4142 4.28046 51.3185 4.57441 51.3185 4.9212C51.3185 5.35222 51.467 5.72875 51.7656 6.05242C52.0643 6.3761 52.5775 6.71959 53.3052 7.08455C53.5692 7.21667 53.8431 7.35043 54.1253 7.48254C54.4074 7.61465 54.7127 7.75667 55.0444 7.9053C56.0707 8.33632 56.9156 8.78385 57.5773 9.2479C58.2389 9.71194 58.7521 10.2586 59.1168 10.8894C59.4815 11.5186 59.663 12.265 59.663 13.1271C59.663 14.1212 59.4056 15.041 58.8924 15.8866C58.3792 16.7321 57.6499 17.4026 56.706 17.8996C55.7622 18.3967 54.6615 18.6461 53.4025 18.6461C52.6237 18.6461 51.8548 18.5255 51.0924 18.2861L51.0908 18.2828Z" fill="#29AA41"/>
<path d="M64.1259 0.298767H72.4787C73.1767 0.298767 73.7426 0.865196 73.7426 1.56374V3.07809C73.7426 3.35553 73.5182 3.58012 73.241 3.58012H66.6077C66.5153 3.58012 66.441 3.65443 66.441 3.74691V7.95636C66.441 8.05214 66.5185 8.12975 66.6143 8.12975H71.8153C72.0579 8.12975 72.2543 8.32628 72.2543 8.56903V10.3806C72.2543 10.9487 71.7939 11.4111 71.2246 11.4111H66.5978C66.512 11.4111 66.4427 11.4805 66.4427 11.5663V18.0085C66.4427 18.1951 66.2908 18.347 66.1044 18.347H63.8586C63.2695 18.347 62.791 17.8681 62.791 17.2786V1.63971C62.791 0.89988 63.39 0.302073 64.1276 0.302073L64.1259 0.298767Z" fill="#29AA41"/>
<path d="M76.1082 0.298772H78.3689C79.0503 0.298772 79.6031 0.851991 79.6031 1.53402V18.1588C79.6031 18.2612 79.5206 18.3437 79.4183 18.3437H77.2996C76.5554 18.3437 75.9531 17.741 75.9531 16.9962V0.452352C75.9531 0.366479 76.0224 0.297119 76.1082 0.297119V0.298772Z" fill="#29AA41"/>
<path d="M41.807 12.0204C41.9291 12.0815 42.0347 12.136 42.1733 12.1789C42.6089 12.3143 43.4289 12.4844 44.0245 12.5009C44.0509 12.5009 44.0773 12.5009 44.1037 12.5009C44.2423 12.5009 44.3726 12.491 44.498 12.4728L44.1697 11.4888C43.6417 11.4326 43.0626 11.1156 42.4439 10.5873C42.4092 10.5576 42.3696 10.541 42.3317 10.541C42.2805 10.541 42.231 10.5691 42.1914 10.6186C42.0859 10.7524 41.515 11.322 41.3813 11.5713L41.3764 11.5796L41.3714 11.5878C41.3714 11.5878 41.3467 11.6324 41.3681 11.6935C41.3896 11.7579 41.4902 11.8569 41.8087 12.0187L41.807 12.0204Z" fill="#29AA41"/>
<path d="M43.099 8.28827L42.7112 7.12921C41.9688 7.42475 40.9606 7.99273 39.7183 9.07418L40.3254 10.9415C40.3964 10.8672 40.4673 10.793 40.535 10.717C40.5993 10.646 40.6703 10.5668 40.7478 10.4792C41.3022 9.85844 42.1684 8.88761 43.0973 8.28992L43.099 8.28827Z" fill="#29AA41"/>
<path d="M34.3798 14.9991C34.3798 14.9991 34.5135 14.9842 34.7379 14.9298L35.5893 12.2435L35.7377 11.7217V11.7151C35.416 11.8257 35.086 11.9149 34.7428 11.9875L34.7032 11.9958C34.4838 12.0404 34.2594 12.0635 34.04 12.0635C33.3916 12.0635 32.7695 11.8637 32.2449 11.5054L31.2764 14.3651C31.9759 14.8191 32.7712 15.0486 33.6539 15.0486C33.8882 15.0486 34.1324 15.0321 34.3765 14.9991H34.3798Z" fill="#29AA41"/>
<path d="M44.7868 13.335C44.5724 13.378 44.3463 13.4011 44.1038 13.4011C44.0691 13.4011 44.0345 13.4011 43.9998 13.4011C43.3283 13.3829 42.439 13.2046 41.9061 13.0395C41.6949 12.9734 41.5382 12.8942 41.3996 12.8232C41.1867 12.7159 40.9788 12.592 40.8105 12.4319L42.6024 17.9349C42.6848 18.1875 42.9208 18.3592 43.1864 18.3592H45.4914C45.9698 18.3592 46.3081 17.8887 46.1563 17.4346L44.7852 13.335H44.7868Z" fill="#29AA41"/>
<path d="M33.6563 15.9493C32.6714 15.9493 31.7772 15.7115 30.9821 15.2426L30.2496 17.4056C30.0912 17.8745 30.4393 18.3599 30.9326 18.3599H33.1812C33.46 18.3599 33.7075 18.1782 33.7932 17.9124L34.4317 15.8998C34.1694 15.9328 33.9087 15.951 33.6563 15.951V15.9493Z" fill="#29AA41"/>
<path d="M34.0418 11.165C34.2018 11.165 34.3635 11.1484 34.5236 11.1154L34.5616 11.1072C35.0962 10.9965 35.6011 10.833 36.0928 10.6084L38.1323 4.196L39.4194 8.14948C40.6273 7.14212 41.6404 6.58229 42.4275 6.27513L40.5002 0.511704C40.4606 0.394454 40.3501 0.315186 40.2263 0.315186H37.0978C36.4641 0.315186 35.8998 0.719786 35.6968 1.3209L32.5518 10.6068C32.9676 10.9618 33.4874 11.165 34.0418 11.165Z" fill="#29AA41"/>
<path d="M41.8064 12.0206C41.9285 12.0817 42.0341 12.1362 42.1727 12.1792C42.6083 12.3146 43.4284 12.4847 44.0241 12.5012C44.0505 12.5012 44.0769 12.5012 44.1033 12.5012C46.2748 12.5012 46.8045 10.0389 46.8045 10.0389C46.8045 10.0389 46.8969 9.51213 46.8408 9.02992C46.8326 8.94735 46.5949 7.04988 44.1726 6.81538C44.1677 6.81538 44.1347 6.81042 44.0753 6.81042C43.6215 6.81042 41.9384 7.00034 39.295 9.45268C37.7472 10.8878 36.3859 11.6458 34.7424 11.9859L34.7028 11.9942C34.4833 12.0388 34.2589 12.0619 34.0394 12.0619C32.924 12.0619 31.8877 11.4757 31.2887 10.498C30.7013 9.54021 30.6865 8.34128 31.1716 7.32732C31.2508 7.16052 31.3399 6.99208 31.4373 6.82529C31.4406 6.82034 31.4422 6.81538 31.4471 6.81042C30.7409 7.24475 29.236 8.40899 29.1915 10.4584C29.1651 11.659 29.6353 12.8414 30.4785 13.7067C31.3465 14.5968 32.4157 15.0477 33.6566 15.0477C33.8909 15.0477 34.1351 15.0311 34.3793 14.9981C34.4074 14.9948 36.404 14.7851 38.7719 12.4814C38.8857 12.3707 38.9963 12.2634 39.1052 12.1577C39.6167 11.6639 40.0986 11.1966 40.5358 10.716C40.6002 10.645 40.6711 10.5657 40.7487 10.4782C41.5556 9.57489 43.0209 7.93503 44.3772 7.76824C44.5092 7.73356 44.6445 7.71539 44.7815 7.71539C44.9086 7.71539 45.0373 7.73192 45.1643 7.76494C45.3937 7.82605 45.5983 7.93833 45.7716 8.08696C46.0075 8.26862 46.1956 8.53946 46.3029 8.93084C46.3078 8.9457 46.3111 8.95891 46.3144 8.97377C46.3194 8.99028 46.3243 9.0068 46.3276 9.02332C46.3276 9.02827 46.3276 9.03487 46.3293 9.03983C46.4052 9.3602 46.4052 9.7103 46.3128 10.0621C46.0801 10.9439 45.3442 11.5384 44.567 11.5384C44.4449 11.5384 44.3211 11.5235 44.1974 11.4922C43.6627 11.4443 43.0737 11.1239 42.4433 10.5855C42.4087 10.5558 42.3691 10.5393 42.3311 10.5393C42.28 10.5393 42.2305 10.5674 42.1909 10.6169C42.0853 10.7507 41.5143 11.3204 41.3807 11.5698L41.3757 11.578L41.3708 11.5863C41.3708 11.5863 41.346 11.6309 41.3675 11.692C41.3889 11.7564 41.4896 11.8555 41.808 12.0173L41.8064 12.0206Z" fill="#29AA41"/>
</svg>
