<svg width="53" height="46" viewBox="0 0 53 46" fill="none" xmlns="http://www.w3.org/2000/svg">
<path d="M7.37044 26.1012V33.5097C7.37044 35.4343 8.38443 37.2271 10.0068 38.1499L22.6817 45.3475C24.2027 46.2175 26.0279 46.2175 27.5488 45.3475L40.2237 38.1499C41.8461 37.2271 42.8601 35.4343 42.8601 33.5097V26.1012L27.5488 34.8015C26.0279 35.6716 24.2027 35.6716 22.6817 34.8015L7.37044 26.1012ZM22.6817 0.632755L1.31185 12.7606C-0.437283 13.7624 -0.437283 16.3989 1.31185 17.4008L22.6817 29.5286C24.2027 30.3986 26.0279 30.3986 27.5488 29.5286L47.93 17.9544V33.536C47.93 34.9861 49.0708 36.1725 50.465 36.1725C51.8593 36.1725 53 34.9861 53 33.536V16.6362C53 15.6607 52.493 14.7907 51.6818 14.3161L27.5488 0.632755C26.7999 0.217311 25.9641 0 25.1153 0C24.2664 0 23.4307 0.217311 22.6817 0.632755Z" fill="#29AA41"/>
</svg>
