<svg width="36" height="36" viewBox="0 0 36 36" fill="none" xmlns="http://www.w3.org/2000/svg">
<path d="M19.771 0C21.7568 0.00529552 22.7647 0.0158866 23.6349 0.040599L23.9773 0.0529552C24.3727 0.0670766 24.7628 0.0847283 25.2341 0.10591C27.1122 0.194169 28.3937 0.490719 29.5181 0.926717C30.6831 1.37507 31.6645 1.98229 32.6459 2.96196C33.5438 3.84408 34.2384 4.91155 34.6811 6.08985C35.1171 7.21427 35.4136 8.49578 35.5019 10.3757C35.523 10.8452 35.5407 11.2353 35.5548 11.6325L35.5654 11.9749C35.5919 12.8434 35.6025 13.8513 35.606 15.8371L35.6078 17.154V19.4663C35.6121 20.7539 35.5985 22.0414 35.5672 23.3285L35.5566 23.671C35.5425 24.0682 35.5248 24.4583 35.5036 24.9278C35.4154 26.8077 35.1153 28.0875 34.6811 29.2136C34.2384 30.3919 33.5438 31.4594 32.6459 32.3415C31.7638 33.2395 30.6963 33.934 29.5181 34.3768C28.3937 34.8128 27.1122 35.1093 25.2341 35.1976L23.9773 35.2505L23.6349 35.2611C22.7647 35.2858 21.7568 35.2982 19.771 35.3017L18.4543 35.3035H16.1437C14.8556 35.308 13.5675 35.2945 12.2798 35.2629L11.9374 35.2523C11.5184 35.2364 11.0994 35.2182 10.6806 35.1976C8.80253 35.1093 7.52105 34.8128 6.3949 34.3768C5.21726 33.9338 4.15043 33.2393 3.26885 32.3415C2.37031 31.4596 1.67513 30.3921 1.2319 29.2136C0.795909 28.0892 0.499367 26.8077 0.411111 24.9278L0.358157 23.671L0.349332 23.3285C0.316793 22.0414 0.302082 20.7539 0.305203 19.4663V15.8371C0.300318 14.5496 0.313263 13.2621 0.344036 11.9749L0.356392 11.6325C0.370513 11.2353 0.388164 10.8452 0.409346 10.3757C0.497602 8.49578 0.794144 7.21603 1.23013 6.08985C1.6744 4.91107 2.3708 3.84356 3.27062 2.96196C4.15169 2.06446 5.21789 1.36991 6.3949 0.926717C7.52105 0.490719 8.80077 0.194169 10.6806 0.10591C11.1502 0.0847283 11.542 0.0670766 11.9374 0.0529552L12.2798 0.0423641C13.567 0.0110018 14.8544 -0.00253249 16.1419 0.00176505L19.771 0ZM17.9565 8.82587C15.6158 8.82587 13.3709 9.75574 11.7158 11.4109C10.0607 13.0661 9.13085 15.311 9.13085 17.6517C9.13085 19.9925 10.0607 22.2374 11.7158 23.8926C13.3709 25.5478 15.6158 26.4776 17.9565 26.4776C20.2972 26.4776 22.542 25.5478 24.1972 23.8926C25.8523 22.2374 26.7821 19.9925 26.7821 17.6517C26.7821 15.311 25.8523 13.0661 24.1972 11.4109C22.542 9.75574 20.2972 8.82587 17.9565 8.82587ZM17.9565 12.3562C18.6519 12.3561 19.3405 12.493 19.983 12.759C20.6255 13.025 21.2093 13.415 21.7011 13.9066C22.193 14.3983 22.5831 14.982 22.8493 15.6244C23.1156 16.2669 23.2526 16.9554 23.2528 17.6509C23.2529 18.3463 23.116 19.0349 22.85 19.6774C22.584 20.32 22.194 20.9038 21.7024 21.3956C21.2108 21.8874 20.6271 22.2776 19.9846 22.5438C19.3422 22.8101 18.6537 22.9472 17.9583 22.9473C16.5538 22.9473 15.2069 22.3894 14.2138 21.3962C13.2208 20.4031 12.6629 19.0562 12.6629 17.6517C12.6629 16.2473 13.2208 14.9003 14.2138 13.9072C15.2069 12.9141 16.5538 12.3562 17.9583 12.3562M27.2252 6.17811C26.64 6.17811 26.0788 6.41058 25.665 6.82437C25.2512 7.23816 25.0188 7.79939 25.0188 8.38458C25.0188 8.96977 25.2512 9.531 25.665 9.94479C26.0788 10.3586 26.64 10.591 27.2252 10.591C27.8104 10.591 28.3716 10.3586 28.7853 9.94479C29.1991 9.531 29.4316 8.96977 29.4316 8.38458C29.4316 7.79939 29.1991 7.23816 28.7853 6.82437C28.3716 6.41058 27.8104 6.17811 27.2252 6.17811Z" fill="#F9F9F9"/>
</svg>
