<svg width="37" height="36" viewBox="0 0 37 36" fill="none" xmlns="http://www.w3.org/2000/svg">
<path d="M8.20327 32.2588C4.38778 24.4993 2.11782 19.8132 2.11782 19.6969C2.11782 19.5071 2.35092 19.5334 4.64336 19.9796C8.67516 20.7653 10.8293 20.987 14.42 20.9883C19.1708 20.9896 23.0394 20.2428 26.0453 18.7422C27.6353 17.9483 28.5916 17.2445 29.3749 16.2911C30.3396 15.1161 30.6495 14.3068 30.6606 12.9448C30.6703 11.6493 30.4945 10.9662 29.7392 9.38099C29.4403 8.75458 29.1779 8.03558 29.1528 7.7833C29.1137 7.3773 29.1472 7.31911 29.4488 7.28446C30.1078 7.20699 33.3606 10.3411 34.5584 12.2075C36.6232 15.4263 36.7908 18.9083 35.0429 22.2754C33.9692 24.3441 32.7827 25.7754 30.7961 27.4022C27.4943 30.1041 23.6565 31.9857 18.357 33.5016C15.5105 34.3164 10.9076 35.3043 9.95959 35.3043C9.75868 35.3043 9.38156 34.6503 8.20607 32.2575L8.20327 32.2587V32.2588ZM9.26579 19.7453C5.55915 19.2687 2.44883 18.8542 2.35249 18.8238C2.18781 18.7712 1.59866 16.8203 1.26634 15.2324C1.18259 14.8305 1.05966 13.7663 0.992718 12.8658C0.693822 8.8475 1.57478 6.06924 3.93556 3.57105C7.93245 -0.655011 16.4903 -1.16913 26.1456 2.23676C27.8404 2.83538 28.5133 3.25102 28.2021 3.51008C27.9718 3.70132 26.4109 3.69854 23.7137 3.50175C19.4976 3.19414 16.288 3.77609 14.6337 5.15059C12.1151 7.24287 12.4991 11.8293 15.7478 18.4455C16.0996 19.1618 16.4543 19.8629 16.5352 20.0056C16.7238 20.334 16.5869 20.6389 16.2588 20.6236C16.1191 20.617 12.9722 20.2222 9.2657 19.7454L9.26579 19.7453ZM21.7005 16.1456C18.7422 15.6177 16.0827 13.7969 15.2241 11.7144C14.8122 10.7141 14.8317 9.40877 15.2715 8.62742C15.6694 7.92068 16.6968 7.10328 17.6169 6.76095C19.1484 6.1915 21.8303 6.41869 23.7848 7.28479C25.6402 8.10651 27.2848 9.55162 27.8962 10.8956C28.6809 12.6207 28.0274 14.5454 26.3466 15.464C25.2324 16.0723 23.0672 16.3896 21.699 16.1457L21.7005 16.1456Z" fill="#F9F9F9"/>
</svg>
