<svg width="36" height="36" viewBox="0 0 36 36" fill="none" xmlns="http://www.w3.org/2000/svg">
<path d="M31.3816 0C32.422 0 33.4198 0.413284 34.1554 1.14893C34.8911 1.88458 35.3043 2.88234 35.3043 3.92271V31.3816C35.3043 32.422 34.8911 33.4198 34.1554 34.1554C33.4198 34.8911 32.422 35.3043 31.3816 35.3043H3.92271C2.88234 35.3043 1.88458 34.8911 1.14893 34.1554C0.413284 33.4198 0 32.422 0 31.3816V3.92271C0 2.88234 0.413284 1.88458 1.14893 1.14893C1.88458 0.413284 2.88234 0 3.92271 0H31.3816ZM30.401 30.401V20.0058C30.401 18.31 29.7273 16.6837 28.5282 15.4845C27.3291 14.2854 25.7028 13.6118 24.007 13.6118C22.3398 13.6118 20.3981 14.6317 19.4566 16.1615V13.9844H13.9844V30.401H19.4566V20.7315C19.4566 19.2213 20.6727 17.9856 22.1829 17.9856C22.9112 17.9856 23.6096 18.2749 24.1245 18.7899C24.6395 19.3048 24.9288 20.0032 24.9288 20.7315V30.401H30.401ZM7.61005 10.9051C8.48396 10.9051 9.32207 10.558 9.94002 9.94002C10.558 9.32207 10.9051 8.48396 10.9051 7.61005C10.9051 5.78599 9.43411 4.29536 7.61005 4.29536C6.73094 4.29536 5.88784 4.64459 5.26621 5.26621C4.64459 5.88784 4.29536 6.73094 4.29536 7.61005C4.29536 9.43411 5.78599 10.9051 7.61005 10.9051ZM10.3363 30.401V13.9844H4.90338V30.401H10.3363Z" fill="#F9F9F9"/>
</svg>
