<svg width="121" height="76" viewBox="0 0 121 76" fill="none" xmlns="http://www.w3.org/2000/svg">
<g filter="url(#filter0_d_434_1681)">
<path d="M74.5494 39.8308C75.1645 40.1572 75.6965 40.4483 76.3947 40.6776C78.589 41.401 82.7201 42.3095 85.7206 42.3977C85.8536 42.3977 85.9866 42.3977 86.1196 42.3977C97.058 42.3977 99.7261 29.2454 99.7261 29.2454C99.7261 29.2454 100.192 26.4314 99.9089 23.8557C99.8674 23.4146 98.6704 13.2791 86.4686 12.0265C86.4437 12.0265 86.2775 12 85.9783 12C83.6925 12 75.2144 13.0144 61.8988 26.1139C54.1023 33.7795 47.245 37.8284 38.9664 39.6455L38.7669 39.6897C37.6615 39.9278 36.531 40.0513 35.4256 40.0513C29.8067 40.0513 24.5869 36.9198 21.5697 31.6977C18.6106 26.5814 18.5359 20.1772 20.9795 14.761C21.3785 13.8701 21.8273 12.9703 22.3177 12.0794C22.3344 12.0529 22.3426 12.0265 22.3676 12C18.8101 14.32 11.2297 20.5389 11.0053 31.486C10.8723 37.899 13.2411 44.2149 17.4885 48.8372C21.8605 53.5918 27.2466 56 33.4972 56C34.6774 56 35.9076 55.9118 37.1378 55.7354C37.2791 55.7177 47.3364 54.5974 59.2639 42.2919C59.8374 41.7009 60.3944 41.1275 60.9429 40.563C63.5196 37.9254 65.9467 35.429 68.1494 32.8621C68.4735 32.4827 68.8309 32.0593 69.2215 31.5918C73.286 26.7666 80.667 18.0072 87.4994 17.1163C88.1643 16.931 88.8459 16.834 89.5358 16.834C90.1758 16.834 90.8241 16.9222 91.4641 17.0986C92.6194 17.425 93.6501 18.0249 94.5229 18.8188C95.7115 19.7891 96.659 21.2358 97.1993 23.3264C97.2242 23.4058 97.2409 23.4763 97.2575 23.5557C97.2824 23.6439 97.3073 23.7322 97.324 23.8204C97.324 23.8468 97.324 23.8821 97.3323 23.9086C97.7146 25.6199 97.7147 27.49 97.2492 29.3689C96.0772 34.0794 92.3701 37.255 88.4552 37.255C87.8401 37.255 87.2167 37.1756 86.5933 37.008C83.9003 36.7522 80.9329 35.0409 77.7578 32.1652C77.5833 32.0064 77.3838 31.9182 77.1927 31.9182C76.935 31.9182 76.6857 32.0682 76.4862 32.3328C75.9542 33.0473 73.0783 36.0906 72.405 37.4226L72.3801 37.4667L72.3551 37.5108C72.3551 37.5108 72.2304 37.749 72.3385 38.0754C72.4465 38.4194 72.9536 38.9487 74.5578 39.8131L74.5494 39.8308Z" fill="#29AA41"/>
</g>
<defs>
<filter id="filter0_d_434_1681" x="0.3" y="0.3" width="120.4" height="75.4" filterUnits="userSpaceOnUse" color-interpolation-filters="sRGB">
<feFlood flood-opacity="0" result="BackgroundImageFix"/>
<feColorMatrix in="SourceAlpha" type="matrix" values="0 0 0 0 0 0 0 0 0 0 0 0 0 0 0 0 0 0 127 0" result="hardAlpha"/>
<feOffset dx="5" dy="4"/>
<feGaussianBlur stdDeviation="7.85"/>
<feComposite in2="hardAlpha" operator="out"/>
<feColorMatrix type="matrix" values="0 0 0 0 0.310304 0 0 0 0 0.860577 0 0 0 0 0.412681 0 0 0 0.18 0"/>
<feBlend mode="normal" in2="BackgroundImageFix" result="effect1_dropShadow_434_1681"/>
<feBlend mode="normal" in="SourceGraphic" in2="effect1_dropShadow_434_1681" result="shape"/>
</filter>
</defs>
</svg>
