<svg width="44" height="30" viewBox="0 0 44 30" fill="none" xmlns="http://www.w3.org/2000/svg">
<path d="M17.9396 21.2055L29.1833 14.8439L17.9396 8.48221V21.2055ZM42.9832 4.6016C43.2649 5.59826 43.4599 6.93421 43.5898 8.63065C43.7415 10.3271 43.8065 11.7903 43.8065 13.0626L43.9365 14.8439C43.9365 19.4879 43.5898 22.902 42.9832 25.0861C42.4416 26.9946 41.1851 28.2246 39.2354 28.7547C38.2172 29.0304 36.3541 29.2212 33.4944 29.3485C30.6781 29.4969 28.1001 29.5605 25.717 29.5605L22.2724 29.6877C13.1952 29.6877 7.54089 29.3485 5.30949 28.7547C3.35973 28.2246 2.10322 26.9946 1.56162 25.0861C1.27998 24.0895 1.08501 22.7535 0.955023 21.0571C0.803375 19.3607 0.738383 17.8975 0.738383 16.6251L0.608398 14.8439C0.608398 10.1999 0.955023 6.78577 1.56162 4.6016C2.10322 2.6931 3.35973 1.46318 5.30949 0.933044C6.3277 0.657372 8.19081 0.466521 11.0505 0.339288C13.8668 0.190849 16.4448 0.127233 18.8279 0.127233L22.2724 0C31.3497 0 37.004 0.339289 39.2354 0.933044C41.1851 1.46318 42.4416 2.6931 42.9832 4.6016Z" fill="#F9F9F9"/>
</svg>
